  0
SECTION
  2
BLOCKS
  0
ENDSEC
  0
SECTION
  2
ENTITIES
  0
LINE
  8
0
 10
0.664
 11
1.694
 20
34.778
 21
41.39
  0
LINE
  8
0
 10
1.694
 11
4.081
 20
41.39
 21
47.646
  0
LINE
  8
0
 10
4.081
 11
7.718
 20
47.646
 21
53.262
  0
LINE
  8
0
 10
7.718
 11
12.449
 20
53.262
 21
57.993
  0
LINE
  8
0
 10
12.449
 11
18.065
 20
57.993
 21
61.63
  0
LINE
  8
0
 10
18.065
 11
24.321
 20
61.63
 21
64.017
  0
LINE
  8
0
 10
24.321
 11
30.933
 20
64.017
 21
65.047
  0
LINE
  8
0
 10
30.933
 11
30.921
 20
65.047
 21
65.028
  0
LINE
  8
0
 10
30.921
 11
30.772
 20
65.028
 21
64.637
  0
LINE
  8
0
 10
30.772
 11
30.708
 20
64.637
 21
64.223
  0
LINE
  8
0
 10
30.708
 11
30.731
 20
64.223
 21
63.804
  0
LINE
  8
0
 10
30.731
 11
30.841
 20
63.804
 21
63.399
  0
LINE
  8
0
 10
30.841
 11
31.032
 20
63.399
 21
63.025
  0
LINE
  8
0
 10
31.032
 11
31.297
 20
63.025
 21
62.698
  0
LINE
  8
0
 10
31.297
 11
31.623
 20
62.698
 21
62.434
  0
LINE
  8
0
 10
31.623
 11
31.998
 20
62.434
 21
62.242
  0
LINE
  8
0
 10
31.998
 11
32.403
 20
62.242
 21
62.133
  0
LINE
  8
0
 10
32.403
 11
32.821
 20
62.133
 21
62.11
  0
LINE
  8
0
 10
32.821
 11
33.236
 20
62.11
 21
62.174
  0
LINE
  8
0
 10
33.236
 11
33.627
 20
62.174
 21
62.323
  0
LINE
  8
0
 10
33.627
 11
33.977
 20
62.323
 21
62.551
  0
LINE
  8
0
 10
33.977
 11
34.273
 20
62.551
 21
62.846
  0
LINE
  8
0
 10
34.273
 11
34.501
 20
62.846
 21
63.197
  0
LINE
  8
0
 10
34.501
 11
34.65
 20
63.197
 21
63.588
  0
LINE
  8
0
 10
34.65
 11
34.714
 20
63.588
 21
64.002
  0
LINE
  8
0
 10
34.714
 11
34.691
 20
64.002
 21
64.421
  0
LINE
  8
0
 10
34.691
 11
34.581
 20
64.421
 21
64.826
  0
LINE
  8
0
 10
34.581
 11
34.569
 20
64.826
 21
64.85
  0
LINE
  8
0
 10
34.569
 11
37.644
 20
64.85
 21
64.68
  0
LINE
  8
0
 10
37.644
 11
44.129
 20
64.68
 21
62.925
  0
LINE
  8
0
 10
44.129
 11
50.114
 20
62.925
 21
59.864
  0
LINE
  8
0
 10
50.114
 11
55.338
 20
59.864
 21
55.627
  0
LINE
  8
0
 10
55.338
 11
59.575
 20
55.627
 21
50.403
  0
LINE
  8
0
 10
59.575
 11
62.636
 20
50.403
 21
44.418
  0
LINE
  8
0
 10
62.636
 11
64.391
 20
44.418
 21
37.933
  0
LINE
  8
0
 10
64.391
 11
64.561
 20
37.933
 21
34.858
  0
LINE
  8
0
 10
64.561
 11
64.537
 20
34.858
 21
34.87
  0
LINE
  8
0
 10
64.537
 11
64.132
 20
34.87
 21
34.98
  0
LINE
  8
0
 10
64.132
 11
63.713
 20
34.98
 21
35.003
  0
LINE
  8
0
 10
63.713
 11
63.299
 20
35.003
 21
34.939
  0
LINE
  8
0
 10
63.299
 11
62.908
 20
34.939
 21
34.79
  0
LINE
  8
0
 10
62.908
 11
62.557
 20
34.79
 21
34.562
  0
LINE
  8
0
 10
62.557
 11
62.262
 20
34.562
 21
34.266
  0
LINE
  8
0
 10
62.262
 11
62.034
 20
34.266
 21
33.916
  0
LINE
  8
0
 10
62.034
 11
61.885
 20
33.916
 21
33.525
  0
LINE
  8
0
 10
61.885
 11
61.821
 20
33.525
 21
33.11
  0
LINE
  8
0
 10
61.821
 11
61.844
 20
33.11
 21
32.692
  0
LINE
  8
0
 10
61.844
 11
61.953
 20
32.692
 21
32.287
  0
LINE
  8
0
 10
61.953
 11
62.145
 20
32.287
 21
31.912
  0
LINE
  8
0
 10
62.145
 11
62.409
 20
31.912
 21
31.586
  0
LINE
  8
0
 10
62.409
 11
62.736
 20
31.586
 21
31.321
  0
LINE
  8
0
 10
62.736
 11
63.11
 20
31.321
 21
31.13
  0
LINE
  8
0
 10
63.11
 11
63.515
 20
31.13
 21
31.02
  0
LINE
  8
0
 10
63.515
 11
63.934
 20
31.02
 21
30.997
  0
LINE
  8
0
 10
63.934
 11
64.348
 20
30.997
 21
31.061
  0
LINE
  8
0
 10
64.348
 11
64.739
 20
31.061
 21
31.21
  0
LINE
  8
0
 10
64.739
 11
64.758
 20
31.21
 21
31.222
  0
LINE
  8
0
 10
64.758
 11
63.728
 20
31.222
 21
24.61
  0
LINE
  8
0
 10
63.728
 11
61.341
 20
24.61
 21
18.354
  0
LINE
  8
0
 10
61.341
 11
57.704
 20
18.354
 21
12.738
  0
LINE
  8
0
 10
57.704
 11
52.973
 20
12.738
 21
8.007
  0
LINE
  8
0
 10
52.973
 11
47.357
 20
8.007
 21
4.37
  0
LINE
  8
0
 10
47.357
 11
41.101
 20
4.37
 21
1.983
  0
LINE
  8
0
 10
41.101
 11
34.489
 20
1.983
 21
0.953
  0
LINE
  8
0
 10
34.489
 11
34.501
 20
0.953
 21
0.972
  0
LINE
  8
0
 10
34.501
 11
34.65
 20
0.972
 21
1.363
  0
LINE
  8
0
 10
34.65
 11
34.714
 20
1.363
 21
1.777
  0
LINE
  8
0
 10
34.714
 11
34.691
 20
1.777
 21
2.196
  0
LINE
  8
0
 10
34.691
 11
34.581
 20
2.196
 21
2.601
  0
LINE
  8
0
 10
34.581
 11
34.39
 20
2.601
 21
2.975
  0
LINE
  8
0
 10
34.39
 11
34.125
 20
2.975
 21
3.302
  0
LINE
  8
0
 10
34.125
 11
33.799
 20
3.302
 21
3.566
  0
LINE
  8
0
 10
33.799
 11
33.424
 20
3.566
 21
3.758
  0
LINE
  8
0
 10
33.424
 11
33.019
 20
3.758
 21
3.867
  0
LINE
  8
0
 10
33.019
 11
32.601
 20
3.867
 21
3.89
  0
LINE
  8
0
 10
32.601
 11
32.186
 20
3.89
 21
3.826
  0
LINE
  8
0
 10
32.186
 11
31.795
 20
3.826
 21
3.677
  0
LINE
  8
0
 10
31.795
 11
31.445
 20
3.677
 21
3.449
  0
LINE
  8
0
 10
31.445
 11
31.149
 20
3.449
 21
3.154
  0
LINE
  8
0
 10
31.149
 11
30.921
 20
3.154
 21
2.803
  0
LINE
  8
0
 10
30.921
 11
30.772
 20
2.803
 21
2.412
  0
LINE
  8
0
 10
30.772
 11
30.708
 20
2.412
 21
1.998
  0
LINE
  8
0
 10
30.708
 11
30.731
 20
1.998
 21
1.579
  0
LINE
  8
0
 10
30.731
 11
30.841
 20
1.579
 21
1.174
  0
LINE
  8
0
 10
30.841
 11
30.853
 20
1.174
 21
1.15
  0
LINE
  8
0
 10
30.853
 11
27.778
 20
1.15
 21
1.32
  0
LINE
  8
0
 10
27.778
 11
21.293
 20
1.32
 21
3.075
  0
LINE
  8
0
 10
21.293
 11
15.308
 20
3.075
 21
6.136
  0
LINE
  8
0
 10
15.308
 11
10.084
 20
6.136
 21
10.373
  0
LINE
  8
0
 10
10.084
 11
5.847
 20
10.373
 21
15.597
  0
LINE
  8
0
 10
5.847
 11
2.786
 20
15.597
 21
21.582
  0
LINE
  8
0
 10
2.786
 11
1.031
 20
21.582
 21
28.067
  0
LINE
  8
0
 10
1.031
 11
0.861
 20
28.067
 21
31.142
  0
LINE
  8
0
 10
0.861
 11
0.885
 20
31.142
 21
31.13
  0
LINE
  8
0
 10
0.885
 11
1.29
 20
31.13
 21
31.02
  0
LINE
  8
0
 10
1.29
 11
1.709
 20
31.02
 21
30.997
  0
LINE
  8
0
 10
1.709
 11
2.123
 20
30.997
 21
31.061
  0
LINE
  8
0
 10
2.123
 11
2.514
 20
31.061
 21
31.21
  0
LINE
  8
0
 10
2.514
 11
2.865
 20
31.21
 21
31.438
  0
LINE
  8
0
 10
2.865
 11
3.16
 20
31.438
 21
31.734
  0
LINE
  8
0
 10
3.16
 11
3.388
 20
31.734
 21
32.084
  0
LINE
  8
0
 10
3.388
 11
3.537
 20
32.084
 21
32.475
  0
LINE
  8
0
 10
3.537
 11
3.601
 20
32.475
 21
32.89
  0
LINE
  8
0
 10
3.601
 11
3.578
 20
32.89
 21
33.308
  0
LINE
  8
0
 10
3.578
 11
3.469
 20
33.308
 21
33.713
  0
LINE
  8
0
 10
3.469
 11
3.277
 20
33.713
 21
34.088
  0
LINE
  8
0
 10
3.277
 11
3.013
 20
34.088
 21
34.414
  0
LINE
  8
0
 10
3.013
 11
2.686
 20
34.414
 21
34.679
  0
LINE
  8
0
 10
2.686
 11
2.312
 20
34.679
 21
34.87
  0
LINE
  8
0
 10
2.312
 11
1.907
 20
34.87
 21
34.98
  0
LINE
  8
0
 10
1.907
 11
1.488
 20
34.98
 21
35.003
  0
LINE
  8
0
 10
1.488
 11
1.074
 20
35.003
 21
34.939
  0
LINE
  8
0
 10
1.074
 11
0.683
 20
34.939
 21
34.79
  0
LINE
  8
0
 10
0.683
 11
0.664
 20
34.79
 21
34.778
  0
LINE
  8
0
 10
1
 11
1
 20
79
 21
82
  0
LINE
  8
0
 10
1
 11
1.022
 20
82
 21
82.209
  0
LINE
  8
0
 10
1.022
 11
1.086
 20
82.209
 21
82.409
  0
LINE
  8
0
 10
1.086
 11
1.191
 20
82.409
 21
82.591
  0
LINE
  8
0
 10
1.191
 11
1.331
 20
82.591
 21
82.747
  0
LINE
  8
0
 10
1.331
 11
1.5
 20
82.747
 21
82.871
  0
LINE
  8
0
 10
1.5
 11
1.691
 20
82.871
 21
82.956
  0
LINE
  8
0
 10
1.691
 11
1.895
 20
82.956
 21
83
  0
LINE
  8
0
 10
1.895
 11
2.105
 20
83
 21
83
  0
LINE
  8
0
 10
2.105
 11
2.309
 20
83
 21
82.956
  0
LINE
  8
0
 10
2.309
 11
2.5
 20
82.956
 21
82.871
  0
LINE
  8
0
 10
2.5
 11
2.669
 20
82.871
 21
82.747
  0
LINE
  8
0
 10
2.669
 11
2.809
 20
82.747
 21
82.591
  0
LINE
  8
0
 10
2.809
 11
2.914
 20
82.591
 21
82.409
  0
LINE
  8
0
 10
2.914
 11
2.978
 20
82.409
 21
82.209
  0
LINE
  8
0
 10
2.978
 11
3
 20
82.209
 21
82
  0
LINE
  8
0
 10
3
 11
2.978
 20
82
 21
81.791
  0
LINE
  8
0
 10
2.978
 11
2.914
 20
81.791
 21
81.591
  0
LINE
  8
0
 10
2.914
 11
2.809
 20
81.591
 21
81.409
  0
LINE
  8
0
 10
2.809
 11
2.669
 20
81.409
 21
81.253
  0
LINE
  8
0
 10
2.669
 11
2.5
 20
81.253
 21
81.129
  0
LINE
  8
0
 10
2.5
 11
2.309
 20
81.129
 21
81.044
  0
LINE
  8
0
 10
2.309
 11
2.105
 20
81.044
 21
81
  0
LINE
  8
0
 10
2.105
 11
2
 20
81
 21
81
  0
LINE
  8
0
 10
2
 11
2
 20
81
 21
79.565
  0
LINE
  8
0
 10
2
 11
1.959
 20
79.565
 21
79.519
  0
LINE
  8
0
 10
1.959
 11
1.918
 20
79.519
 21
79.447
  0
LINE
  8
0
 10
1.918
 11
1.892
 20
79.447
 21
79.367
  0
LINE
  8
0
 10
1.892
 11
1.883
 20
79.367
 21
79.283
  0
LINE
  8
0
 10
1.883
 11
1.892
 20
79.283
 21
79.199
  0
LINE
  8
0
 10
1.892
 11
1.918
 20
79.199
 21
79.119
  0
LINE
  8
0
 10
1.918
 11
1.959
 20
79.119
 21
79.047
  0
LINE
  8
0
 10
1.959
 11
2
 20
79.047
 21
79.001
  0
LINE
  8
0
 10
2
 11
2.015
 20
79.001
 21
78.984
  0
LINE
  8
0
 10
2.015
 11
2.083
 20
78.984
 21
78.935
  0
LINE
  8
0
 10
2.083
 11
2.159
 20
78.935
 21
78.9
  0
LINE
  8
0
 10
2.159
 11
2.241
 20
78.9
 21
78.883
  0
LINE
  8
0
 10
2.241
 11
2.325
 20
78.883
 21
78.883
  0
LINE
  8
0
 10
2.325
 11
2.407
 20
78.883
 21
78.9
  0
LINE
  8
0
 10
2.407
 11
2.483
 20
78.9
 21
78.935
  0
LINE
  8
0
 10
2.483
 11
2.551
 20
78.935
 21
78.984
  0
LINE
  8
0
 10
2.551
 11
2.565
 20
78.984
 21
79
  0
LINE
  8
0
 10
2.565
 11
18.935
 20
79
 21
79
  0
LINE
  8
0
 10
18.935
 11
18.949
 20
79
 21
78.984
  0
LINE
  8
0
 10
18.949
 11
19.017
 20
78.984
 21
78.935
  0
LINE
  8
0
 10
19.017
 11
19.093
 20
78.935
 21
78.9
  0
LINE
  8
0
 10
19.093
 11
19.175
 20
78.9
 21
78.883
  0
LINE
  8
0
 10
19.175
 11
19.259
 20
78.883
 21
78.883
  0
LINE
  8
0
 10
19.259
 11
19.341
 20
78.883
 21
78.9
  0
LINE
  8
0
 10
19.341
 11
19.417
 20
78.9
 21
78.935
  0
LINE
  8
0
 10
19.417
 11
19.485
 20
78.935
 21
78.984
  0
LINE
  8
0
 10
19.485
 11
19.499
 20
78.984
 21
79
  0
LINE
  8
0
 10
19.499
 11
19.541
 20
79
 21
79.047
  0
LINE
  8
0
 10
19.541
 11
19.582
 20
79.047
 21
79.119
  0
LINE
  8
0
 10
19.582
 11
19.608
 20
79.119
 21
79.199
  0
LINE
  8
0
 10
19.608
 11
19.617
 20
79.199
 21
79.283
  0
LINE
  8
0
 10
19.617
 11
19.608
 20
79.283
 21
79.367
  0
LINE
  8
0
 10
19.608
 11
19.582
 20
79.367
 21
79.447
  0
LINE
  8
0
 10
19.582
 11
19.541
 20
79.447
 21
79.519
  0
LINE
  8
0
 10
19.541
 11
19.5
 20
79.519
 21
79.565
  0
LINE
  8
0
 10
19.5
 11
19.5
 20
79.565
 21
81
  0
LINE
  8
0
 10
19.5
 11
19.395
 20
81
 21
81
  0
LINE
  8
0
 10
19.395
 11
19.191
 20
81
 21
81.044
  0
LINE
  8
0
 10
19.191
 11
19
 20
81.044
 21
81.129
  0
LINE
  8
0
 10
19
 11
18.831
 20
81.129
 21
81.253
  0
LINE
  8
0
 10
18.831
 11
18.691
 20
81.253
 21
81.409
  0
LINE
  8
0
 10
18.691
 11
18.586
 20
81.409
 21
81.591
  0
LINE
  8
0
 10
18.586
 11
18.522
 20
81.591
 21
81.791
  0
LINE
  8
0
 10
18.522
 11
18.5
 20
81.791
 21
82
  0
LINE
  8
0
 10
18.5
 11
18.522
 20
82
 21
82.209
  0
LINE
  8
0
 10
18.522
 11
18.586
 20
82.209
 21
82.409
  0
LINE
  8
0
 10
18.586
 11
18.691
 20
82.409
 21
82.591
  0
LINE
  8
0
 10
18.691
 11
18.831
 20
82.591
 21
82.747
  0
LINE
  8
0
 10
18.831
 11
19
 20
82.747
 21
82.871
  0
LINE
  8
0
 10
19
 11
19.191
 20
82.871
 21
82.956
  0
LINE
  8
0
 10
19.191
 11
19.395
 20
82.956
 21
83
  0
LINE
  8
0
 10
19.395
 11
19.605
 20
83
 21
83
  0
LINE
  8
0
 10
19.605
 11
19.809
 20
83
 21
82.956
  0
LINE
  8
0
 10
19.809
 11
20
 20
82.956
 21
82.871
  0
LINE
  8
0
 10
20
 11
20.169
 20
82.871
 21
82.747
  0
LINE
  8
0
 10
20.169
 11
20.309
 20
82.747
 21
82.591
  0
LINE
  8
0
 10
20.309
 11
20.414
 20
82.591
 21
82.409
  0
LINE
  8
0
 10
20.414
 11
20.478
 20
82.409
 21
82.209
  0
LINE
  8
0
 10
20.478
 11
20.5
 20
82.209
 21
82
  0
LINE
  8
0
 10
20.5
 11
20.5
 20
82
 21
79.565
  0
LINE
  8
0
 10
20.5
 11
20.459
 20
79.565
 21
79.519
  0
LINE
  8
0
 10
20.459
 11
20.418
 20
79.519
 21
79.447
  0
LINE
  8
0
 10
20.418
 11
20.392
 20
79.447
 21
79.367
  0
LINE
  8
0
 10
20.392
 11
20.383
 20
79.367
 21
79.283
  0
LINE
  8
0
 10
20.383
 11
20.392
 20
79.283
 21
79.199
  0
LINE
  8
0
 10
20.392
 11
20.418
 20
79.199
 21
79.119
  0
LINE
  8
0
 10
20.418
 11
20.459
 20
79.119
 21
79.047
  0
LINE
  8
0
 10
20.459
 11
20.5
 20
79.047
 21
79.001
  0
LINE
  8
0
 10
20.5
 11
20.515
 20
79.001
 21
78.984
  0
LINE
  8
0
 10
20.515
 11
20.583
 20
78.984
 21
78.935
  0
LINE
  8
0
 10
20.583
 11
20.659
 20
78.935
 21
78.9
  0
LINE
  8
0
 10
20.659
 11
20.741
 20
78.9
 21
78.883
  0
LINE
  8
0
 10
20.741
 11
20.825
 20
78.883
 21
78.883
  0
LINE
  8
0
 10
20.825
 11
20.907
 20
78.883
 21
78.9
  0
LINE
  8
0
 10
20.907
 11
20.983
 20
78.9
 21
78.935
  0
LINE
  8
0
 10
20.983
 11
21.051
 20
78.935
 21
78.984
  0
LINE
  8
0
 10
21.051
 11
21.065
 20
78.984
 21
79
  0
LINE
  8
0
 10
21.065
 11
52.013
 20
79
 21
79
  0
LINE
  8
0
 10
52.013
 11
52.013
 20
79
 21
71.5
  0
LINE
  8
0
 10
52.013
 11
50.176
 20
71.5
 21
71.5
  0
LINE
  8
0
 10
50.176
 11
50.13
 20
71.5
 21
71.541
  0
LINE
  8
0
 10
50.13
 11
50.058
 20
71.541
 21
71.582
  0
LINE
  8
0
 10
50.058
 11
49.978
 20
71.582
 21
71.608
  0
LINE
  8
0
 10
49.978
 11
49.894
 20
71.608
 21
71.617
  0
LINE
  8
0
 10
49.894
 11
49.81
 20
71.617
 21
71.608
  0
LINE
  8
0
 10
49.81
 11
49.73
 20
71.608
 21
71.582
  0
LINE
  8
0
 10
49.73
 11
49.658
 20
71.582
 21
71.541
  0
LINE
  8
0
 10
49.658
 11
49.612
 20
71.541
 21
71.5
  0
LINE
  8
0
 10
49.612
 11
49.595
 20
71.5
 21
71.485
  0
LINE
  8
0
 10
49.595
 11
49.546
 20
71.485
 21
71.417
  0
LINE
  8
0
 10
49.546
 11
49.511
 20
71.417
 21
71.341
  0
LINE
  8
0
 10
49.511
 11
49.494
 20
71.341
 21
71.259
  0
LINE
  8
0
 10
49.494
 11
49.494
 20
71.259
 21
71.175
  0
LINE
  8
0
 10
49.494
 11
49.511
 20
71.175
 21
71.093
  0
LINE
  8
0
 10
49.511
 11
49.546
 20
71.093
 21
71.017
  0
LINE
  8
0
 10
49.546
 11
49.595
 20
71.017
 21
70.949
  0
LINE
  8
0
 10
49.595
 11
49.611
 20
70.949
 21
70.935
  0
LINE
  8
0
 10
49.611
 11
49.611
 20
70.935
 21
69.865
  0
LINE
  8
0
 10
49.611
 11
49.595
 20
69.865
 21
69.851
  0
LINE
  8
0
 10
49.595
 11
49.546
 20
69.851
 21
69.783
  0
LINE
  8
0
 10
49.546
 11
49.511
 20
69.783
 21
69.707
  0
LINE
  8
0
 10
49.511
 11
49.494
 20
69.707
 21
69.625
  0
LINE
  8
0
 10
49.494
 11
49.494
 20
69.625
 21
69.541
  0
LINE
  8
0
 10
49.494
 11
49.511
 20
69.541
 21
69.459
  0
LINE
  8
0
 10
49.511
 11
49.546
 20
69.459
 21
69.383
  0
LINE
  8
0
 10
49.546
 11
49.595
 20
69.383
 21
69.315
  0
LINE
  8
0
 10
49.595
 11
49.611
 20
69.315
 21
69.301
  0
LINE
  8
0
 10
49.611
 11
49.658
 20
69.301
 21
69.259
  0
LINE
  8
0
 10
49.658
 11
49.73
 20
69.259
 21
69.218
  0
LINE
  8
0
 10
49.73
 11
49.81
 20
69.218
 21
69.192
  0
LINE
  8
0
 10
49.81
 11
49.894
 20
69.192
 21
69.183
  0
LINE
  8
0
 10
49.894
 11
49.978
 20
69.183
 21
69.192
  0
LINE
  8
0
 10
49.978
 11
50.058
 20
69.192
 21
69.218
  0
LINE
  8
0
 10
50.058
 11
50.13
 20
69.218
 21
69.259
  0
LINE
  8
0
 10
50.13
 11
50.176
 20
69.259
 21
69.3
  0
LINE
  8
0
 10
50.176
 11
55.646
 20
69.3
 21
69.3
  0
LINE
  8
0
 10
55.646
 11
55.692
 20
69.3
 21
69.259
  0
LINE
  8
0
 10
55.692
 11
55.764
 20
69.259
 21
69.218
  0
LINE
  8
0
 10
55.764
 11
55.844
 20
69.218
 21
69.192
  0
LINE
  8
0
 10
55.844
 11
55.928
 20
69.192
 21
69.183
  0
LINE
  8
0
 10
55.928
 11
56.012
 20
69.183
 21
69.192
  0
LINE
  8
0
 10
56.012
 11
56.092
 20
69.192
 21
69.218
  0
LINE
  8
0
 10
56.092
 11
56.164
 20
69.218
 21
69.259
  0
LINE
  8
0
 10
56.164
 11
56.21
 20
69.259
 21
69.3
  0
LINE
  8
0
 10
56.21
 11
56.227
 20
69.3
 21
69.315
  0
LINE
  8
0
 10
56.227
 11
56.276
 20
69.315
 21
69.383
  0
LINE
  8
0
 10
56.276
 11
56.311
 20
69.383
 21
69.459
  0
LINE
  8
0
 10
56.311
 11
56.328
 20
69.459
 21
69.541
  0
LINE
  8
0
 10
56.328
 11
56.328
 20
69.541
 21
69.625
  0
LINE
  8
0
 10
56.328
 11
56.311
 20
69.625
 21
69.707
  0
LINE
  8
0
 10
56.311
 11
56.276
 20
69.707
 21
69.783
  0
LINE
  8
0
 10
56.276
 11
56.227
 20
69.783
 21
69.851
  0
LINE
  8
0
 10
56.227
 11
56.211
 20
69.851
 21
69.865
  0
LINE
  8
0
 10
56.211
 11
56.211
 20
69.865
 21
71.125
  0
LINE
  8
0
 10
56.211
 11
107.211
 20
71.125
 21
71.125
  0
LINE
  8
0
 10
107.211
 11
107.211
 20
71.125
 21
69.865
  0
LINE
  8
0
 10
107.211
 11
107.195
 20
69.865
 21
69.851
  0
LINE
  8
0
 10
107.195
 11
107.146
 20
69.851
 21
69.783
  0
LINE
  8
0
 10
107.146
 11
107.111
 20
69.783
 21
69.707
  0
LINE
  8
0
 10
107.111
 11
107.094
 20
69.707
 21
69.625
  0
LINE
  8
0
 10
107.094
 11
107.094
 20
69.625
 21
69.541
  0
LINE
  8
0
 10
107.094
 11
107.111
 20
69.541
 21
69.459
  0
LINE
  8
0
 10
107.111
 11
107.146
 20
69.459
 21
69.383
  0
LINE
  8
0
 10
107.146
 11
107.195
 20
69.383
 21
69.315
  0
LINE
  8
0
 10
107.195
 11
107.212
 20
69.315
 21
69.3
  0
LINE
  8
0
 10
107.212
 11
107.258
 20
69.3
 21
69.259
  0
LINE
  8
0
 10
107.258
 11
107.33
 20
69.259
 21
69.218
  0
LINE
  8
0
 10
107.33
 11
107.41
 20
69.218
 21
69.192
  0
LINE
  8
0
 10
107.41
 11
107.494
 20
69.192
 21
69.183
  0
LINE
  8
0
 10
107.494
 11
107.578
 20
69.183
 21
69.192
  0
LINE
  8
0
 10
107.578
 11
107.658
 20
69.192
 21
69.218
  0
LINE
  8
0
 10
107.658
 11
107.73
 20
69.218
 21
69.259
  0
LINE
  8
0
 10
107.73
 11
107.776
 20
69.259
 21
69.3
  0
LINE
  8
0
 10
107.776
 11
113.246
 20
69.3
 21
69.3
  0
LINE
  8
0
 10
113.246
 11
113.292
 20
69.3
 21
69.259
  0
LINE
  8
0
 10
113.292
 11
113.364
 20
69.259
 21
69.218
  0
LINE
  8
0
 10
113.364
 11
113.444
 20
69.218
 21
69.192
  0
LINE
  8
0
 10
113.444
 11
113.528
 20
69.192
 21
69.183
  0
LINE
  8
0
 10
113.528
 11
113.612
 20
69.183
 21
69.192
  0
LINE
  8
0
 10
113.612
 11
113.692
 20
69.192
 21
69.218
  0
LINE
  8
0
 10
113.692
 11
113.764
 20
69.218
 21
69.259
  0
LINE
  8
0
 10
113.764
 11
113.811
 20
69.259
 21
69.301
  0
LINE
  8
0
 10
113.811
 11
113.827
 20
69.301
 21
69.315
  0
LINE
  8
0
 10
113.827
 11
113.876
 20
69.315
 21
69.383
  0
LINE
  8
0
 10
113.876
 11
113.911
 20
69.383
 21
69.459
  0
LINE
  8
0
 10
113.911
 11
113.928
 20
69.459
 21
69.541
  0
LINE
  8
0
 10
113.928
 11
113.928
 20
69.541
 21
69.625
  0
LINE
  8
0
 10
113.928
 11
113.911
 20
69.625
 21
69.707
  0
LINE
  8
0
 10
113.911
 11
113.876
 20
69.707
 21
69.783
  0
LINE
  8
0
 10
113.876
 11
113.827
 20
69.783
 21
69.851
  0
LINE
  8
0
 10
113.827
 11
113.811
 20
69.851
 21
69.865
  0
LINE
  8
0
 10
113.811
 11
113.811
 20
69.865
 21
70.935
  0
LINE
  8
0
 10
113.811
 11
113.827
 20
70.935
 21
70.949
  0
LINE
  8
0
 10
113.827
 11
113.876
 20
70.949
 21
71.017
  0
LINE
  8
0
 10
113.876
 11
113.911
 20
71.017
 21
71.093
  0
LINE
  8
0
 10
113.911
 11
113.928
 20
71.093
 21
71.175
  0
LINE
  8
0
 10
113.928
 11
113.928
 20
71.175
 21
71.259
  0
LINE
  8
0
 10
113.928
 11
113.911
 20
71.259
 21
71.341
  0
LINE
  8
0
 10
113.911
 11
113.876
 20
71.341
 21
71.417
  0
LINE
  8
0
 10
113.876
 11
113.827
 20
71.417
 21
71.485
  0
LINE
  8
0
 10
113.827
 11
113.81
 20
71.485
 21
71.5
  0
LINE
  8
0
 10
113.81
 11
113.764
 20
71.5
 21
71.541
  0
LINE
  8
0
 10
113.764
 11
113.692
 20
71.541
 21
71.582
  0
LINE
  8
0
 10
113.692
 11
113.612
 20
71.582
 21
71.608
  0
LINE
  8
0
 10
113.612
 11
113.528
 20
71.608
 21
71.617
  0
LINE
  8
0
 10
113.528
 11
113.444
 20
71.617
 21
71.608
  0
LINE
  8
0
 10
113.444
 11
113.364
 20
71.608
 21
71.582
  0
LINE
  8
0
 10
113.364
 11
113.292
 20
71.582
 21
71.541
  0
LINE
  8
0
 10
113.292
 11
113.246
 20
71.541
 21
71.5
  0
LINE
  8
0
 10
113.246
 11
111.409
 20
71.5
 21
71.5
  0
LINE
  8
0
 10
111.409
 11
111.409
 20
71.5
 21
79
  0
LINE
  8
0
 10
111.409
 11
142.357
 20
79
 21
79
  0
LINE
  8
0
 10
142.357
 11
142.371
 20
79
 21
78.984
  0
LINE
  8
0
 10
142.371
 11
142.439
 20
78.984
 21
78.935
  0
LINE
  8
0
 10
142.439
 11
142.515
 20
78.935
 21
78.9
  0
LINE
  8
0
 10
142.515
 11
142.597
 20
78.9
 21
78.883
  0
LINE
  8
0
 10
142.597
 11
142.681
 20
78.883
 21
78.883
  0
LINE
  8
0
 10
142.681
 11
142.763
 20
78.883
 21
78.9
  0
LINE
  8
0
 10
142.763
 11
142.839
 20
78.9
 21
78.935
  0
LINE
  8
0
 10
142.839
 11
142.907
 20
78.935
 21
78.984
  0
LINE
  8
0
 10
142.907
 11
142.922
 20
78.984
 21
79.001
  0
LINE
  8
0
 10
142.922
 11
142.963
 20
79.001
 21
79.047
  0
LINE
  8
0
 10
142.963
 11
143.004
 20
79.047
 21
79.119
  0
LINE
  8
0
 10
143.004
 11
143.03
 20
79.119
 21
79.199
  0
LINE
  8
0
 10
143.03
 11
143.039
 20
79.199
 21
79.283
  0
LINE
  8
0
 10
143.039
 11
143.03
 20
79.283
 21
79.367
  0
LINE
  8
0
 10
143.03
 11
143.004
 20
79.367
 21
79.447
  0
LINE
  8
0
 10
143.004
 11
142.963
 20
79.447
 21
79.519
  0
LINE
  8
0
 10
142.963
 11
142.922
 20
79.519
 21
79.565
  0
LINE
  8
0
 10
142.922
 11
142.922
 20
79.565
 21
82
  0
LINE
  8
0
 10
142.922
 11
142.944
 20
82
 21
82.209
  0
LINE
  8
0
 10
142.944
 11
143.008
 20
82.209
 21
82.409
  0
LINE
  8
0
 10
143.008
 11
143.113
 20
82.409
 21
82.591
  0
LINE
  8
0
 10
143.113
 11
143.253
 20
82.591
 21
82.747
  0
LINE
  8
0
 10
143.253
 11
143.422
 20
82.747
 21
82.871
  0
LINE
  8
0
 10
143.422
 11
143.613
 20
82.871
 21
82.956
  0
LINE
  8
0
 10
143.613
 11
143.817
 20
82.956
 21
83
  0
LINE
  8
0
 10
143.817
 11
144.027
 20
83
 21
83
  0
LINE
  8
0
 10
144.027
 11
144.231
 20
83
 21
82.956
  0
LINE
  8
0
 10
144.231
 11
144.422
 20
82.956
 21
82.871
  0
LINE
  8
0
 10
144.422
 11
144.591
 20
82.871
 21
82.747
  0
LINE
  8
0
 10
144.591
 11
144.731
 20
82.747
 21
82.591
  0
LINE
  8
0
 10
144.731
 11
144.836
 20
82.591
 21
82.409
  0
LINE
  8
0
 10
144.836
 11
144.9
 20
82.409
 21
82.209
  0
LINE
  8
0
 10
144.9
 11
144.922
 20
82.209
 21
82
  0
LINE
  8
0
 10
144.922
 11
144.9
 20
82
 21
81.791
  0
LINE
  8
0
 10
144.9
 11
144.836
 20
81.791
 21
81.591
  0
LINE
  8
0
 10
144.836
 11
144.731
 20
81.591
 21
81.409
  0
LINE
  8
0
 10
144.731
 11
144.591
 20
81.409
 21
81.253
  0
LINE
  8
0
 10
144.591
 11
144.422
 20
81.253
 21
81.129
  0
LINE
  8
0
 10
144.422
 11
144.231
 20
81.129
 21
81.044
  0
LINE
  8
0
 10
144.231
 11
144.027
 20
81.044
 21
81
  0
LINE
  8
0
 10
144.027
 11
143.922
 20
81
 21
81
  0
LINE
  8
0
 10
143.922
 11
143.922
 20
81
 21
79.565
  0
LINE
  8
0
 10
143.922
 11
143.881
 20
79.565
 21
79.519
  0
LINE
  8
0
 10
143.881
 11
143.84
 20
79.519
 21
79.447
  0
LINE
  8
0
 10
143.84
 11
143.814
 20
79.447
 21
79.367
  0
LINE
  8
0
 10
143.814
 11
143.805
 20
79.367
 21
79.283
  0
LINE
  8
0
 10
143.805
 11
143.814
 20
79.283
 21
79.199
  0
LINE
  8
0
 10
143.814
 11
143.84
 20
79.199
 21
79.119
  0
LINE
  8
0
 10
143.84
 11
143.881
 20
79.119
 21
79.047
  0
LINE
  8
0
 10
143.881
 11
143.923
 20
79.047
 21
79
  0
LINE
  8
0
 10
143.923
 11
143.937
 20
79
 21
78.984
  0
LINE
  8
0
 10
143.937
 11
144.005
 20
78.984
 21
78.935
  0
LINE
  8
0
 10
144.005
 11
144.081
 20
78.935
 21
78.9
  0
LINE
  8
0
 10
144.081
 11
144.163
 20
78.9
 21
78.883
  0
LINE
  8
0
 10
144.163
 11
144.247
 20
78.883
 21
78.883
  0
LINE
  8
0
 10
144.247
 11
144.329
 20
78.883
 21
78.9
  0
LINE
  8
0
 10
144.329
 11
144.405
 20
78.9
 21
78.935
  0
LINE
  8
0
 10
144.405
 11
144.473
 20
78.935
 21
78.984
  0
LINE
  8
0
 10
144.473
 11
144.487
 20
78.984
 21
79
  0
LINE
  8
0
 10
144.487
 11
160.857
 20
79
 21
79
  0
LINE
  8
0
 10
160.857
 11
160.871
 20
79
 21
78.984
  0
LINE
  8
0
 10
160.871
 11
160.939
 20
78.984
 21
78.935
  0
LINE
  8
0
 10
160.939
 11
161.015
 20
78.935
 21
78.9
  0
LINE
  8
0
 10
161.015
 11
161.097
 20
78.9
 21
78.883
  0
LINE
  8
0
 10
161.097
 11
161.181
 20
78.883
 21
78.883
  0
LINE
  8
0
 10
161.181
 11
161.263
 20
78.883
 21
78.9
  0
LINE
  8
0
 10
161.263
 11
161.339
 20
78.9
 21
78.935
  0
LINE
  8
0
 10
161.339
 11
161.407
 20
78.935
 21
78.984
  0
LINE
  8
0
 10
161.407
 11
161.422
 20
78.984
 21
79.001
  0
LINE
  8
0
 10
161.422
 11
161.463
 20
79.001
 21
79.047
  0
LINE
  8
0
 10
161.463
 11
161.504
 20
79.047
 21
79.119
  0
LINE
  8
0
 10
161.504
 11
161.53
 20
79.119
 21
79.199
  0
LINE
  8
0
 10
161.53
 11
161.539
 20
79.199
 21
79.283
  0
LINE
  8
0
 10
161.539
 11
161.53
 20
79.283
 21
79.367
  0
LINE
  8
0
 10
161.53
 11
161.504
 20
79.367
 21
79.447
  0
LINE
  8
0
 10
161.504
 11
161.463
 20
79.447
 21
79.519
  0
LINE
  8
0
 10
161.463
 11
161.422
 20
79.519
 21
79.565
  0
LINE
  8
0
 10
161.422
 11
161.422
 20
79.565
 21
81
  0
LINE
  8
0
 10
161.422
 11
161.317
 20
81
 21
81
  0
LINE
  8
0
 10
161.317
 11
161.113
 20
81
 21
81.044
  0
LINE
  8
0
 10
161.113
 11
160.922
 20
81.044
 21
81.129
  0
LINE
  8
0
 10
160.922
 11
160.753
 20
81.129
 21
81.253
  0
LINE
  8
0
 10
160.753
 11
160.613
 20
81.253
 21
81.409
  0
LINE
  8
0
 10
160.613
 11
160.508
 20
81.409
 21
81.591
  0
LINE
  8
0
 10
160.508
 11
160.444
 20
81.591
 21
81.791
  0
LINE
  8
0
 10
160.444
 11
160.422
 20
81.791
 21
82
  0
LINE
  8
0
 10
160.422
 11
160.444
 20
82
 21
82.209
  0
LINE
  8
0
 10
160.444
 11
160.508
 20
82.209
 21
82.409
  0
LINE
  8
0
 10
160.508
 11
160.613
 20
82.409
 21
82.591
  0
LINE
  8
0
 10
160.613
 11
160.753
 20
82.591
 21
82.747
  0
LINE
  8
0
 10
160.753
 11
160.922
 20
82.747
 21
82.871
  0
LINE
  8
0
 10
160.922
 11
161.113
 20
82.871
 21
82.956
  0
LINE
  8
0
 10
161.113
 11
161.317
 20
82.956
 21
83
  0
LINE
  8
0
 10
161.317
 11
161.527
 20
83
 21
83
  0
LINE
  8
0
 10
161.527
 11
161.731
 20
83
 21
82.956
  0
LINE
  8
0
 10
161.731
 11
161.922
 20
82.956
 21
82.871
  0
LINE
  8
0
 10
161.922
 11
162.091
 20
82.871
 21
82.747
  0
LINE
  8
0
 10
162.091
 11
162.231
 20
82.747
 21
82.591
  0
LINE
  8
0
 10
162.231
 11
162.336
 20
82.591
 21
82.409
  0
LINE
  8
0
 10
162.336
 11
162.4
 20
82.409
 21
82.209
  0
LINE
  8
0
 10
162.4
 11
162.422
 20
82.209
 21
82
  0
LINE
  8
0
 10
162.422
 11
162.422
 20
82
 21
79
  0
LINE
  8
0
 10
162.422
 11
160.658
 20
79
 21
75.864
  0
LINE
  8
0
 10
160.658
 11
155.444
 20
75.864
 21
72.865
  0
LINE
  8
0
 10
155.444
 11
147.007
 20
72.865
 21
70.135
  0
LINE
  8
0
 10
147.007
 11
135.717
 20
70.135
 21
67.791
  0
LINE
  8
0
 10
135.717
 11
122.066
 20
67.791
 21
65.938
  0
LINE
  8
0
 10
122.066
 11
106.652
 20
65.938
 21
64.656
  0
LINE
  8
0
 10
106.652
 11
90.148
 20
64.656
 21
64
  0
LINE
  8
0
 10
90.148
 11
82.811
 20
64
 21
64
  0
LINE
  8
0
 10
82.811
 11
82.811
 20
64
 21
67.185
  0
LINE
  8
0
 10
82.811
 11
82.852
 20
67.185
 21
67.231
  0
LINE
  8
0
 10
82.852
 11
82.893
 20
67.231
 21
67.303
  0
LINE
  8
0
 10
82.893
 11
82.919
 20
67.303
 21
67.383
  0
LINE
  8
0
 10
82.919
 11
82.928
 20
67.383
 21
67.467
  0
LINE
  8
0
 10
82.928
 11
82.919
 20
67.467
 21
67.551
  0
LINE
  8
0
 10
82.919
 11
82.893
 20
67.551
 21
67.631
  0
LINE
  8
0
 10
82.893
 11
82.852
 20
67.631
 21
67.703
  0
LINE
  8
0
 10
82.852
 11
82.811
 20
67.703
 21
67.749
  0
LINE
  8
0
 10
82.811
 11
82.796
 20
67.749
 21
67.766
  0
LINE
  8
0
 10
82.796
 11
82.728
 20
67.766
 21
67.815
  0
LINE
  8
0
 10
82.728
 11
82.652
 20
67.815
 21
67.85
  0
LINE
  8
0
 10
82.652
 11
82.57
 20
67.85
 21
67.867
  0
LINE
  8
0
 10
82.57
 11
82.486
 20
67.867
 21
67.867
  0
LINE
  8
0
 10
82.486
 11
82.404
 20
67.867
 21
67.85
  0
LINE
  8
0
 10
82.404
 11
82.328
 20
67.85
 21
67.815
  0
LINE
  8
0
 10
82.328
 11
82.26
 20
67.815
 21
67.766
  0
LINE
  8
0
 10
82.26
 11
82.246
 20
67.766
 21
67.75
  0
LINE
  8
0
 10
82.246
 11
81.176
 20
67.75
 21
67.75
  0
LINE
  8
0
 10
81.176
 11
81.162
 20
67.75
 21
67.766
  0
LINE
  8
0
 10
81.162
 11
81.094
 20
67.766
 21
67.815
  0
LINE
  8
0
 10
81.094
 11
81.018
 20
67.815
 21
67.85
  0
LINE
  8
0
 10
81.018
 11
80.936
 20
67.85
 21
67.867
  0
LINE
  8
0
 10
80.936
 11
80.852
 20
67.867
 21
67.867
  0
LINE
  8
0
 10
80.852
 11
80.77
 20
67.867
 21
67.85
  0
LINE
  8
0
 10
80.77
 11
80.694
 20
67.85
 21
67.815
  0
LINE
  8
0
 10
80.694
 11
80.626
 20
67.815
 21
67.766
  0
LINE
  8
0
 10
80.626
 11
80.612
 20
67.766
 21
67.75
  0
LINE
  8
0
 10
80.612
 11
80.57
 20
67.75
 21
67.703
  0
LINE
  8
0
 10
80.57
 11
80.529
 20
67.703
 21
67.631
  0
LINE
  8
0
 10
80.529
 11
80.503
 20
67.631
 21
67.551
  0
LINE
  8
0
 10
80.503
 11
80.494
 20
67.551
 21
67.467
  0
LINE
  8
0
 10
80.494
 11
80.503
 20
67.467
 21
67.383
  0
LINE
  8
0
 10
80.503
 11
80.529
 20
67.383
 21
67.303
  0
LINE
  8
0
 10
80.529
 11
80.57
 20
67.303
 21
67.231
  0
LINE
  8
0
 10
80.57
 11
80.611
 20
67.231
 21
67.185
  0
LINE
  8
0
 10
80.611
 11
80.611
 20
67.185
 21
64
  0
LINE
  8
0
 10
80.611
 11
73.274
 20
64
 21
64
  0
LINE
  8
0
 10
73.274
 11
56.77
 20
64
 21
64.656
  0
LINE
  8
0
 10
56.77
 11
41.356
 20
64.656
 21
65.938
  0
LINE
  8
0
 10
41.356
 11
27.705
 20
65.938
 21
67.791
  0
LINE
  8
0
 10
27.705
 11
16.415
 20
67.791
 21
70.135
  0
LINE
  8
0
 10
16.415
 11
7.978
 20
70.135
 21
72.865
  0
LINE
  8
0
 10
7.978
 11
2.764
 20
72.865
 21
75.864
  0
LINE
  8
0
 10
2.764
 11
1
 20
75.864
 21
79
  0
LINE
  8
0
 10
1
 11
1
 20
95
 21
98
  0
LINE
  8
0
 10
1
 11
1.022
 20
98
 21
98.209
  0
LINE
  8
0
 10
1.022
 11
1.086
 20
98.209
 21
98.409
  0
LINE
  8
0
 10
1.086
 11
1.191
 20
98.409
 21
98.591
  0
LINE
  8
0
 10
1.191
 11
1.331
 20
98.591
 21
98.747
  0
LINE
  8
0
 10
1.331
 11
1.5
 20
98.747
 21
98.871
  0
LINE
  8
0
 10
1.5
 11
1.691
 20
98.871
 21
98.956
  0
LINE
  8
0
 10
1.691
 11
1.895
 20
98.956
 21
99
  0
LINE
  8
0
 10
1.895
 11
2.105
 20
99
 21
99
  0
LINE
  8
0
 10
2.105
 11
2.309
 20
99
 21
98.956
  0
LINE
  8
0
 10
2.309
 11
2.5
 20
98.956
 21
98.871
  0
LINE
  8
0
 10
2.5
 11
2.669
 20
98.871
 21
98.747
  0
LINE
  8
0
 10
2.669
 11
2.809
 20
98.747
 21
98.591
  0
LINE
  8
0
 10
2.809
 11
2.914
 20
98.591
 21
98.409
  0
LINE
  8
0
 10
2.914
 11
2.978
 20
98.409
 21
98.209
  0
LINE
  8
0
 10
2.978
 11
3
 20
98.209
 21
98
  0
LINE
  8
0
 10
3
 11
2.978
 20
98
 21
97.791
  0
LINE
  8
0
 10
2.978
 11
2.914
 20
97.791
 21
97.591
  0
LINE
  8
0
 10
2.914
 11
2.809
 20
97.591
 21
97.409
  0
LINE
  8
0
 10
2.809
 11
2.669
 20
97.409
 21
97.253
  0
LINE
  8
0
 10
2.669
 11
2.5
 20
97.253
 21
97.129
  0
LINE
  8
0
 10
2.5
 11
2.309
 20
97.129
 21
97.044
  0
LINE
  8
0
 10
2.309
 11
2.105
 20
97.044
 21
97
  0
LINE
  8
0
 10
2.105
 11
2
 20
97
 21
97
  0
LINE
  8
0
 10
2
 11
2
 20
97
 21
95.565
  0
LINE
  8
0
 10
2
 11
1.959
 20
95.565
 21
95.519
  0
LINE
  8
0
 10
1.959
 11
1.918
 20
95.519
 21
95.447
  0
LINE
  8
0
 10
1.918
 11
1.892
 20
95.447
 21
95.367
  0
LINE
  8
0
 10
1.892
 11
1.883
 20
95.367
 21
95.283
  0
LINE
  8
0
 10
1.883
 11
1.892
 20
95.283
 21
95.199
  0
LINE
  8
0
 10
1.892
 11
1.918
 20
95.199
 21
95.119
  0
LINE
  8
0
 10
1.918
 11
1.959
 20
95.119
 21
95.047
  0
LINE
  8
0
 10
1.959
 11
2
 20
95.047
 21
95.001
  0
LINE
  8
0
 10
2
 11
2.015
 20
95.001
 21
94.984
  0
LINE
  8
0
 10
2.015
 11
2.083
 20
94.984
 21
94.935
  0
LINE
  8
0
 10
2.083
 11
2.159
 20
94.935
 21
94.9
  0
LINE
  8
0
 10
2.159
 11
2.241
 20
94.9
 21
94.883
  0
LINE
  8
0
 10
2.241
 11
2.325
 20
94.883
 21
94.883
  0
LINE
  8
0
 10
2.325
 11
2.407
 20
94.883
 21
94.9
  0
LINE
  8
0
 10
2.407
 11
2.483
 20
94.9
 21
94.935
  0
LINE
  8
0
 10
2.483
 11
2.551
 20
94.935
 21
94.984
  0
LINE
  8
0
 10
2.551
 11
2.565
 20
94.984
 21
95
  0
LINE
  8
0
 10
2.565
 11
18.935
 20
95
 21
95
  0
LINE
  8
0
 10
18.935
 11
18.949
 20
95
 21
94.984
  0
LINE
  8
0
 10
18.949
 11
19.017
 20
94.984
 21
94.935
  0
LINE
  8
0
 10
19.017
 11
19.093
 20
94.935
 21
94.9
  0
LINE
  8
0
 10
19.093
 11
19.175
 20
94.9
 21
94.883
  0
LINE
  8
0
 10
19.175
 11
19.259
 20
94.883
 21
94.883
  0
LINE
  8
0
 10
19.259
 11
19.341
 20
94.883
 21
94.9
  0
LINE
  8
0
 10
19.341
 11
19.417
 20
94.9
 21
94.935
  0
LINE
  8
0
 10
19.417
 11
19.485
 20
94.935
 21
94.984
  0
LINE
  8
0
 10
19.485
 11
19.499
 20
94.984
 21
95
  0
LINE
  8
0
 10
19.499
 11
19.541
 20
95
 21
95.047
  0
LINE
  8
0
 10
19.541
 11
19.582
 20
95.047
 21
95.119
  0
LINE
  8
0
 10
19.582
 11
19.608
 20
95.119
 21
95.199
  0
LINE
  8
0
 10
19.608
 11
19.617
 20
95.199
 21
95.283
  0
LINE
  8
0
 10
19.617
 11
19.608
 20
95.283
 21
95.367
  0
LINE
  8
0
 10
19.608
 11
19.582
 20
95.367
 21
95.447
  0
LINE
  8
0
 10
19.582
 11
19.541
 20
95.447
 21
95.519
  0
LINE
  8
0
 10
19.541
 11
19.5
 20
95.519
 21
95.565
  0
LINE
  8
0
 10
19.5
 11
19.5
 20
95.565
 21
97
  0
LINE
  8
0
 10
19.5
 11
19.395
 20
97
 21
97
  0
LINE
  8
0
 10
19.395
 11
19.191
 20
97
 21
97.044
  0
LINE
  8
0
 10
19.191
 11
19
 20
97.044
 21
97.129
  0
LINE
  8
0
 10
19
 11
18.831
 20
97.129
 21
97.253
  0
LINE
  8
0
 10
18.831
 11
18.691
 20
97.253
 21
97.409
  0
LINE
  8
0
 10
18.691
 11
18.586
 20
97.409
 21
97.591
  0
LINE
  8
0
 10
18.586
 11
18.522
 20
97.591
 21
97.791
  0
LINE
  8
0
 10
18.522
 11
18.5
 20
97.791
 21
98
  0
LINE
  8
0
 10
18.5
 11
18.522
 20
98
 21
98.209
  0
LINE
  8
0
 10
18.522
 11
18.586
 20
98.209
 21
98.409
  0
LINE
  8
0
 10
18.586
 11
18.691
 20
98.409
 21
98.591
  0
LINE
  8
0
 10
18.691
 11
18.831
 20
98.591
 21
98.747
  0
LINE
  8
0
 10
18.831
 11
19
 20
98.747
 21
98.871
  0
LINE
  8
0
 10
19
 11
19.191
 20
98.871
 21
98.956
  0
LINE
  8
0
 10
19.191
 11
19.395
 20
98.956
 21
99
  0
LINE
  8
0
 10
19.395
 11
19.605
 20
99
 21
99
  0
LINE
  8
0
 10
19.605
 11
19.809
 20
99
 21
98.956
  0
LINE
  8
0
 10
19.809
 11
20
 20
98.956
 21
98.871
  0
LINE
  8
0
 10
20
 11
20.169
 20
98.871
 21
98.747
  0
LINE
  8
0
 10
20.169
 11
20.309
 20
98.747
 21
98.591
  0
LINE
  8
0
 10
20.309
 11
20.414
 20
98.591
 21
98.409
  0
LINE
  8
0
 10
20.414
 11
20.478
 20
98.409
 21
98.209
  0
LINE
  8
0
 10
20.478
 11
20.5
 20
98.209
 21
98
  0
LINE
  8
0
 10
20.5
 11
20.5
 20
98
 21
95.565
  0
LINE
  8
0
 10
20.5
 11
20.459
 20
95.565
 21
95.519
  0
LINE
  8
0
 10
20.459
 11
20.418
 20
95.519
 21
95.447
  0
LINE
  8
0
 10
20.418
 11
20.392
 20
95.447
 21
95.367
  0
LINE
  8
0
 10
20.392
 11
20.383
 20
95.367
 21
95.283
  0
LINE
  8
0
 10
20.383
 11
20.392
 20
95.283
 21
95.199
  0
LINE
  8
0
 10
20.392
 11
20.418
 20
95.199
 21
95.119
  0
LINE
  8
0
 10
20.418
 11
20.459
 20
95.119
 21
95.047
  0
LINE
  8
0
 10
20.459
 11
20.5
 20
95.047
 21
95.001
  0
LINE
  8
0
 10
20.5
 11
20.515
 20
95.001
 21
94.984
  0
LINE
  8
0
 10
20.515
 11
20.583
 20
94.984
 21
94.935
  0
LINE
  8
0
 10
20.583
 11
20.659
 20
94.935
 21
94.9
  0
LINE
  8
0
 10
20.659
 11
20.741
 20
94.9
 21
94.883
  0
LINE
  8
0
 10
20.741
 11
20.825
 20
94.883
 21
94.883
  0
LINE
  8
0
 10
20.825
 11
20.907
 20
94.883
 21
94.9
  0
LINE
  8
0
 10
20.907
 11
20.983
 20
94.9
 21
94.935
  0
LINE
  8
0
 10
20.983
 11
21.051
 20
94.935
 21
94.984
  0
LINE
  8
0
 10
21.051
 11
21.065
 20
94.984
 21
95
  0
LINE
  8
0
 10
21.065
 11
52.013
 20
95
 21
95
  0
LINE
  8
0
 10
52.013
 11
52.013
 20
95
 21
87.5
  0
LINE
  8
0
 10
52.013
 11
50.176
 20
87.5
 21
87.5
  0
LINE
  8
0
 10
50.176
 11
50.13
 20
87.5
 21
87.541
  0
LINE
  8
0
 10
50.13
 11
50.058
 20
87.541
 21
87.582
  0
LINE
  8
0
 10
50.058
 11
49.978
 20
87.582
 21
87.608
  0
LINE
  8
0
 10
49.978
 11
49.894
 20
87.608
 21
87.617
  0
LINE
  8
0
 10
49.894
 11
49.81
 20
87.617
 21
87.608
  0
LINE
  8
0
 10
49.81
 11
49.73
 20
87.608
 21
87.582
  0
LINE
  8
0
 10
49.73
 11
49.658
 20
87.582
 21
87.541
  0
LINE
  8
0
 10
49.658
 11
49.612
 20
87.541
 21
87.5
  0
LINE
  8
0
 10
49.612
 11
49.595
 20
87.5
 21
87.485
  0
LINE
  8
0
 10
49.595
 11
49.546
 20
87.485
 21
87.417
  0
LINE
  8
0
 10
49.546
 11
49.511
 20
87.417
 21
87.341
  0
LINE
  8
0
 10
49.511
 11
49.494
 20
87.341
 21
87.259
  0
LINE
  8
0
 10
49.494
 11
49.494
 20
87.259
 21
87.175
  0
LINE
  8
0
 10
49.494
 11
49.511
 20
87.175
 21
87.093
  0
LINE
  8
0
 10
49.511
 11
49.546
 20
87.093
 21
87.017
  0
LINE
  8
0
 10
49.546
 11
49.595
 20
87.017
 21
86.949
  0
LINE
  8
0
 10
49.595
 11
49.611
 20
86.949
 21
86.935
  0
LINE
  8
0
 10
49.611
 11
49.611
 20
86.935
 21
85.865
  0
LINE
  8
0
 10
49.611
 11
49.595
 20
85.865
 21
85.851
  0
LINE
  8
0
 10
49.595
 11
49.546
 20
85.851
 21
85.783
  0
LINE
  8
0
 10
49.546
 11
49.511
 20
85.783
 21
85.707
  0
LINE
  8
0
 10
49.511
 11
49.494
 20
85.707
 21
85.625
  0
LINE
  8
0
 10
49.494
 11
49.494
 20
85.625
 21
85.541
  0
LINE
  8
0
 10
49.494
 11
49.511
 20
85.541
 21
85.459
  0
LINE
  8
0
 10
49.511
 11
49.546
 20
85.459
 21
85.383
  0
LINE
  8
0
 10
49.546
 11
49.595
 20
85.383
 21
85.315
  0
LINE
  8
0
 10
49.595
 11
49.611
 20
85.315
 21
85.301
  0
LINE
  8
0
 10
49.611
 11
49.658
 20
85.301
 21
85.259
  0
LINE
  8
0
 10
49.658
 11
49.73
 20
85.259
 21
85.218
  0
LINE
  8
0
 10
49.73
 11
49.81
 20
85.218
 21
85.192
  0
LINE
  8
0
 10
49.81
 11
49.894
 20
85.192
 21
85.183
  0
LINE
  8
0
 10
49.894
 11
49.978
 20
85.183
 21
85.192
  0
LINE
  8
0
 10
49.978
 11
50.058
 20
85.192
 21
85.218
  0
LINE
  8
0
 10
50.058
 11
50.13
 20
85.218
 21
85.259
  0
LINE
  8
0
 10
50.13
 11
50.176
 20
85.259
 21
85.3
  0
LINE
  8
0
 10
50.176
 11
55.646
 20
85.3
 21
85.3
  0
LINE
  8
0
 10
55.646
 11
55.692
 20
85.3
 21
85.259
  0
LINE
  8
0
 10
55.692
 11
55.764
 20
85.259
 21
85.218
  0
LINE
  8
0
 10
55.764
 11
55.844
 20
85.218
 21
85.192
  0
LINE
  8
0
 10
55.844
 11
55.928
 20
85.192
 21
85.183
  0
LINE
  8
0
 10
55.928
 11
56.012
 20
85.183
 21
85.192
  0
LINE
  8
0
 10
56.012
 11
56.092
 20
85.192
 21
85.218
  0
LINE
  8
0
 10
56.092
 11
56.164
 20
85.218
 21
85.259
  0
LINE
  8
0
 10
56.164
 11
56.21
 20
85.259
 21
85.3
  0
LINE
  8
0
 10
56.21
 11
56.227
 20
85.3
 21
85.315
  0
LINE
  8
0
 10
56.227
 11
56.276
 20
85.315
 21
85.383
  0
LINE
  8
0
 10
56.276
 11
56.311
 20
85.383
 21
85.459
  0
LINE
  8
0
 10
56.311
 11
56.328
 20
85.459
 21
85.541
  0
LINE
  8
0
 10
56.328
 11
56.328
 20
85.541
 21
85.625
  0
LINE
  8
0
 10
56.328
 11
56.311
 20
85.625
 21
85.707
  0
LINE
  8
0
 10
56.311
 11
56.276
 20
85.707
 21
85.783
  0
LINE
  8
0
 10
56.276
 11
56.227
 20
85.783
 21
85.851
  0
LINE
  8
0
 10
56.227
 11
56.211
 20
85.851
 21
85.865
  0
LINE
  8
0
 10
56.211
 11
56.211
 20
85.865
 21
87.125
  0
LINE
  8
0
 10
56.211
 11
80.611
 20
87.125
 21
87.125
  0
LINE
  8
0
 10
80.611
 11
80.611
 20
87.125
 21
84.315
  0
LINE
  8
0
 10
80.611
 11
80.57
 20
84.315
 21
84.269
  0
LINE
  8
0
 10
80.57
 11
80.529
 20
84.269
 21
84.197
  0
LINE
  8
0
 10
80.529
 11
80.503
 20
84.197
 21
84.117
  0
LINE
  8
0
 10
80.503
 11
80.494
 20
84.117
 21
84.033
  0
LINE
  8
0
 10
80.494
 11
80.503
 20
84.033
 21
83.949
  0
LINE
  8
0
 10
80.503
 11
80.529
 20
83.949
 21
83.869
  0
LINE
  8
0
 10
80.529
 11
80.57
 20
83.869
 21
83.797
  0
LINE
  8
0
 10
80.57
 11
80.611
 20
83.797
 21
83.751
  0
LINE
  8
0
 10
80.611
 11
80.626
 20
83.751
 21
83.734
  0
LINE
  8
0
 10
80.626
 11
80.694
 20
83.734
 21
83.685
  0
LINE
  8
0
 10
80.694
 11
80.77
 20
83.685
 21
83.65
  0
LINE
  8
0
 10
80.77
 11
80.852
 20
83.65
 21
83.633
  0
LINE
  8
0
 10
80.852
 11
80.936
 20
83.633
 21
83.633
  0
LINE
  8
0
 10
80.936
 11
81.018
 20
83.633
 21
83.65
  0
LINE
  8
0
 10
81.018
 11
81.094
 20
83.65
 21
83.685
  0
LINE
  8
0
 10
81.094
 11
81.162
 20
83.685
 21
83.734
  0
LINE
  8
0
 10
81.162
 11
81.176
 20
83.734
 21
83.75
  0
LINE
  8
0
 10
81.176
 11
82.246
 20
83.75
 21
83.75
  0
LINE
  8
0
 10
82.246
 11
82.26
 20
83.75
 21
83.734
  0
LINE
  8
0
 10
82.26
 11
82.328
 20
83.734
 21
83.685
  0
LINE
  8
0
 10
82.328
 11
82.404
 20
83.685
 21
83.65
  0
LINE
  8
0
 10
82.404
 11
82.486
 20
83.65
 21
83.633
  0
LINE
  8
0
 10
82.486
 11
82.57
 20
83.633
 21
83.633
  0
LINE
  8
0
 10
82.57
 11
82.652
 20
83.633
 21
83.65
  0
LINE
  8
0
 10
82.652
 11
82.728
 20
83.65
 21
83.685
  0
LINE
  8
0
 10
82.728
 11
82.796
 20
83.685
 21
83.734
  0
LINE
  8
0
 10
82.796
 11
82.81
 20
83.734
 21
83.75
  0
LINE
  8
0
 10
82.81
 11
82.852
 20
83.75
 21
83.797
  0
LINE
  8
0
 10
82.852
 11
82.893
 20
83.797
 21
83.869
  0
LINE
  8
0
 10
82.893
 11
82.919
 20
83.869
 21
83.949
  0
LINE
  8
0
 10
82.919
 11
82.928
 20
83.949
 21
84.033
  0
LINE
  8
0
 10
82.928
 11
82.919
 20
84.033
 21
84.117
  0
LINE
  8
0
 10
82.919
 11
82.893
 20
84.117
 21
84.197
  0
LINE
  8
0
 10
82.893
 11
82.852
 20
84.197
 21
84.269
  0
LINE
  8
0
 10
82.852
 11
82.811
 20
84.269
 21
84.315
  0
LINE
  8
0
 10
82.811
 11
82.811
 20
84.315
 21
87.125
  0
LINE
  8
0
 10
82.811
 11
107.211
 20
87.125
 21
87.125
  0
LINE
  8
0
 10
107.211
 11
107.211
 20
87.125
 21
85.865
  0
LINE
  8
0
 10
107.211
 11
107.195
 20
85.865
 21
85.851
  0
LINE
  8
0
 10
107.195
 11
107.146
 20
85.851
 21
85.783
  0
LINE
  8
0
 10
107.146
 11
107.111
 20
85.783
 21
85.707
  0
LINE
  8
0
 10
107.111
 11
107.094
 20
85.707
 21
85.625
  0
LINE
  8
0
 10
107.094
 11
107.094
 20
85.625
 21
85.541
  0
LINE
  8
0
 10
107.094
 11
107.111
 20
85.541
 21
85.459
  0
LINE
  8
0
 10
107.111
 11
107.146
 20
85.459
 21
85.383
  0
LINE
  8
0
 10
107.146
 11
107.195
 20
85.383
 21
85.315
  0
LINE
  8
0
 10
107.195
 11
107.212
 20
85.315
 21
85.3
  0
LINE
  8
0
 10
107.212
 11
107.258
 20
85.3
 21
85.259
  0
LINE
  8
0
 10
107.258
 11
107.33
 20
85.259
 21
85.218
  0
LINE
  8
0
 10
107.33
 11
107.41
 20
85.218
 21
85.192
  0
LINE
  8
0
 10
107.41
 11
107.494
 20
85.192
 21
85.183
  0
LINE
  8
0
 10
107.494
 11
107.578
 20
85.183
 21
85.192
  0
LINE
  8
0
 10
107.578
 11
107.658
 20
85.192
 21
85.218
  0
LINE
  8
0
 10
107.658
 11
107.73
 20
85.218
 21
85.259
  0
LINE
  8
0
 10
107.73
 11
107.776
 20
85.259
 21
85.3
  0
LINE
  8
0
 10
107.776
 11
113.246
 20
85.3
 21
85.3
  0
LINE
  8
0
 10
113.246
 11
113.292
 20
85.3
 21
85.259
  0
LINE
  8
0
 10
113.292
 11
113.364
 20
85.259
 21
85.218
  0
LINE
  8
0
 10
113.364
 11
113.444
 20
85.218
 21
85.192
  0
LINE
  8
0
 10
113.444
 11
113.528
 20
85.192
 21
85.183
  0
LINE
  8
0
 10
113.528
 11
113.612
 20
85.183
 21
85.192
  0
LINE
  8
0
 10
113.612
 11
113.692
 20
85.192
 21
85.218
  0
LINE
  8
0
 10
113.692
 11
113.764
 20
85.218
 21
85.259
  0
LINE
  8
0
 10
113.764
 11
113.811
 20
85.259
 21
85.301
  0
LINE
  8
0
 10
113.811
 11
113.827
 20
85.301
 21
85.315
  0
LINE
  8
0
 10
113.827
 11
113.876
 20
85.315
 21
85.383
  0
LINE
  8
0
 10
113.876
 11
113.911
 20
85.383
 21
85.459
  0
LINE
  8
0
 10
113.911
 11
113.928
 20
85.459
 21
85.541
  0
LINE
  8
0
 10
113.928
 11
113.928
 20
85.541
 21
85.625
  0
LINE
  8
0
 10
113.928
 11
113.911
 20
85.625
 21
85.707
  0
LINE
  8
0
 10
113.911
 11
113.876
 20
85.707
 21
85.783
  0
LINE
  8
0
 10
113.876
 11
113.827
 20
85.783
 21
85.851
  0
LINE
  8
0
 10
113.827
 11
113.811
 20
85.851
 21
85.865
  0
LINE
  8
0
 10
113.811
 11
113.811
 20
85.865
 21
86.935
  0
LINE
  8
0
 10
113.811
 11
113.827
 20
86.935
 21
86.949
  0
LINE
  8
0
 10
113.827
 11
113.876
 20
86.949
 21
87.017
  0
LINE
  8
0
 10
113.876
 11
113.911
 20
87.017
 21
87.093
  0
LINE
  8
0
 10
113.911
 11
113.928
 20
87.093
 21
87.175
  0
LINE
  8
0
 10
113.928
 11
113.928
 20
87.175
 21
87.259
  0
LINE
  8
0
 10
113.928
 11
113.911
 20
87.259
 21
87.341
  0
LINE
  8
0
 10
113.911
 11
113.876
 20
87.341
 21
87.417
  0
LINE
  8
0
 10
113.876
 11
113.827
 20
87.417
 21
87.485
  0
LINE
  8
0
 10
113.827
 11
113.81
 20
87.485
 21
87.5
  0
LINE
  8
0
 10
113.81
 11
113.764
 20
87.5
 21
87.541
  0
LINE
  8
0
 10
113.764
 11
113.692
 20
87.541
 21
87.582
  0
LINE
  8
0
 10
113.692
 11
113.612
 20
87.582
 21
87.608
  0
LINE
  8
0
 10
113.612
 11
113.528
 20
87.608
 21
87.617
  0
LINE
  8
0
 10
113.528
 11
113.444
 20
87.617
 21
87.608
  0
LINE
  8
0
 10
113.444
 11
113.364
 20
87.608
 21
87.582
  0
LINE
  8
0
 10
113.364
 11
113.292
 20
87.582
 21
87.541
  0
LINE
  8
0
 10
113.292
 11
113.246
 20
87.541
 21
87.5
  0
LINE
  8
0
 10
113.246
 11
111.409
 20
87.5
 21
87.5
  0
LINE
  8
0
 10
111.409
 11
111.409
 20
87.5
 21
95
  0
LINE
  8
0
 10
111.409
 11
142.357
 20
95
 21
95
  0
LINE
  8
0
 10
142.357
 11
142.371
 20
95
 21
94.984
  0
LINE
  8
0
 10
142.371
 11
142.439
 20
94.984
 21
94.935
  0
LINE
  8
0
 10
142.439
 11
142.515
 20
94.935
 21
94.9
  0
LINE
  8
0
 10
142.515
 11
142.597
 20
94.9
 21
94.883
  0
LINE
  8
0
 10
142.597
 11
142.681
 20
94.883
 21
94.883
  0
LINE
  8
0
 10
142.681
 11
142.763
 20
94.883
 21
94.9
  0
LINE
  8
0
 10
142.763
 11
142.839
 20
94.9
 21
94.935
  0
LINE
  8
0
 10
142.839
 11
142.907
 20
94.935
 21
94.984
  0
LINE
  8
0
 10
142.907
 11
142.922
 20
94.984
 21
95.001
  0
LINE
  8
0
 10
142.922
 11
142.963
 20
95.001
 21
95.047
  0
LINE
  8
0
 10
142.963
 11
143.004
 20
95.047
 21
95.119
  0
LINE
  8
0
 10
143.004
 11
143.03
 20
95.119
 21
95.199
  0
LINE
  8
0
 10
143.03
 11
143.039
 20
95.199
 21
95.283
  0
LINE
  8
0
 10
143.039
 11
143.03
 20
95.283
 21
95.367
  0
LINE
  8
0
 10
143.03
 11
143.004
 20
95.367
 21
95.447
  0
LINE
  8
0
 10
143.004
 11
142.963
 20
95.447
 21
95.519
  0
LINE
  8
0
 10
142.963
 11
142.922
 20
95.519
 21
95.565
  0
LINE
  8
0
 10
142.922
 11
142.922
 20
95.565
 21
98
  0
LINE
  8
0
 10
142.922
 11
142.944
 20
98
 21
98.209
  0
LINE
  8
0
 10
142.944
 11
143.008
 20
98.209
 21
98.409
  0
LINE
  8
0
 10
143.008
 11
143.113
 20
98.409
 21
98.591
  0
LINE
  8
0
 10
143.113
 11
143.253
 20
98.591
 21
98.747
  0
LINE
  8
0
 10
143.253
 11
143.422
 20
98.747
 21
98.871
  0
LINE
  8
0
 10
143.422
 11
143.613
 20
98.871
 21
98.956
  0
LINE
  8
0
 10
143.613
 11
143.817
 20
98.956
 21
99
  0
LINE
  8
0
 10
143.817
 11
144.027
 20
99
 21
99
  0
LINE
  8
0
 10
144.027
 11
144.231
 20
99
 21
98.956
  0
LINE
  8
0
 10
144.231
 11
144.422
 20
98.956
 21
98.871
  0
LINE
  8
0
 10
144.422
 11
144.591
 20
98.871
 21
98.747
  0
LINE
  8
0
 10
144.591
 11
144.731
 20
98.747
 21
98.591
  0
LINE
  8
0
 10
144.731
 11
144.836
 20
98.591
 21
98.409
  0
LINE
  8
0
 10
144.836
 11
144.9
 20
98.409
 21
98.209
  0
LINE
  8
0
 10
144.9
 11
144.922
 20
98.209
 21
98
  0
LINE
  8
0
 10
144.922
 11
144.9
 20
98
 21
97.791
  0
LINE
  8
0
 10
144.9
 11
144.836
 20
97.791
 21
97.591
  0
LINE
  8
0
 10
144.836
 11
144.731
 20
97.591
 21
97.409
  0
LINE
  8
0
 10
144.731
 11
144.591
 20
97.409
 21
97.253
  0
LINE
  8
0
 10
144.591
 11
144.422
 20
97.253
 21
97.129
  0
LINE
  8
0
 10
144.422
 11
144.231
 20
97.129
 21
97.044
  0
LINE
  8
0
 10
144.231
 11
144.027
 20
97.044
 21
97
  0
LINE
  8
0
 10
144.027
 11
143.922
 20
97
 21
97
  0
LINE
  8
0
 10
143.922
 11
143.922
 20
97
 21
95.565
  0
LINE
  8
0
 10
143.922
 11
143.881
 20
95.565
 21
95.519
  0
LINE
  8
0
 10
143.881
 11
143.84
 20
95.519
 21
95.447
  0
LINE
  8
0
 10
143.84
 11
143.814
 20
95.447
 21
95.367
  0
LINE
  8
0
 10
143.814
 11
143.805
 20
95.367
 21
95.283
  0
LINE
  8
0
 10
143.805
 11
143.814
 20
95.283
 21
95.199
  0
LINE
  8
0
 10
143.814
 11
143.84
 20
95.199
 21
95.119
  0
LINE
  8
0
 10
143.84
 11
143.881
 20
95.119
 21
95.047
  0
LINE
  8
0
 10
143.881
 11
143.923
 20
95.047
 21
95
  0
LINE
  8
0
 10
143.923
 11
143.937
 20
95
 21
94.984
  0
LINE
  8
0
 10
143.937
 11
144.005
 20
94.984
 21
94.935
  0
LINE
  8
0
 10
144.005
 11
144.081
 20
94.935
 21
94.9
  0
LINE
  8
0
 10
144.081
 11
144.163
 20
94.9
 21
94.883
  0
LINE
  8
0
 10
144.163
 11
144.247
 20
94.883
 21
94.883
  0
LINE
  8
0
 10
144.247
 11
144.329
 20
94.883
 21
94.9
  0
LINE
  8
0
 10
144.329
 11
144.405
 20
94.9
 21
94.935
  0
LINE
  8
0
 10
144.405
 11
144.473
 20
94.935
 21
94.984
  0
LINE
  8
0
 10
144.473
 11
144.487
 20
94.984
 21
95
  0
LINE
  8
0
 10
144.487
 11
160.857
 20
95
 21
95
  0
LINE
  8
0
 10
160.857
 11
160.871
 20
95
 21
94.984
  0
LINE
  8
0
 10
160.871
 11
160.939
 20
94.984
 21
94.935
  0
LINE
  8
0
 10
160.939
 11
161.015
 20
94.935
 21
94.9
  0
LINE
  8
0
 10
161.015
 11
161.097
 20
94.9
 21
94.883
  0
LINE
  8
0
 10
161.097
 11
161.181
 20
94.883
 21
94.883
  0
LINE
  8
0
 10
161.181
 11
161.263
 20
94.883
 21
94.9
  0
LINE
  8
0
 10
161.263
 11
161.339
 20
94.9
 21
94.935
  0
LINE
  8
0
 10
161.339
 11
161.407
 20
94.935
 21
94.984
  0
LINE
  8
0
 10
161.407
 11
161.422
 20
94.984
 21
95.001
  0
LINE
  8
0
 10
161.422
 11
161.463
 20
95.001
 21
95.047
  0
LINE
  8
0
 10
161.463
 11
161.504
 20
95.047
 21
95.119
  0
LINE
  8
0
 10
161.504
 11
161.53
 20
95.119
 21
95.199
  0
LINE
  8
0
 10
161.53
 11
161.539
 20
95.199
 21
95.283
  0
LINE
  8
0
 10
161.539
 11
161.53
 20
95.283
 21
95.367
  0
LINE
  8
0
 10
161.53
 11
161.504
 20
95.367
 21
95.447
  0
LINE
  8
0
 10
161.504
 11
161.463
 20
95.447
 21
95.519
  0
LINE
  8
0
 10
161.463
 11
161.422
 20
95.519
 21
95.565
  0
LINE
  8
0
 10
161.422
 11
161.422
 20
95.565
 21
97
  0
LINE
  8
0
 10
161.422
 11
161.317
 20
97
 21
97
  0
LINE
  8
0
 10
161.317
 11
161.113
 20
97
 21
97.044
  0
LINE
  8
0
 10
161.113
 11
160.922
 20
97.044
 21
97.129
  0
LINE
  8
0
 10
160.922
 11
160.753
 20
97.129
 21
97.253
  0
LINE
  8
0
 10
160.753
 11
160.613
 20
97.253
 21
97.409
  0
LINE
  8
0
 10
160.613
 11
160.508
 20
97.409
 21
97.591
  0
LINE
  8
0
 10
160.508
 11
160.444
 20
97.591
 21
97.791
  0
LINE
  8
0
 10
160.444
 11
160.422
 20
97.791
 21
98
  0
LINE
  8
0
 10
160.422
 11
160.444
 20
98
 21
98.209
  0
LINE
  8
0
 10
160.444
 11
160.508
 20
98.209
 21
98.409
  0
LINE
  8
0
 10
160.508
 11
160.613
 20
98.409
 21
98.591
  0
LINE
  8
0
 10
160.613
 11
160.753
 20
98.591
 21
98.747
  0
LINE
  8
0
 10
160.753
 11
160.922
 20
98.747
 21
98.871
  0
LINE
  8
0
 10
160.922
 11
161.113
 20
98.871
 21
98.956
  0
LINE
  8
0
 10
161.113
 11
161.317
 20
98.956
 21
99
  0
LINE
  8
0
 10
161.317
 11
161.527
 20
99
 21
99
  0
LINE
  8
0
 10
161.527
 11
161.731
 20
99
 21
98.956
  0
LINE
  8
0
 10
161.731
 11
161.922
 20
98.956
 21
98.871
  0
LINE
  8
0
 10
161.922
 11
162.091
 20
98.871
 21
98.747
  0
LINE
  8
0
 10
162.091
 11
162.231
 20
98.747
 21
98.591
  0
LINE
  8
0
 10
162.231
 11
162.336
 20
98.591
 21
98.409
  0
LINE
  8
0
 10
162.336
 11
162.4
 20
98.409
 21
98.209
  0
LINE
  8
0
 10
162.4
 11
162.422
 20
98.209
 21
98
  0
LINE
  8
0
 10
162.422
 11
162.422
 20
98
 21
95
  0
LINE
  8
0
 10
162.422
 11
160.658
 20
95
 21
91.864
  0
LINE
  8
0
 10
160.658
 11
155.444
 20
91.864
 21
88.865
  0
LINE
  8
0
 10
155.444
 11
147.007
 20
88.865
 21
86.135
  0
LINE
  8
0
 10
147.007
 11
135.717
 20
86.135
 21
83.791
  0
LINE
  8
0
 10
135.717
 11
122.066
 20
83.791
 21
81.938
  0
LINE
  8
0
 10
122.066
 11
106.652
 20
81.938
 21
80.656
  0
LINE
  8
0
 10
106.652
 11
90.148
 20
80.656
 21
80
  0
LINE
  8
0
 10
90.148
 11
73.274
 20
80
 21
80
  0
LINE
  8
0
 10
73.274
 11
56.77
 20
80
 21
80.656
  0
LINE
  8
0
 10
56.77
 11
41.356
 20
80.656
 21
81.938
  0
LINE
  8
0
 10
41.356
 11
27.705
 20
81.938
 21
83.791
  0
LINE
  8
0
 10
27.705
 11
16.415
 20
83.791
 21
86.135
  0
LINE
  8
0
 10
16.415
 11
7.978
 20
86.135
 21
88.865
  0
LINE
  8
0
 10
7.978
 11
2.764
 20
88.865
 21
91.864
  0
LINE
  8
0
 10
2.764
 11
1
 20
91.864
 21
95
  0
LINE
  8
0
 10
7.072
 11
7.897
 20
34.414
 21
39.712
  0
LINE
  8
0
 10
7.897
 11
9.806
 20
39.712
 21
44.717
  0
LINE
  8
0
 10
9.806
 11
12.717
 20
44.717
 21
49.21
  0
LINE
  8
0
 10
12.717
 11
16.501
 20
49.21
 21
52.994
  0
LINE
  8
0
 10
16.501
 11
20.994
 20
52.994
 21
55.905
  0
LINE
  8
0
 10
20.994
 11
25.999
 20
55.905
 21
57.814
  0
LINE
  8
0
 10
25.999
 11
31.297
 20
57.814
 21
58.639
  0
LINE
  8
0
 10
31.297
 11
36.657
 20
58.639
 21
58.343
  0
LINE
  8
0
 10
36.657
 11
41.845
 20
58.343
 21
56.941
  0
LINE
  8
0
 10
41.845
 11
46.633
 20
56.941
 21
54.491
  0
LINE
  8
0
 10
46.633
 11
50.813
 20
54.491
 21
51.102
  0
LINE
  8
0
 10
50.813
 11
54.202
 20
51.102
 21
46.922
  0
LINE
  8
0
 10
54.202
 11
56.652
 20
46.922
 21
42.134
  0
LINE
  8
0
 10
56.652
 11
58.054
 20
42.134
 21
36.946
  0
LINE
  8
0
 10
58.054
 11
58.35
 20
36.946
 21
31.586
  0
LINE
  8
0
 10
58.35
 11
57.525
 20
31.586
 21
26.288
  0
LINE
  8
0
 10
57.525
 11
55.616
 20
26.288
 21
21.283
  0
LINE
  8
0
 10
55.616
 11
52.705
 20
21.283
 21
16.79
  0
LINE
  8
0
 10
52.705
 11
48.921
 20
16.79
 21
13.006
  0
LINE
  8
0
 10
48.921
 11
44.428
 20
13.006
 21
10.095
  0
LINE
  8
0
 10
44.428
 11
39.423
 20
10.095
 21
8.186
  0
LINE
  8
0
 10
39.423
 11
34.125
 20
8.186
 21
7.361
  0
LINE
  8
0
 10
34.125
 11
28.765
 20
7.361
 21
7.657
  0
LINE
  8
0
 10
28.765
 11
23.577
 20
7.657
 21
9.059
  0
LINE
  8
0
 10
23.577
 11
18.789
 20
9.059
 21
11.509
  0
LINE
  8
0
 10
18.789
 11
14.609
 20
11.509
 21
14.898
  0
LINE
  8
0
 10
14.609
 11
11.22
 20
14.898
 21
19.078
  0
LINE
  8
0
 10
11.22
 11
8.77
 20
19.078
 21
23.866
  0
LINE
  8
0
 10
8.77
 11
7.368
 20
23.866
 21
29.054
  0
LINE
  8
0
 10
7.368
 11
7.072
 20
29.054
 21
34.414
  0
LINE
  8
0
 10
7.525
 11
7.561
 20
75.712
 21
76.056
  0
LINE
  8
0
 10
7.561
 11
7.667
 20
76.056
 21
76.384
  0
LINE
  8
0
 10
7.667
 11
7.839
 20
76.384
 21
76.684
  0
LINE
  8
0
 10
7.839
 11
8.069
 20
76.684
 21
76.94
  0
LINE
  8
0
 10
8.069
 11
8.347
 20
76.94
 21
77.143
  0
LINE
  8
0
 10
8.347
 11
8.661
 20
77.143
 21
77.284
  0
LINE
  8
0
 10
8.661
 11
8.997
 20
77.284
 21
77.356
  0
LINE
  8
0
 10
8.997
 11
9.341
 20
77.356
 21
77.356
  0
LINE
  8
0
 10
9.341
 11
9.677
 20
77.356
 21
77.284
  0
LINE
  8
0
 10
9.677
 11
9.991
 20
77.284
 21
77.143
  0
LINE
  8
0
 10
9.991
 11
10.269
 20
77.143
 21
76.94
  0
LINE
  8
0
 10
10.269
 11
10.499
 20
76.94
 21
76.684
  0
LINE
  8
0
 10
10.499
 11
10.671
 20
76.684
 21
76.384
  0
LINE
  8
0
 10
10.671
 11
10.777
 20
76.384
 21
76.056
  0
LINE
  8
0
 10
10.777
 11
10.813
 20
76.056
 21
75.712
  0
LINE
  8
0
 10
10.813
 11
10.777
 20
75.712
 21
75.368
  0
LINE
  8
0
 10
10.777
 11
10.671
 20
75.368
 21
75.04
  0
LINE
  8
0
 10
10.671
 11
10.499
 20
75.04
 21
74.74
  0
LINE
  8
0
 10
10.499
 11
10.269
 20
74.74
 21
74.484
  0
LINE
  8
0
 10
10.269
 11
9.991
 20
74.484
 21
74.281
  0
LINE
  8
0
 10
9.991
 11
9.677
 20
74.281
 21
74.14
  0
LINE
  8
0
 10
9.677
 11
9.341
 20
74.14
 21
74.068
  0
LINE
  8
0
 10
9.341
 11
8.997
 20
74.068
 21
74.068
  0
LINE
  8
0
 10
8.997
 11
8.661
 20
74.068
 21
74.14
  0
LINE
  8
0
 10
8.661
 11
8.347
 20
74.14
 21
74.281
  0
LINE
  8
0
 10
8.347
 11
8.069
 20
74.281
 21
74.484
  0
LINE
  8
0
 10
8.069
 11
7.839
 20
74.484
 21
74.74
  0
LINE
  8
0
 10
7.839
 11
7.667
 20
74.74
 21
75.04
  0
LINE
  8
0
 10
7.667
 11
7.561
 20
75.04
 21
75.368
  0
LINE
  8
0
 10
7.561
 11
7.525
 20
75.368
 21
75.712
  0
LINE
  8
0
 10
7.525
 11
7.561
 20
91.712
 21
92.056
  0
LINE
  8
0
 10
7.561
 11
7.667
 20
92.056
 21
92.384
  0
LINE
  8
0
 10
7.667
 11
7.839
 20
92.384
 21
92.684
  0
LINE
  8
0
 10
7.839
 11
8.069
 20
92.684
 21
92.94
  0
LINE
  8
0
 10
8.069
 11
8.347
 20
92.94
 21
93.143
  0
LINE
  8
0
 10
8.347
 11
8.661
 20
93.143
 21
93.284
  0
LINE
  8
0
 10
8.661
 11
8.997
 20
93.284
 21
93.356
  0
LINE
  8
0
 10
8.997
 11
9.341
 20
93.356
 21
93.356
  0
LINE
  8
0
 10
9.341
 11
9.677
 20
93.356
 21
93.284
  0
LINE
  8
0
 10
9.677
 11
9.991
 20
93.284
 21
93.143
  0
LINE
  8
0
 10
9.991
 11
10.269
 20
93.143
 21
92.94
  0
LINE
  8
0
 10
10.269
 11
10.499
 20
92.94
 21
92.684
  0
LINE
  8
0
 10
10.499
 11
10.671
 20
92.684
 21
92.384
  0
LINE
  8
0
 10
10.671
 11
10.777
 20
92.384
 21
92.056
  0
LINE
  8
0
 10
10.777
 11
10.813
 20
92.056
 21
91.712
  0
LINE
  8
0
 10
10.813
 11
10.777
 20
91.712
 21
91.368
  0
LINE
  8
0
 10
10.777
 11
10.671
 20
91.368
 21
91.04
  0
LINE
  8
0
 10
10.671
 11
10.499
 20
91.04
 21
90.74
  0
LINE
  8
0
 10
10.499
 11
10.269
 20
90.74
 21
90.484
  0
LINE
  8
0
 10
10.269
 11
9.991
 20
90.484
 21
90.281
  0
LINE
  8
0
 10
9.991
 11
9.677
 20
90.281
 21
90.14
  0
LINE
  8
0
 10
9.677
 11
9.341
 20
90.14
 21
90.068
  0
LINE
  8
0
 10
9.341
 11
8.997
 20
90.068
 21
90.068
  0
LINE
  8
0
 10
8.997
 11
8.661
 20
90.068
 21
90.14
  0
LINE
  8
0
 10
8.661
 11
8.347
 20
90.14
 21
90.281
  0
LINE
  8
0
 10
8.347
 11
8.069
 20
90.281
 21
90.484
  0
LINE
  8
0
 10
8.069
 11
7.839
 20
90.484
 21
90.74
  0
LINE
  8
0
 10
7.839
 11
7.667
 20
90.74
 21
91.04
  0
LINE
  8
0
 10
7.667
 11
7.561
 20
91.04
 21
91.368
  0
LINE
  8
0
 10
7.561
 11
7.525
 20
91.368
 21
91.712
  0
LINE
  8
0
 10
10.211
 11
10.451
 20
26
 21
28.3
  0
LINE
  8
0
 10
10.451
 11
11.162
 20
28.3
 21
30.499
  0
LINE
  8
0
 10
11.162
 11
12.312
 20
30.499
 21
32.501
  0
LINE
  8
0
 10
12.312
 11
13.851
 20
32.501
 21
34.22
  0
LINE
  8
0
 10
13.851
 11
15.711
 20
34.22
 21
35.579
  0
LINE
  8
0
 10
15.711
 11
17.812
 20
35.579
 21
36.519
  0
LINE
  8
0
 10
17.812
 11
20.061
 20
36.519
 21
37
  0
LINE
  8
0
 10
20.061
 11
22.361
 20
37
 21
37
  0
LINE
  8
0
 10
22.361
 11
24.61
 20
37
 21
36.519
  0
LINE
  8
0
 10
24.61
 11
26.711
 20
36.519
 21
35.579
  0
LINE
  8
0
 10
26.711
 11
28.571
 20
35.579
 21
34.22
  0
LINE
  8
0
 10
28.571
 11
30.11
 20
34.22
 21
32.501
  0
LINE
  8
0
 10
30.11
 11
31.26
 20
32.501
 21
30.499
  0
LINE
  8
0
 10
31.26
 11
31.971
 20
30.499
 21
28.3
  0
LINE
  8
0
 10
31.971
 11
32.211
 20
28.3
 21
26
  0
LINE
  8
0
 10
32.211
 11
31.971
 20
26
 21
23.7
  0
LINE
  8
0
 10
31.971
 11
31.26
 20
23.7
 21
21.501
  0
LINE
  8
0
 10
31.26
 11
30.11
 20
21.501
 21
19.499
  0
LINE
  8
0
 10
30.11
 11
28.571
 20
19.499
 21
17.78
  0
LINE
  8
0
 10
28.571
 11
26.711
 20
17.78
 21
16.421
  0
LINE
  8
0
 10
26.711
 11
24.61
 20
16.421
 21
15.481
  0
LINE
  8
0
 10
24.61
 11
22.361
 20
15.481
 21
15
  0
LINE
  8
0
 10
22.361
 11
20.061
 20
15
 21
15
  0
LINE
  8
0
 10
20.061
 11
17.812
 20
15
 21
15.481
  0
LINE
  8
0
 10
17.812
 11
15.711
 20
15.481
 21
16.421
  0
LINE
  8
0
 10
15.711
 11
13.851
 20
16.421
 21
17.78
  0
LINE
  8
0
 10
13.851
 11
12.312
 20
17.78
 21
19.499
  0
LINE
  8
0
 10
12.312
 11
11.162
 20
19.499
 21
21.501
  0
LINE
  8
0
 10
11.162
 11
10.451
 20
21.501
 21
23.7
  0
LINE
  8
0
 10
10.451
 11
10.211
 20
23.7
 21
26
  0
LINE
  8
0
 10
10.844
 11
10.853
 20
25.283
 21
25.367
  0
LINE
  8
0
 10
10.853
 11
10.879
 20
25.367
 21
25.447
  0
LINE
  8
0
 10
10.879
 11
10.92
 20
25.447
 21
25.519
  0
LINE
  8
0
 10
10.92
 11
10.961
 20
25.519
 21
25.565
  0
LINE
  8
0
 10
10.961
 11
10.961
 20
25.565
 21
26.435
  0
LINE
  8
0
 10
10.961
 11
10.92
 20
26.435
 21
26.481
  0
LINE
  8
0
 10
10.92
 11
10.879
 20
26.481
 21
26.553
  0
LINE
  8
0
 10
10.879
 11
10.853
 20
26.553
 21
26.633
  0
LINE
  8
0
 10
10.853
 11
10.844
 20
26.633
 21
26.717
  0
LINE
  8
0
 10
10.844
 11
10.853
 20
26.717
 21
26.801
  0
LINE
  8
0
 10
10.853
 11
10.879
 20
26.801
 21
26.881
  0
LINE
  8
0
 10
10.879
 11
10.92
 20
26.881
 21
26.953
  0
LINE
  8
0
 10
10.92
 11
10.962
 20
26.953
 21
27
  0
LINE
  8
0
 10
10.962
 11
10.976
 20
27
 21
27.016
  0
LINE
  8
0
 10
10.976
 11
11.044
 20
27.016
 21
27.065
  0
LINE
  8
0
 10
11.044
 11
11.12
 20
27.065
 21
27.1
  0
LINE
  8
0
 10
11.12
 11
11.202
 20
27.1
 21
27.117
  0
LINE
  8
0
 10
11.202
 11
11.286
 20
27.117
 21
27.117
  0
LINE
  8
0
 10
11.286
 11
11.368
 20
27.117
 21
27.1
  0
LINE
  8
0
 10
11.368
 11
11.444
 20
27.1
 21
27.065
  0
LINE
  8
0
 10
11.444
 11
11.512
 20
27.065
 21
27.016
  0
LINE
  8
0
 10
11.512
 11
11.526
 20
27.016
 21
27
  0
LINE
  8
0
 10
11.526
 11
12.396
 20
27
 21
27
  0
LINE
  8
0
 10
12.396
 11
12.41
 20
27
 21
27.016
  0
LINE
  8
0
 10
12.41
 11
12.478
 20
27.016
 21
27.065
  0
LINE
  8
0
 10
12.478
 11
12.554
 20
27.065
 21
27.1
  0
LINE
  8
0
 10
12.554
 11
12.636
 20
27.1
 21
27.117
  0
LINE
  8
0
 10
12.636
 11
12.72
 20
27.117
 21
27.117
  0
LINE
  8
0
 10
12.72
 11
12.802
 20
27.117
 21
27.1
  0
LINE
  8
0
 10
12.802
 11
12.878
 20
27.1
 21
27.065
  0
LINE
  8
0
 10
12.878
 11
12.946
 20
27.065
 21
27.016
  0
LINE
  8
0
 10
12.946
 11
12.961
 20
27.016
 21
26.999
  0
LINE
  8
0
 10
12.961
 11
13.002
 20
26.999
 21
26.953
  0
LINE
  8
0
 10
13.002
 11
13.043
 20
26.953
 21
26.881
  0
LINE
  8
0
 10
13.043
 11
13.069
 20
26.881
 21
26.801
  0
LINE
  8
0
 10
13.069
 11
13.078
 20
26.801
 21
26.717
  0
LINE
  8
0
 10
13.078
 11
13.069
 20
26.717
 21
26.633
  0
LINE
  8
0
 10
13.069
 11
13.043
 20
26.633
 21
26.553
  0
LINE
  8
0
 10
13.043
 11
13.002
 20
26.553
 21
26.481
  0
LINE
  8
0
 10
13.002
 11
12.961
 20
26.481
 21
26.435
  0
LINE
  8
0
 10
12.961
 11
12.961
 20
26.435
 21
25.565
  0
LINE
  8
0
 10
12.961
 11
13.002
 20
25.565
 21
25.519
  0
LINE
  8
0
 10
13.002
 11
13.043
 20
25.519
 21
25.447
  0
LINE
  8
0
 10
13.043
 11
13.069
 20
25.447
 21
25.367
  0
LINE
  8
0
 10
13.069
 11
13.078
 20
25.367
 21
25.283
  0
LINE
  8
0
 10
13.078
 11
13.069
 20
25.283
 21
25.199
  0
LINE
  8
0
 10
13.069
 11
13.043
 20
25.199
 21
25.119
  0
LINE
  8
0
 10
13.043
 11
13.002
 20
25.119
 21
25.047
  0
LINE
  8
0
 10
13.002
 11
12.96
 20
25.047
 21
25
  0
LINE
  8
0
 10
12.96
 11
12.946
 20
25
 21
24.984
  0
LINE
  8
0
 10
12.946
 11
12.878
 20
24.984
 21
24.935
  0
LINE
  8
0
 10
12.878
 11
12.802
 20
24.935
 21
24.9
  0
LINE
  8
0
 10
12.802
 11
12.72
 20
24.9
 21
24.883
  0
LINE
  8
0
 10
12.72
 11
12.636
 20
24.883
 21
24.883
  0
LINE
  8
0
 10
12.636
 11
12.554
 20
24.883
 21
24.9
  0
LINE
  8
0
 10
12.554
 11
12.478
 20
24.9
 21
24.935
  0
LINE
  8
0
 10
12.478
 11
12.41
 20
24.935
 21
24.984
  0
LINE
  8
0
 10
12.41
 11
12.396
 20
24.984
 21
25
  0
LINE
  8
0
 10
12.396
 11
11.526
 20
25
 21
25
  0
LINE
  8
0
 10
11.526
 11
11.512
 20
25
 21
24.984
  0
LINE
  8
0
 10
11.512
 11
11.444
 20
24.984
 21
24.935
  0
LINE
  8
0
 10
11.444
 11
11.368
 20
24.935
 21
24.9
  0
LINE
  8
0
 10
11.368
 11
11.286
 20
24.9
 21
24.883
  0
LINE
  8
0
 10
11.286
 11
11.202
 20
24.883
 21
24.883
  0
LINE
  8
0
 10
11.202
 11
11.12
 20
24.883
 21
24.9
  0
LINE
  8
0
 10
11.12
 11
11.044
 20
24.9
 21
24.935
  0
LINE
  8
0
 10
11.044
 11
10.976
 20
24.935
 21
24.984
  0
LINE
  8
0
 10
10.976
 11
10.961
 20
24.984
 21
25.001
  0
LINE
  8
0
 10
10.961
 11
10.92
 20
25.001
 21
25.047
  0
LINE
  8
0
 10
10.92
 11
10.879
 20
25.047
 21
25.119
  0
LINE
  8
0
 10
10.879
 11
10.853
 20
25.119
 21
25.199
  0
LINE
  8
0
 10
10.853
 11
10.844
 20
25.199
 21
25.283
  0
LINE
  8
0
 10
12.35
 11
12.383
 20
30.25
 21
30.564
  0
LINE
  8
0
 10
12.383
 11
12.48
 20
30.564
 21
30.863
  0
LINE
  8
0
 10
12.48
 11
12.636
 20
30.863
 21
31.137
  0
LINE
  8
0
 10
12.636
 11
12.846
 20
31.137
 21
31.371
  0
LINE
  8
0
 10
12.846
 11
13.1
 20
31.371
 21
31.556
  0
LINE
  8
0
 10
13.1
 11
13.386
 20
31.556
 21
31.684
  0
LINE
  8
0
 10
13.386
 11
13.693
 20
31.684
 21
31.75
  0
LINE
  8
0
 10
13.693
 11
14.007
 20
31.75
 21
31.75
  0
LINE
  8
0
 10
14.007
 11
14.314
 20
31.75
 21
31.684
  0
LINE
  8
0
 10
14.314
 11
14.6
 20
31.684
 21
31.556
  0
LINE
  8
0
 10
14.6
 11
14.854
 20
31.556
 21
31.371
  0
LINE
  8
0
 10
14.854
 11
15.064
 20
31.371
 21
31.137
  0
LINE
  8
0
 10
15.064
 11
15.22
 20
31.137
 21
30.863
  0
LINE
  8
0
 10
15.22
 11
15.317
 20
30.863
 21
30.564
  0
LINE
  8
0
 10
15.317
 11
15.35
 20
30.564
 21
30.25
  0
LINE
  8
0
 10
15.35
 11
15.317
 20
30.25
 21
29.936
  0
LINE
  8
0
 10
15.317
 11
15.22
 20
29.936
 21
29.637
  0
LINE
  8
0
 10
15.22
 11
15.064
 20
29.637
 21
29.363
  0
LINE
  8
0
 10
15.064
 11
14.854
 20
29.363
 21
29.129
  0
LINE
  8
0
 10
14.854
 11
14.6
 20
29.129
 21
28.944
  0
LINE
  8
0
 10
14.6
 11
14.314
 20
28.944
 21
28.816
  0
LINE
  8
0
 10
14.314
 11
14.007
 20
28.816
 21
28.75
  0
LINE
  8
0
 10
14.007
 11
13.693
 20
28.75
 21
28.75
  0
LINE
  8
0
 10
13.693
 11
13.386
 20
28.75
 21
28.816
  0
LINE
  8
0
 10
13.386
 11
13.1
 20
28.816
 21
28.944
  0
LINE
  8
0
 10
13.1
 11
12.846
 20
28.944
 21
29.129
  0
LINE
  8
0
 10
12.846
 11
12.636
 20
29.129
 21
29.363
  0
LINE
  8
0
 10
12.636
 11
12.48
 20
29.363
 21
29.637
  0
LINE
  8
0
 10
12.48
 11
12.383
 20
29.637
 21
29.936
  0
LINE
  8
0
 10
12.383
 11
12.35
 20
29.936
 21
30.25
  0
LINE
  8
0
 10
12.702
 11
12.748
 20
74.806
 21
75.244
  0
LINE
  8
0
 10
12.748
 11
12.883
 20
75.244
 21
75.664
  0
LINE
  8
0
 10
12.883
 11
13.102
 20
75.664
 21
76.045
  0
LINE
  8
0
 10
13.102
 11
13.396
 20
76.045
 21
76.373
  0
LINE
  8
0
 10
13.396
 11
13.751
 20
76.373
 21
76.632
  0
LINE
  8
0
 10
13.751
 11
14.151
 20
76.632
 21
76.811
  0
LINE
  8
0
 10
14.151
 11
14.58
 20
76.811
 21
76.903
  0
LINE
  8
0
 10
14.58
 11
15.018
 20
76.903
 21
76.903
  0
LINE
  8
0
 10
15.018
 11
15.447
 20
76.903
 21
76.811
  0
LINE
  8
0
 10
15.447
 11
15.847
 20
76.811
 21
76.632
  0
LINE
  8
0
 10
15.847
 11
16.202
 20
76.632
 21
76.373
  0
LINE
  8
0
 10
16.202
 11
16.496
 20
76.373
 21
76.045
  0
LINE
  8
0
 10
16.496
 11
16.715
 20
76.045
 21
75.664
  0
LINE
  8
0
 10
16.715
 11
16.85
 20
75.664
 21
75.244
  0
LINE
  8
0
 10
16.85
 11
16.896
 20
75.244
 21
74.806
  0
LINE
  8
0
 10
16.896
 11
16.85
 20
74.806
 21
74.368
  0
LINE
  8
0
 10
16.85
 11
16.715
 20
74.368
 21
73.948
  0
LINE
  8
0
 10
16.715
 11
16.496
 20
73.948
 21
73.567
  0
LINE
  8
0
 10
16.496
 11
16.202
 20
73.567
 21
73.239
  0
LINE
  8
0
 10
16.202
 11
15.847
 20
73.239
 21
72.98
  0
LINE
  8
0
 10
15.847
 11
15.447
 20
72.98
 21
72.801
  0
LINE
  8
0
 10
15.447
 11
15.018
 20
72.801
 21
72.709
  0
LINE
  8
0
 10
15.018
 11
14.58
 20
72.709
 21
72.709
  0
LINE
  8
0
 10
14.58
 11
14.151
 20
72.709
 21
72.801
  0
LINE
  8
0
 10
14.151
 11
13.751
 20
72.801
 21
72.98
  0
LINE
  8
0
 10
13.751
 11
13.396
 20
72.98
 21
73.239
  0
LINE
  8
0
 10
13.396
 11
13.102
 20
73.239
 21
73.567
  0
LINE
  8
0
 10
13.102
 11
12.883
 20
73.567
 21
73.948
  0
LINE
  8
0
 10
12.883
 11
12.748
 20
73.948
 21
74.368
  0
LINE
  8
0
 10
12.748
 11
12.702
 20
74.368
 21
74.806
  0
LINE
  8
0
 10
12.702
 11
12.748
 20
90.806
 21
91.244
  0
LINE
  8
0
 10
12.748
 11
12.883
 20
91.244
 21
91.664
  0
LINE
  8
0
 10
12.883
 11
13.102
 20
91.664
 21
92.045
  0
LINE
  8
0
 10
13.102
 11
13.396
 20
92.045
 21
92.373
  0
LINE
  8
0
 10
13.396
 11
13.751
 20
92.373
 21
92.632
  0
LINE
  8
0
 10
13.751
 11
14.151
 20
92.632
 21
92.811
  0
LINE
  8
0
 10
14.151
 11
14.58
 20
92.811
 21
92.903
  0
LINE
  8
0
 10
14.58
 11
15.018
 20
92.903
 21
92.903
  0
LINE
  8
0
 10
15.018
 11
15.447
 20
92.903
 21
92.811
  0
LINE
  8
0
 10
15.447
 11
15.847
 20
92.811
 21
92.632
  0
LINE
  8
0
 10
15.847
 11
16.202
 20
92.632
 21
92.373
  0
LINE
  8
0
 10
16.202
 11
16.496
 20
92.373
 21
92.045
  0
LINE
  8
0
 10
16.496
 11
16.715
 20
92.045
 21
91.664
  0
LINE
  8
0
 10
16.715
 11
16.85
 20
91.664
 21
91.244
  0
LINE
  8
0
 10
16.85
 11
16.896
 20
91.244
 21
90.806
  0
LINE
  8
0
 10
16.896
 11
16.85
 20
90.806
 21
90.368
  0
LINE
  8
0
 10
16.85
 11
16.715
 20
90.368
 21
89.948
  0
LINE
  8
0
 10
16.715
 11
16.496
 20
89.948
 21
89.567
  0
LINE
  8
0
 10
16.496
 11
16.202
 20
89.567
 21
89.239
  0
LINE
  8
0
 10
16.202
 11
15.847
 20
89.239
 21
88.98
  0
LINE
  8
0
 10
15.847
 11
15.447
 20
88.98
 21
88.801
  0
LINE
  8
0
 10
15.447
 11
15.018
 20
88.801
 21
88.709
  0
LINE
  8
0
 10
15.018
 11
14.58
 20
88.709
 21
88.709
  0
LINE
  8
0
 10
14.58
 11
14.151
 20
88.709
 21
88.801
  0
LINE
  8
0
 10
14.151
 11
13.751
 20
88.801
 21
88.98
  0
LINE
  8
0
 10
13.751
 11
13.396
 20
88.98
 21
89.239
  0
LINE
  8
0
 10
13.396
 11
13.102
 20
89.239
 21
89.567
  0
LINE
  8
0
 10
13.102
 11
12.883
 20
89.567
 21
89.948
  0
LINE
  8
0
 10
12.883
 11
12.748
 20
89.948
 21
90.368
  0
LINE
  8
0
 10
12.748
 11
12.702
 20
90.368
 21
90.806
  0
LINE
  8
0
 10
19.222
 11
19.277
 20
73.982
 21
74.507
  0
LINE
  8
0
 10
19.277
 11
19.439
 20
74.507
 21
75.008
  0
LINE
  8
0
 10
19.439
 11
19.701
 20
75.008
 21
75.465
  0
LINE
  8
0
 10
19.701
 11
20.052
 20
75.465
 21
75.857
  0
LINE
  8
0
 10
20.052
 11
20.476
 20
75.857
 21
76.167
  0
LINE
  8
0
 10
20.476
 11
20.956
 20
76.167
 21
76.382
  0
LINE
  8
0
 10
20.956
 11
21.469
 20
76.382
 21
76.491
  0
LINE
  8
0
 10
21.469
 11
21.993
 20
76.491
 21
76.491
  0
LINE
  8
0
 10
21.993
 11
22.506
 20
76.491
 21
76.382
  0
LINE
  8
0
 10
22.506
 11
22.986
 20
76.382
 21
76.167
  0
LINE
  8
0
 10
22.986
 11
23.41
 20
76.167
 21
75.857
  0
LINE
  8
0
 10
23.41
 11
23.761
 20
75.857
 21
75.465
  0
LINE
  8
0
 10
23.761
 11
24.023
 20
75.465
 21
75.008
  0
LINE
  8
0
 10
24.023
 11
24.185
 20
75.008
 21
74.507
  0
LINE
  8
0
 10
24.185
 11
24.24
 20
74.507
 21
73.982
  0
LINE
  8
0
 10
24.24
 11
24.185
 20
73.982
 21
73.457
  0
LINE
  8
0
 10
24.185
 11
24.023
 20
73.457
 21
72.956
  0
LINE
  8
0
 10
24.023
 11
23.761
 20
72.956
 21
72.499
  0
LINE
  8
0
 10
23.761
 11
23.41
 20
72.499
 21
72.107
  0
LINE
  8
0
 10
23.41
 11
22.986
 20
72.107
 21
71.797
  0
LINE
  8
0
 10
22.986
 11
22.506
 20
71.797
 21
71.582
  0
LINE
  8
0
 10
22.506
 11
21.993
 20
71.582
 21
71.473
  0
LINE
  8
0
 10
21.993
 11
21.469
 20
71.473
 21
71.473
  0
LINE
  8
0
 10
21.469
 11
20.956
 20
71.473
 21
71.582
  0
LINE
  8
0
 10
20.956
 11
20.476
 20
71.582
 21
71.797
  0
LINE
  8
0
 10
20.476
 11
20.052
 20
71.797
 21
72.107
  0
LINE
  8
0
 10
20.052
 11
19.701
 20
72.107
 21
72.499
  0
LINE
  8
0
 10
19.701
 11
19.439
 20
72.499
 21
72.956
  0
LINE
  8
0
 10
19.439
 11
19.277
 20
72.956
 21
73.457
  0
LINE
  8
0
 10
19.277
 11
19.222
 20
73.457
 21
73.982
  0
LINE
  8
0
 10
19.222
 11
19.277
 20
89.982
 21
90.507
  0
LINE
  8
0
 10
19.277
 11
19.439
 20
90.507
 21
91.008
  0
LINE
  8
0
 10
19.439
 11
19.701
 20
91.008
 21
91.465
  0
LINE
  8
0
 10
19.701
 11
20.052
 20
91.465
 21
91.857
  0
LINE
  8
0
 10
20.052
 11
20.476
 20
91.857
 21
92.167
  0
LINE
  8
0
 10
20.476
 11
20.956
 20
92.167
 21
92.382
  0
LINE
  8
0
 10
20.956
 11
21.469
 20
92.382
 21
92.491
  0
LINE
  8
0
 10
21.469
 11
21.993
 20
92.491
 21
92.491
  0
LINE
  8
0
 10
21.993
 11
22.506
 20
92.491
 21
92.382
  0
LINE
  8
0
 10
22.506
 11
22.986
 20
92.382
 21
92.167
  0
LINE
  8
0
 10
22.986
 11
23.41
 20
92.167
 21
91.857
  0
LINE
  8
0
 10
23.41
 11
23.761
 20
91.857
 21
91.465
  0
LINE
  8
0
 10
23.761
 11
24.023
 20
91.465
 21
91.008
  0
LINE
  8
0
 10
24.023
 11
24.185
 20
91.008
 21
90.507
  0
LINE
  8
0
 10
24.185
 11
24.24
 20
90.507
 21
89.982
  0
LINE
  8
0
 10
24.24
 11
24.185
 20
89.982
 21
89.457
  0
LINE
  8
0
 10
24.185
 11
24.023
 20
89.457
 21
88.956
  0
LINE
  8
0
 10
24.023
 11
23.761
 20
88.956
 21
88.499
  0
LINE
  8
0
 10
23.761
 11
23.41
 20
88.499
 21
88.107
  0
LINE
  8
0
 10
23.41
 11
22.986
 20
88.107
 21
87.797
  0
LINE
  8
0
 10
22.986
 11
22.506
 20
87.797
 21
87.582
  0
LINE
  8
0
 10
22.506
 11
21.993
 20
87.582
 21
87.473
  0
LINE
  8
0
 10
21.993
 11
21.469
 20
87.473
 21
87.473
  0
LINE
  8
0
 10
21.469
 11
20.956
 20
87.473
 21
87.582
  0
LINE
  8
0
 10
20.956
 11
20.476
 20
87.582
 21
87.797
  0
LINE
  8
0
 10
20.476
 11
20.052
 20
87.797
 21
88.107
  0
LINE
  8
0
 10
20.052
 11
19.701
 20
88.107
 21
88.499
  0
LINE
  8
0
 10
19.701
 11
19.439
 20
88.499
 21
88.956
  0
LINE
  8
0
 10
19.439
 11
19.277
 20
88.956
 21
89.457
  0
LINE
  8
0
 10
19.277
 11
19.222
 20
89.457
 21
89.982
  0
LINE
  8
0
 10
19.711
 11
19.744
 20
17.5
 21
17.814
  0
LINE
  8
0
 10
19.744
 11
19.841
 20
17.814
 21
18.113
  0
LINE
  8
0
 10
19.841
 11
19.997
 20
18.113
 21
18.387
  0
LINE
  8
0
 10
19.997
 11
20.207
 20
18.387
 21
18.621
  0
LINE
  8
0
 10
20.207
 11
20.461
 20
18.621
 21
18.806
  0
LINE
  8
0
 10
20.461
 11
20.747
 20
18.806
 21
18.934
  0
LINE
  8
0
 10
20.747
 11
21.054
 20
18.934
 21
19
  0
LINE
  8
0
 10
21.054
 11
21.368
 20
19
 21
19
  0
LINE
  8
0
 10
21.368
 11
21.675
 20
19
 21
18.934
  0
LINE
  8
0
 10
21.675
 11
21.961
 20
18.934
 21
18.806
  0
LINE
  8
0
 10
21.961
 11
22.215
 20
18.806
 21
18.621
  0
LINE
  8
0
 10
22.215
 11
22.425
 20
18.621
 21
18.387
  0
LINE
  8
0
 10
22.425
 11
22.581
 20
18.387
 21
18.113
  0
LINE
  8
0
 10
22.581
 11
22.678
 20
18.113
 21
17.814
  0
LINE
  8
0
 10
22.678
 11
22.711
 20
17.814
 21
17.5
  0
LINE
  8
0
 10
22.711
 11
22.678
 20
17.5
 21
17.186
  0
LINE
  8
0
 10
22.678
 11
22.581
 20
17.186
 21
16.887
  0
LINE
  8
0
 10
22.581
 11
22.425
 20
16.887
 21
16.613
  0
LINE
  8
0
 10
22.425
 11
22.215
 20
16.613
 21
16.379
  0
LINE
  8
0
 10
22.215
 11
21.961
 20
16.379
 21
16.194
  0
LINE
  8
0
 10
21.961
 11
21.675
 20
16.194
 21
16.066
  0
LINE
  8
0
 10
21.675
 11
21.368
 20
16.066
 21
16
  0
LINE
  8
0
 10
21.368
 11
21.054
 20
16
 21
16
  0
LINE
  8
0
 10
21.054
 11
20.747
 20
16
 21
16.066
  0
LINE
  8
0
 10
20.747
 11
20.461
 20
16.066
 21
16.194
  0
LINE
  8
0
 10
20.461
 11
20.207
 20
16.194
 21
16.379
  0
LINE
  8
0
 10
20.207
 11
19.997
 20
16.379
 21
16.613
  0
LINE
  8
0
 10
19.997
 11
19.841
 20
16.613
 21
16.887
  0
LINE
  8
0
 10
19.841
 11
19.744
 20
16.887
 21
17.186
  0
LINE
  8
0
 10
19.744
 11
19.711
 20
17.186
 21
17.5
  0
LINE
  8
0
 10
19.711
 11
19.744
 20
26
 21
26.314
  0
LINE
  8
0
 10
19.744
 11
19.841
 20
26.314
 21
26.613
  0
LINE
  8
0
 10
19.841
 11
19.997
 20
26.613
 21
26.887
  0
LINE
  8
0
 10
19.997
 11
20.207
 20
26.887
 21
27.121
  0
LINE
  8
0
 10
20.207
 11
20.461
 20
27.121
 21
27.306
  0
LINE
  8
0
 10
20.461
 11
20.747
 20
27.306
 21
27.434
  0
LINE
  8
0
 10
20.747
 11
21.054
 20
27.434
 21
27.5
  0
LINE
  8
0
 10
21.054
 11
21.368
 20
27.5
 21
27.5
  0
LINE
  8
0
 10
21.368
 11
21.675
 20
27.5
 21
27.434
  0
LINE
  8
0
 10
21.675
 11
21.961
 20
27.434
 21
27.306
  0
LINE
  8
0
 10
21.961
 11
22.215
 20
27.306
 21
27.121
  0
LINE
  8
0
 10
22.215
 11
22.425
 20
27.121
 21
26.887
  0
LINE
  8
0
 10
22.425
 11
22.581
 20
26.887
 21
26.613
  0
LINE
  8
0
 10
22.581
 11
22.678
 20
26.613
 21
26.314
  0
LINE
  8
0
 10
22.678
 11
22.711
 20
26.314
 21
26
  0
LINE
  8
0
 10
22.711
 11
22.678
 20
26
 21
25.686
  0
LINE
  8
0
 10
22.678
 11
22.581
 20
25.686
 21
25.387
  0
LINE
  8
0
 10
22.581
 11
22.425
 20
25.387
 21
25.113
  0
LINE
  8
0
 10
22.425
 11
22.215
 20
25.113
 21
24.879
  0
LINE
  8
0
 10
22.215
 11
21.961
 20
24.879
 21
24.694
  0
LINE
  8
0
 10
21.961
 11
21.675
 20
24.694
 21
24.566
  0
LINE
  8
0
 10
21.675
 11
21.368
 20
24.566
 21
24.5
  0
LINE
  8
0
 10
21.368
 11
21.054
 20
24.5
 21
24.5
  0
LINE
  8
0
 10
21.054
 11
20.747
 20
24.5
 21
24.566
  0
LINE
  8
0
 10
20.747
 11
20.461
 20
24.566
 21
24.694
  0
LINE
  8
0
 10
20.461
 11
20.207
 20
24.694
 21
24.879
  0
LINE
  8
0
 10
20.207
 11
19.997
 20
24.879
 21
25.113
  0
LINE
  8
0
 10
19.997
 11
19.841
 20
25.113
 21
25.387
  0
LINE
  8
0
 10
19.841
 11
19.744
 20
25.387
 21
25.686
  0
LINE
  8
0
 10
19.744
 11
19.711
 20
25.686
 21
26
  0
LINE
  8
0
 10
21.711
 11
21.951
 20
46
 21
48.3
  0
LINE
  8
0
 10
21.951
 11
22.662
 20
48.3
 21
50.499
  0
LINE
  8
0
 10
22.662
 11
23.812
 20
50.499
 21
52.501
  0
LINE
  8
0
 10
23.812
 11
25.351
 20
52.501
 21
54.22
  0
LINE
  8
0
 10
25.351
 11
27.211
 20
54.22
 21
55.579
  0
LINE
  8
0
 10
27.211
 11
29.312
 20
55.579
 21
56.519
  0
LINE
  8
0
 10
29.312
 11
31.561
 20
56.519
 21
57
  0
LINE
  8
0
 10
31.561
 11
33.861
 20
57
 21
57
  0
LINE
  8
0
 10
33.861
 11
36.11
 20
57
 21
56.519
  0
LINE
  8
0
 10
36.11
 11
38.211
 20
56.519
 21
55.579
  0
LINE
  8
0
 10
38.211
 11
40.071
 20
55.579
 21
54.22
  0
LINE
  8
0
 10
40.071
 11
41.61
 20
54.22
 21
52.501
  0
LINE
  8
0
 10
41.61
 11
42.76
 20
52.501
 21
50.499
  0
LINE
  8
0
 10
42.76
 11
43.471
 20
50.499
 21
48.3
  0
LINE
  8
0
 10
43.471
 11
43.711
 20
48.3
 21
46
  0
LINE
  8
0
 10
43.711
 11
43.471
 20
46
 21
43.7
  0
LINE
  8
0
 10
43.471
 11
42.76
 20
43.7
 21
41.501
  0
LINE
  8
0
 10
42.76
 11
41.61
 20
41.501
 21
39.499
  0
LINE
  8
0
 10
41.61
 11
40.071
 20
39.499
 21
37.78
  0
LINE
  8
0
 10
40.071
 11
38.211
 20
37.78
 21
36.421
  0
LINE
  8
0
 10
38.211
 11
36.11
 20
36.421
 21
35.481
  0
LINE
  8
0
 10
36.11
 11
33.861
 20
35.481
 21
35
  0
LINE
  8
0
 10
33.861
 11
31.561
 20
35
 21
35
  0
LINE
  8
0
 10
31.561
 11
29.312
 20
35
 21
35.481
  0
LINE
  8
0
 10
29.312
 11
27.211
 20
35.481
 21
36.421
  0
LINE
  8
0
 10
27.211
 11
25.351
 20
36.421
 21
37.78
  0
LINE
  8
0
 10
25.351
 11
23.812
 20
37.78
 21
39.499
  0
LINE
  8
0
 10
23.812
 11
22.662
 20
39.499
 21
41.501
  0
LINE
  8
0
 10
22.662
 11
21.951
 20
41.501
 21
43.7
  0
LINE
  8
0
 10
21.951
 11
21.711
 20
43.7
 21
46
  0
LINE
  8
0
 10
22.344
 11
22.353
 20
45.283
 21
45.367
  0
LINE
  8
0
 10
22.353
 11
22.379
 20
45.367
 21
45.447
  0
LINE
  8
0
 10
22.379
 11
22.42
 20
45.447
 21
45.519
  0
LINE
  8
0
 10
22.42
 11
22.461
 20
45.519
 21
45.565
  0
LINE
  8
0
 10
22.461
 11
22.461
 20
45.565
 21
46.435
  0
LINE
  8
0
 10
22.461
 11
22.42
 20
46.435
 21
46.481
  0
LINE
  8
0
 10
22.42
 11
22.379
 20
46.481
 21
46.553
  0
LINE
  8
0
 10
22.379
 11
22.353
 20
46.553
 21
46.633
  0
LINE
  8
0
 10
22.353
 11
22.344
 20
46.633
 21
46.717
  0
LINE
  8
0
 10
22.344
 11
22.353
 20
46.717
 21
46.801
  0
LINE
  8
0
 10
22.353
 11
22.379
 20
46.801
 21
46.881
  0
LINE
  8
0
 10
22.379
 11
22.42
 20
46.881
 21
46.953
  0
LINE
  8
0
 10
22.42
 11
22.462
 20
46.953
 21
47
  0
LINE
  8
0
 10
22.462
 11
22.476
 20
47
 21
47.016
  0
LINE
  8
0
 10
22.476
 11
22.544
 20
47.016
 21
47.065
  0
LINE
  8
0
 10
22.544
 11
22.62
 20
47.065
 21
47.1
  0
LINE
  8
0
 10
22.62
 11
22.702
 20
47.1
 21
47.117
  0
LINE
  8
0
 10
22.702
 11
22.786
 20
47.117
 21
47.117
  0
LINE
  8
0
 10
22.786
 11
22.868
 20
47.117
 21
47.1
  0
LINE
  8
0
 10
22.868
 11
22.944
 20
47.1
 21
47.065
  0
LINE
  8
0
 10
22.944
 11
23.012
 20
47.065
 21
47.016
  0
LINE
  8
0
 10
23.012
 11
23.026
 20
47.016
 21
47
  0
LINE
  8
0
 10
23.026
 11
23.896
 20
47
 21
47
  0
LINE
  8
0
 10
23.896
 11
23.91
 20
47
 21
47.016
  0
LINE
  8
0
 10
23.91
 11
23.978
 20
47.016
 21
47.065
  0
LINE
  8
0
 10
23.978
 11
24.054
 20
47.065
 21
47.1
  0
LINE
  8
0
 10
24.054
 11
24.136
 20
47.1
 21
47.117
  0
LINE
  8
0
 10
24.136
 11
24.22
 20
47.117
 21
47.117
  0
LINE
  8
0
 10
24.22
 11
24.302
 20
47.117
 21
47.1
  0
LINE
  8
0
 10
24.302
 11
24.378
 20
47.1
 21
47.065
  0
LINE
  8
0
 10
24.378
 11
24.446
 20
47.065
 21
47.016
  0
LINE
  8
0
 10
24.446
 11
24.461
 20
47.016
 21
46.999
  0
LINE
  8
0
 10
24.461
 11
24.502
 20
46.999
 21
46.953
  0
LINE
  8
0
 10
24.502
 11
24.543
 20
46.953
 21
46.881
  0
LINE
  8
0
 10
24.543
 11
24.569
 20
46.881
 21
46.801
  0
LINE
  8
0
 10
24.569
 11
24.578
 20
46.801
 21
46.717
  0
LINE
  8
0
 10
24.578
 11
24.569
 20
46.717
 21
46.633
  0
LINE
  8
0
 10
24.569
 11
24.543
 20
46.633
 21
46.553
  0
LINE
  8
0
 10
24.543
 11
24.502
 20
46.553
 21
46.481
  0
LINE
  8
0
 10
24.502
 11
24.461
 20
46.481
 21
46.435
  0
LINE
  8
0
 10
24.461
 11
24.461
 20
46.435
 21
45.565
  0
LINE
  8
0
 10
24.461
 11
24.502
 20
45.565
 21
45.519
  0
LINE
  8
0
 10
24.502
 11
24.543
 20
45.519
 21
45.447
  0
LINE
  8
0
 10
24.543
 11
24.569
 20
45.447
 21
45.367
  0
LINE
  8
0
 10
24.569
 11
24.578
 20
45.367
 21
45.283
  0
LINE
  8
0
 10
24.578
 11
24.569
 20
45.283
 21
45.199
  0
LINE
  8
0
 10
24.569
 11
24.543
 20
45.199
 21
45.119
  0
LINE
  8
0
 10
24.543
 11
24.502
 20
45.119
 21
45.047
  0
LINE
  8
0
 10
24.502
 11
24.46
 20
45.047
 21
45
  0
LINE
  8
0
 10
24.46
 11
24.446
 20
45
 21
44.984
  0
LINE
  8
0
 10
24.446
 11
24.378
 20
44.984
 21
44.935
  0
LINE
  8
0
 10
24.378
 11
24.302
 20
44.935
 21
44.9
  0
LINE
  8
0
 10
24.302
 11
24.22
 20
44.9
 21
44.883
  0
LINE
  8
0
 10
24.22
 11
24.136
 20
44.883
 21
44.883
  0
LINE
  8
0
 10
24.136
 11
24.054
 20
44.883
 21
44.9
  0
LINE
  8
0
 10
24.054
 11
23.978
 20
44.9
 21
44.935
  0
LINE
  8
0
 10
23.978
 11
23.91
 20
44.935
 21
44.984
  0
LINE
  8
0
 10
23.91
 11
23.896
 20
44.984
 21
45
  0
LINE
  8
0
 10
23.896
 11
23.026
 20
45
 21
45
  0
LINE
  8
0
 10
23.026
 11
23.012
 20
45
 21
44.984
  0
LINE
  8
0
 10
23.012
 11
22.944
 20
44.984
 21
44.935
  0
LINE
  8
0
 10
22.944
 11
22.868
 20
44.935
 21
44.9
  0
LINE
  8
0
 10
22.868
 11
22.786
 20
44.9
 21
44.883
  0
LINE
  8
0
 10
22.786
 11
22.702
 20
44.883
 21
44.883
  0
LINE
  8
0
 10
22.702
 11
22.62
 20
44.883
 21
44.9
  0
LINE
  8
0
 10
22.62
 11
22.544
 20
44.9
 21
44.935
  0
LINE
  8
0
 10
22.544
 11
22.476
 20
44.935
 21
44.984
  0
LINE
  8
0
 10
22.476
 11
22.461
 20
44.984
 21
45.001
  0
LINE
  8
0
 10
22.461
 11
22.42
 20
45.001
 21
45.047
  0
LINE
  8
0
 10
22.42
 11
22.379
 20
45.047
 21
45.119
  0
LINE
  8
0
 10
22.379
 11
22.353
 20
45.119
 21
45.199
  0
LINE
  8
0
 10
22.353
 11
22.344
 20
45.199
 21
45.283
  0
LINE
  8
0
 10
23.85
 11
23.883
 20
50.25
 21
50.564
  0
LINE
  8
0
 10
23.883
 11
23.98
 20
50.564
 21
50.863
  0
LINE
  8
0
 10
23.98
 11
24.136
 20
50.863
 21
51.137
  0
LINE
  8
0
 10
24.136
 11
24.346
 20
51.137
 21
51.371
  0
LINE
  8
0
 10
24.346
 11
24.6
 20
51.371
 21
51.556
  0
LINE
  8
0
 10
24.6
 11
24.886
 20
51.556
 21
51.684
  0
LINE
  8
0
 10
24.886
 11
25.193
 20
51.684
 21
51.75
  0
LINE
  8
0
 10
25.193
 11
25.507
 20
51.75
 21
51.75
  0
LINE
  8
0
 10
25.507
 11
25.814
 20
51.75
 21
51.684
  0
LINE
  8
0
 10
25.814
 11
26.1
 20
51.684
 21
51.556
  0
LINE
  8
0
 10
26.1
 11
26.354
 20
51.556
 21
51.371
  0
LINE
  8
0
 10
26.354
 11
26.564
 20
51.371
 21
51.137
  0
LINE
  8
0
 10
26.564
 11
26.72
 20
51.137
 21
50.863
  0
LINE
  8
0
 10
26.72
 11
26.817
 20
50.863
 21
50.564
  0
LINE
  8
0
 10
26.817
 11
26.85
 20
50.564
 21
50.25
  0
LINE
  8
0
 10
26.85
 11
26.817
 20
50.25
 21
49.936
  0
LINE
  8
0
 10
26.817
 11
26.72
 20
49.936
 21
49.637
  0
LINE
  8
0
 10
26.72
 11
26.564
 20
49.637
 21
49.363
  0
LINE
  8
0
 10
26.564
 11
26.354
 20
49.363
 21
49.129
  0
LINE
  8
0
 10
26.354
 11
26.1
 20
49.129
 21
48.944
  0
LINE
  8
0
 10
26.1
 11
25.814
 20
48.944
 21
48.816
  0
LINE
  8
0
 10
25.814
 11
25.507
 20
48.816
 21
48.75
  0
LINE
  8
0
 10
25.507
 11
25.193
 20
48.75
 21
48.75
  0
LINE
  8
0
 10
25.193
 11
24.886
 20
48.75
 21
48.816
  0
LINE
  8
0
 10
24.886
 11
24.6
 20
48.816
 21
48.944
  0
LINE
  8
0
 10
24.6
 11
24.346
 20
48.944
 21
49.129
  0
LINE
  8
0
 10
24.346
 11
24.136
 20
49.129
 21
49.363
  0
LINE
  8
0
 10
24.136
 11
23.98
 20
49.363
 21
49.637
  0
LINE
  8
0
 10
23.98
 11
23.883
 20
49.637
 21
49.936
  0
LINE
  8
0
 10
23.883
 11
23.85
 20
49.936
 21
50.25
  0
LINE
  8
0
 10
26.958
 11
27.021
 20
73.255
 21
73.856
  0
LINE
  8
0
 10
27.021
 11
27.207
 20
73.856
 21
74.43
  0
LINE
  8
0
 10
27.207
 11
27.507
 20
74.43
 21
74.953
  0
LINE
  8
0
 10
27.507
 11
27.909
 20
74.953
 21
75.402
  0
LINE
  8
0
 10
27.909
 11
28.395
 20
75.402
 21
75.756
  0
LINE
  8
0
 10
28.395
 11
28.943
 20
75.756
 21
76.002
  0
LINE
  8
0
 10
28.943
 11
29.531
 20
76.002
 21
76.128
  0
LINE
  8
0
 10
29.531
 11
30.131
 20
76.128
 21
76.128
  0
LINE
  8
0
 10
30.131
 11
30.719
 20
76.128
 21
76.002
  0
LINE
  8
0
 10
30.719
 11
31.267
 20
76.002
 21
75.756
  0
LINE
  8
0
 10
31.267
 11
31.753
 20
75.756
 21
75.402
  0
LINE
  8
0
 10
31.753
 11
32.155
 20
75.402
 21
74.953
  0
LINE
  8
0
 10
32.155
 11
32.455
 20
74.953
 21
74.43
  0
LINE
  8
0
 10
32.455
 11
32.641
 20
74.43
 21
73.856
  0
LINE
  8
0
 10
32.641
 11
32.704
 20
73.856
 21
73.255
  0
LINE
  8
0
 10
32.704
 11
32.641
 20
73.255
 21
72.654
  0
LINE
  8
0
 10
32.641
 11
32.455
 20
72.654
 21
72.08
  0
LINE
  8
0
 10
32.455
 11
32.155
 20
72.08
 21
71.557
  0
LINE
  8
0
 10
32.155
 11
31.753
 20
71.557
 21
71.108
  0
LINE
  8
0
 10
31.753
 11
31.267
 20
71.108
 21
70.754
  0
LINE
  8
0
 10
31.267
 11
30.719
 20
70.754
 21
70.508
  0
LINE
  8
0
 10
30.719
 11
30.131
 20
70.508
 21
70.382
  0
LINE
  8
0
 10
30.131
 11
29.531
 20
70.382
 21
70.382
  0
LINE
  8
0
 10
29.531
 11
28.943
 20
70.382
 21
70.508
  0
LINE
  8
0
 10
28.943
 11
28.395
 20
70.508
 21
70.754
  0
LINE
  8
0
 10
28.395
 11
27.909
 20
70.754
 21
71.108
  0
LINE
  8
0
 10
27.909
 11
27.507
 20
71.108
 21
71.557
  0
LINE
  8
0
 10
27.507
 11
27.207
 20
71.557
 21
72.08
  0
LINE
  8
0
 10
27.207
 11
27.021
 20
72.08
 21
72.654
  0
LINE
  8
0
 10
27.021
 11
26.958
 20
72.654
 21
73.255
  0
LINE
  8
0
 10
26.958
 11
27.021
 20
89.255
 21
89.856
  0
LINE
  8
0
 10
27.021
 11
27.207
 20
89.856
 21
90.43
  0
LINE
  8
0
 10
27.207
 11
27.507
 20
90.43
 21
90.953
  0
LINE
  8
0
 10
27.507
 11
27.909
 20
90.953
 21
91.402
  0
LINE
  8
0
 10
27.909
 11
28.395
 20
91.402
 21
91.756
  0
LINE
  8
0
 10
28.395
 11
28.943
 20
91.756
 21
92.002
  0
LINE
  8
0
 10
28.943
 11
29.531
 20
92.002
 21
92.128
  0
LINE
  8
0
 10
29.531
 11
30.131
 20
92.128
 21
92.128
  0
LINE
  8
0
 10
30.131
 11
30.719
 20
92.128
 21
92.002
  0
LINE
  8
0
 10
30.719
 11
31.267
 20
92.002
 21
91.756
  0
LINE
  8
0
 10
31.267
 11
31.753
 20
91.756
 21
91.402
  0
LINE
  8
0
 10
31.753
 11
32.155
 20
91.402
 21
90.953
  0
LINE
  8
0
 10
32.155
 11
32.455
 20
90.953
 21
90.43
  0
LINE
  8
0
 10
32.455
 11
32.641
 20
90.43
 21
89.856
  0
LINE
  8
0
 10
32.641
 11
32.704
 20
89.856
 21
89.255
  0
LINE
  8
0
 10
32.704
 11
32.641
 20
89.255
 21
88.654
  0
LINE
  8
0
 10
32.641
 11
32.455
 20
88.654
 21
88.08
  0
LINE
  8
0
 10
32.455
 11
32.155
 20
88.08
 21
87.557
  0
LINE
  8
0
 10
32.155
 11
31.753
 20
87.557
 21
87.108
  0
LINE
  8
0
 10
31.753
 11
31.267
 20
87.108
 21
86.754
  0
LINE
  8
0
 10
31.267
 11
30.719
 20
86.754
 21
86.508
  0
LINE
  8
0
 10
30.719
 11
30.131
 20
86.508
 21
86.382
  0
LINE
  8
0
 10
30.131
 11
29.531
 20
86.382
 21
86.382
  0
LINE
  8
0
 10
29.531
 11
28.943
 20
86.382
 21
86.508
  0
LINE
  8
0
 10
28.943
 11
28.395
 20
86.508
 21
86.754
  0
LINE
  8
0
 10
28.395
 11
27.909
 20
86.754
 21
87.108
  0
LINE
  8
0
 10
27.909
 11
27.507
 20
87.108
 21
87.557
  0
LINE
  8
0
 10
27.507
 11
27.207
 20
87.557
 21
88.08
  0
LINE
  8
0
 10
27.207
 11
27.021
 20
88.08
 21
88.654
  0
LINE
  8
0
 10
27.021
 11
26.958
 20
88.654
 21
89.255
  0
LINE
  8
0
 10
27.072
 11
27.105
 20
30.25
 21
30.564
  0
LINE
  8
0
 10
27.105
 11
27.202
 20
30.564
 21
30.863
  0
LINE
  8
0
 10
27.202
 11
27.358
 20
30.863
 21
31.137
  0
LINE
  8
0
 10
27.358
 11
27.568
 20
31.137
 21
31.371
  0
LINE
  8
0
 10
27.568
 11
27.822
 20
31.371
 21
31.556
  0
LINE
  8
0
 10
27.822
 11
28.108
 20
31.556
 21
31.684
  0
LINE
  8
0
 10
28.108
 11
28.415
 20
31.684
 21
31.75
  0
LINE
  8
0
 10
28.415
 11
28.729
 20
31.75
 21
31.75
  0
LINE
  8
0
 10
28.729
 11
29.036
 20
31.75
 21
31.684
  0
LINE
  8
0
 10
29.036
 11
29.322
 20
31.684
 21
31.556
  0
LINE
  8
0
 10
29.322
 11
29.576
 20
31.556
 21
31.371
  0
LINE
  8
0
 10
29.576
 11
29.786
 20
31.371
 21
31.137
  0
LINE
  8
0
 10
29.786
 11
29.942
 20
31.137
 21
30.863
  0
LINE
  8
0
 10
29.942
 11
30.039
 20
30.863
 21
30.564
  0
LINE
  8
0
 10
30.039
 11
30.072
 20
30.564
 21
30.25
  0
LINE
  8
0
 10
30.072
 11
30.039
 20
30.25
 21
29.936
  0
LINE
  8
0
 10
30.039
 11
29.942
 20
29.936
 21
29.637
  0
LINE
  8
0
 10
29.942
 11
29.786
 20
29.637
 21
29.363
  0
LINE
  8
0
 10
29.786
 11
29.576
 20
29.363
 21
29.129
  0
LINE
  8
0
 10
29.576
 11
29.322
 20
29.129
 21
28.944
  0
LINE
  8
0
 10
29.322
 11
29.036
 20
28.944
 21
28.816
  0
LINE
  8
0
 10
29.036
 11
28.729
 20
28.816
 21
28.75
  0
LINE
  8
0
 10
28.729
 11
28.415
 20
28.75
 21
28.75
  0
LINE
  8
0
 10
28.415
 11
28.108
 20
28.75
 21
28.816
  0
LINE
  8
0
 10
28.108
 11
27.822
 20
28.816
 21
28.944
  0
LINE
  8
0
 10
27.822
 11
27.568
 20
28.944
 21
29.129
  0
LINE
  8
0
 10
27.568
 11
27.358
 20
29.129
 21
29.363
  0
LINE
  8
0
 10
27.358
 11
27.202
 20
29.363
 21
29.637
  0
LINE
  8
0
 10
27.202
 11
27.105
 20
29.637
 21
29.936
  0
LINE
  8
0
 10
27.105
 11
27.072
 20
29.936
 21
30.25
  0
LINE
  8
0
 10
29.344
 11
29.353
 20
25.283
 21
25.367
  0
LINE
  8
0
 10
29.353
 11
29.379
 20
25.367
 21
25.447
  0
LINE
  8
0
 10
29.379
 11
29.42
 20
25.447
 21
25.519
  0
LINE
  8
0
 10
29.42
 11
29.461
 20
25.519
 21
25.565
  0
LINE
  8
0
 10
29.461
 11
29.461
 20
25.565
 21
26.435
  0
LINE
  8
0
 10
29.461
 11
29.42
 20
26.435
 21
26.481
  0
LINE
  8
0
 10
29.42
 11
29.379
 20
26.481
 21
26.553
  0
LINE
  8
0
 10
29.379
 11
29.353
 20
26.553
 21
26.633
  0
LINE
  8
0
 10
29.353
 11
29.344
 20
26.633
 21
26.717
  0
LINE
  8
0
 10
29.344
 11
29.353
 20
26.717
 21
26.801
  0
LINE
  8
0
 10
29.353
 11
29.379
 20
26.801
 21
26.881
  0
LINE
  8
0
 10
29.379
 11
29.42
 20
26.881
 21
26.953
  0
LINE
  8
0
 10
29.42
 11
29.462
 20
26.953
 21
27
  0
LINE
  8
0
 10
29.462
 11
29.476
 20
27
 21
27.016
  0
LINE
  8
0
 10
29.476
 11
29.544
 20
27.016
 21
27.065
  0
LINE
  8
0
 10
29.544
 11
29.62
 20
27.065
 21
27.1
  0
LINE
  8
0
 10
29.62
 11
29.702
 20
27.1
 21
27.117
  0
LINE
  8
0
 10
29.702
 11
29.786
 20
27.117
 21
27.117
  0
LINE
  8
0
 10
29.786
 11
29.868
 20
27.117
 21
27.1
  0
LINE
  8
0
 10
29.868
 11
29.944
 20
27.1
 21
27.065
  0
LINE
  8
0
 10
29.944
 11
30.012
 20
27.065
 21
27.016
  0
LINE
  8
0
 10
30.012
 11
30.026
 20
27.016
 21
27
  0
LINE
  8
0
 10
30.026
 11
30.896
 20
27
 21
27
  0
LINE
  8
0
 10
30.896
 11
30.91
 20
27
 21
27.016
  0
LINE
  8
0
 10
30.91
 11
30.978
 20
27.016
 21
27.065
  0
LINE
  8
0
 10
30.978
 11
31.054
 20
27.065
 21
27.1
  0
LINE
  8
0
 10
31.054
 11
31.136
 20
27.1
 21
27.117
  0
LINE
  8
0
 10
31.136
 11
31.22
 20
27.117
 21
27.117
  0
LINE
  8
0
 10
31.22
 11
31.302
 20
27.117
 21
27.1
  0
LINE
  8
0
 10
31.302
 11
31.378
 20
27.1
 21
27.065
  0
LINE
  8
0
 10
31.378
 11
31.446
 20
27.065
 21
27.016
  0
LINE
  8
0
 10
31.446
 11
31.461
 20
27.016
 21
26.999
  0
LINE
  8
0
 10
31.461
 11
31.502
 20
26.999
 21
26.953
  0
LINE
  8
0
 10
31.502
 11
31.543
 20
26.953
 21
26.881
  0
LINE
  8
0
 10
31.543
 11
31.569
 20
26.881
 21
26.801
  0
LINE
  8
0
 10
31.569
 11
31.578
 20
26.801
 21
26.717
  0
LINE
  8
0
 10
31.578
 11
31.569
 20
26.717
 21
26.633
  0
LINE
  8
0
 10
31.569
 11
31.543
 20
26.633
 21
26.553
  0
LINE
  8
0
 10
31.543
 11
31.502
 20
26.553
 21
26.481
  0
LINE
  8
0
 10
31.502
 11
31.461
 20
26.481
 21
26.435
  0
LINE
  8
0
 10
31.461
 11
31.461
 20
26.435
 21
25.565
  0
LINE
  8
0
 10
31.461
 11
31.502
 20
25.565
 21
25.519
  0
LINE
  8
0
 10
31.502
 11
31.543
 20
25.519
 21
25.447
  0
LINE
  8
0
 10
31.543
 11
31.569
 20
25.447
 21
25.367
  0
LINE
  8
0
 10
31.569
 11
31.578
 20
25.367
 21
25.283
  0
LINE
  8
0
 10
31.578
 11
31.569
 20
25.283
 21
25.199
  0
LINE
  8
0
 10
31.569
 11
31.543
 20
25.199
 21
25.119
  0
LINE
  8
0
 10
31.543
 11
31.502
 20
25.119
 21
25.047
  0
LINE
  8
0
 10
31.502
 11
31.46
 20
25.047
 21
25
  0
LINE
  8
0
 10
31.46
 11
31.446
 20
25
 21
24.984
  0
LINE
  8
0
 10
31.446
 11
31.378
 20
24.984
 21
24.935
  0
LINE
  8
0
 10
31.378
 11
31.302
 20
24.935
 21
24.9
  0
LINE
  8
0
 10
31.302
 11
31.22
 20
24.9
 21
24.883
  0
LINE
  8
0
 10
31.22
 11
31.136
 20
24.883
 21
24.883
  0
LINE
  8
0
 10
31.136
 11
31.054
 20
24.883
 21
24.9
  0
LINE
  8
0
 10
31.054
 11
30.978
 20
24.9
 21
24.935
  0
LINE
  8
0
 10
30.978
 11
30.91
 20
24.935
 21
24.984
  0
LINE
  8
0
 10
30.91
 11
30.896
 20
24.984
 21
25
  0
LINE
  8
0
 10
30.896
 11
30.026
 20
25
 21
25
  0
LINE
  8
0
 10
30.026
 11
30.012
 20
25
 21
24.984
  0
LINE
  8
0
 10
30.012
 11
29.944
 20
24.984
 21
24.935
  0
LINE
  8
0
 10
29.944
 11
29.868
 20
24.935
 21
24.9
  0
LINE
  8
0
 10
29.868
 11
29.786
 20
24.9
 21
24.883
  0
LINE
  8
0
 10
29.786
 11
29.702
 20
24.883
 21
24.883
  0
LINE
  8
0
 10
29.702
 11
29.62
 20
24.883
 21
24.9
  0
LINE
  8
0
 10
29.62
 11
29.544
 20
24.9
 21
24.935
  0
LINE
  8
0
 10
29.544
 11
29.476
 20
24.935
 21
24.984
  0
LINE
  8
0
 10
29.476
 11
29.461
 20
24.984
 21
25.001
  0
LINE
  8
0
 10
29.461
 11
29.42
 20
25.001
 21
25.047
  0
LINE
  8
0
 10
29.42
 11
29.379
 20
25.047
 21
25.119
  0
LINE
  8
0
 10
29.379
 11
29.353
 20
25.119
 21
25.199
  0
LINE
  8
0
 10
29.353
 11
29.344
 20
25.199
 21
25.283
  0
LINE
  8
0
 10
31.211
 11
31.244
 20
37.5
 21
37.814
  0
LINE
  8
0
 10
31.244
 11
31.341
 20
37.814
 21
38.113
  0
LINE
  8
0
 10
31.341
 11
31.497
 20
38.113
 21
38.387
  0
LINE
  8
0
 10
31.497
 11
31.707
 20
38.387
 21
38.621
  0
LINE
  8
0
 10
31.707
 11
31.961
 20
38.621
 21
38.806
  0
LINE
  8
0
 10
31.961
 11
32.247
 20
38.806
 21
38.934
  0
LINE
  8
0
 10
32.247
 11
32.554
 20
38.934
 21
39
  0
LINE
  8
0
 10
32.554
 11
32.868
 20
39
 21
39
  0
LINE
  8
0
 10
32.868
 11
33.175
 20
39
 21
38.934
  0
LINE
  8
0
 10
33.175
 11
33.461
 20
38.934
 21
38.806
  0
LINE
  8
0
 10
33.461
 11
33.715
 20
38.806
 21
38.621
  0
LINE
  8
0
 10
33.715
 11
33.925
 20
38.621
 21
38.387
  0
LINE
  8
0
 10
33.925
 11
34.081
 20
38.387
 21
38.113
  0
LINE
  8
0
 10
34.081
 11
34.178
 20
38.113
 21
37.814
  0
LINE
  8
0
 10
34.178
 11
34.211
 20
37.814
 21
37.5
  0
LINE
  8
0
 10
34.211
 11
34.178
 20
37.5
 21
37.186
  0
LINE
  8
0
 10
34.178
 11
34.081
 20
37.186
 21
36.887
  0
LINE
  8
0
 10
34.081
 11
33.925
 20
36.887
 21
36.613
  0
LINE
  8
0
 10
33.925
 11
33.715
 20
36.613
 21
36.379
  0
LINE
  8
0
 10
33.715
 11
33.461
 20
36.379
 21
36.194
  0
LINE
  8
0
 10
33.461
 11
33.175
 20
36.194
 21
36.066
  0
LINE
  8
0
 10
33.175
 11
32.868
 20
36.066
 21
36
  0
LINE
  8
0
 10
32.868
 11
32.554
 20
36
 21
36
  0
LINE
  8
0
 10
32.554
 11
32.247
 20
36
 21
36.066
  0
LINE
  8
0
 10
32.247
 11
31.961
 20
36.066
 21
36.194
  0
LINE
  8
0
 10
31.961
 11
31.707
 20
36.194
 21
36.379
  0
LINE
  8
0
 10
31.707
 11
31.497
 20
36.379
 21
36.613
  0
LINE
  8
0
 10
31.497
 11
31.341
 20
36.613
 21
36.887
  0
LINE
  8
0
 10
31.341
 11
31.244
 20
36.887
 21
37.186
  0
LINE
  8
0
 10
31.244
 11
31.211
 20
37.186
 21
37.5
  0
LINE
  8
0
 10
31.211
 11
31.244
 20
46
 21
46.314
  0
LINE
  8
0
 10
31.244
 11
31.341
 20
46.314
 21
46.613
  0
LINE
  8
0
 10
31.341
 11
31.497
 20
46.613
 21
46.887
  0
LINE
  8
0
 10
31.497
 11
31.707
 20
46.887
 21
47.121
  0
LINE
  8
0
 10
31.707
 11
31.961
 20
47.121
 21
47.306
  0
LINE
  8
0
 10
31.961
 11
32.247
 20
47.306
 21
47.434
  0
LINE
  8
0
 10
32.247
 11
32.554
 20
47.434
 21
47.5
  0
LINE
  8
0
 10
32.554
 11
32.868
 20
47.5
 21
47.5
  0
LINE
  8
0
 10
32.868
 11
33.175
 20
47.5
 21
47.434
  0
LINE
  8
0
 10
33.175
 11
33.461
 20
47.434
 21
47.306
  0
LINE
  8
0
 10
33.461
 11
33.715
 20
47.306
 21
47.121
  0
LINE
  8
0
 10
33.715
 11
33.925
 20
47.121
 21
46.887
  0
LINE
  8
0
 10
33.925
 11
34.081
 20
46.887
 21
46.613
  0
LINE
  8
0
 10
34.081
 11
34.178
 20
46.613
 21
46.314
  0
LINE
  8
0
 10
34.178
 11
34.211
 20
46.314
 21
46
  0
LINE
  8
0
 10
34.211
 11
34.178
 20
46
 21
45.686
  0
LINE
  8
0
 10
34.178
 11
34.081
 20
45.686
 21
45.387
  0
LINE
  8
0
 10
34.081
 11
33.925
 20
45.387
 21
45.113
  0
LINE
  8
0
 10
33.925
 11
33.715
 20
45.113
 21
44.879
  0
LINE
  8
0
 10
33.715
 11
33.461
 20
44.879
 21
44.694
  0
LINE
  8
0
 10
33.461
 11
33.175
 20
44.694
 21
44.566
  0
LINE
  8
0
 10
33.175
 11
32.868
 20
44.566
 21
44.5
  0
LINE
  8
0
 10
32.868
 11
32.554
 20
44.5
 21
44.5
  0
LINE
  8
0
 10
32.554
 11
32.247
 20
44.5
 21
44.566
  0
LINE
  8
0
 10
32.247
 11
31.961
 20
44.566
 21
44.694
  0
LINE
  8
0
 10
31.961
 11
31.707
 20
44.694
 21
44.879
  0
LINE
  8
0
 10
31.707
 11
31.497
 20
44.879
 21
45.113
  0
LINE
  8
0
 10
31.497
 11
31.341
 20
45.113
 21
45.387
  0
LINE
  8
0
 10
31.341
 11
31.244
 20
45.387
 21
45.686
  0
LINE
  8
0
 10
31.244
 11
31.211
 20
45.686
 21
46
  0
LINE
  8
0
 10
33.211
 11
33.451
 20
26
 21
28.3
  0
LINE
  8
0
 10
33.451
 11
34.162
 20
28.3
 21
30.499
  0
LINE
  8
0
 10
34.162
 11
35.312
 20
30.499
 21
32.501
  0
LINE
  8
0
 10
35.312
 11
36.851
 20
32.501
 21
34.22
  0
LINE
  8
0
 10
36.851
 11
38.711
 20
34.22
 21
35.579
  0
LINE
  8
0
 10
38.711
 11
40.812
 20
35.579
 21
36.519
  0
LINE
  8
0
 10
40.812
 11
43.061
 20
36.519
 21
37
  0
LINE
  8
0
 10
43.061
 11
45.361
 20
37
 21
37
  0
LINE
  8
0
 10
45.361
 11
47.61
 20
37
 21
36.519
  0
LINE
  8
0
 10
47.61
 11
49.711
 20
36.519
 21
35.579
  0
LINE
  8
0
 10
49.711
 11
51.571
 20
35.579
 21
34.22
  0
LINE
  8
0
 10
51.571
 11
53.11
 20
34.22
 21
32.501
  0
LINE
  8
0
 10
53.11
 11
54.26
 20
32.501
 21
30.499
  0
LINE
  8
0
 10
54.26
 11
54.971
 20
30.499
 21
28.3
  0
LINE
  8
0
 10
54.971
 11
55.211
 20
28.3
 21
26
  0
LINE
  8
0
 10
55.211
 11
54.971
 20
26
 21
23.7
  0
LINE
  8
0
 10
54.971
 11
54.26
 20
23.7
 21
21.501
  0
LINE
  8
0
 10
54.26
 11
53.11
 20
21.501
 21
19.499
  0
LINE
  8
0
 10
53.11
 11
51.571
 20
19.499
 21
17.78
  0
LINE
  8
0
 10
51.571
 11
49.711
 20
17.78
 21
16.421
  0
LINE
  8
0
 10
49.711
 11
47.61
 20
16.421
 21
15.481
  0
LINE
  8
0
 10
47.61
 11
45.361
 20
15.481
 21
15
  0
LINE
  8
0
 10
45.361
 11
43.061
 20
15
 21
15
  0
LINE
  8
0
 10
43.061
 11
40.812
 20
15
 21
15.481
  0
LINE
  8
0
 10
40.812
 11
38.711
 20
15.481
 21
16.421
  0
LINE
  8
0
 10
38.711
 11
36.851
 20
16.421
 21
17.78
  0
LINE
  8
0
 10
36.851
 11
35.312
 20
17.78
 21
19.499
  0
LINE
  8
0
 10
35.312
 11
34.162
 20
19.499
 21
21.501
  0
LINE
  8
0
 10
34.162
 11
33.451
 20
21.501
 21
23.7
  0
LINE
  8
0
 10
33.451
 11
33.211
 20
23.7
 21
26
  0
LINE
  8
0
 10
33.844
 11
33.853
 20
25.283
 21
25.367
  0
LINE
  8
0
 10
33.853
 11
33.879
 20
25.367
 21
25.447
  0
LINE
  8
0
 10
33.879
 11
33.92
 20
25.447
 21
25.519
  0
LINE
  8
0
 10
33.92
 11
33.961
 20
25.519
 21
25.565
  0
LINE
  8
0
 10
33.961
 11
33.961
 20
25.565
 21
26.435
  0
LINE
  8
0
 10
33.961
 11
33.92
 20
26.435
 21
26.481
  0
LINE
  8
0
 10
33.92
 11
33.879
 20
26.481
 21
26.553
  0
LINE
  8
0
 10
33.879
 11
33.853
 20
26.553
 21
26.633
  0
LINE
  8
0
 10
33.853
 11
33.844
 20
26.633
 21
26.717
  0
LINE
  8
0
 10
33.844
 11
33.853
 20
26.717
 21
26.801
  0
LINE
  8
0
 10
33.853
 11
33.879
 20
26.801
 21
26.881
  0
LINE
  8
0
 10
33.879
 11
33.92
 20
26.881
 21
26.953
  0
LINE
  8
0
 10
33.92
 11
33.962
 20
26.953
 21
27
  0
LINE
  8
0
 10
33.962
 11
33.976
 20
27
 21
27.016
  0
LINE
  8
0
 10
33.976
 11
34.044
 20
27.016
 21
27.065
  0
LINE
  8
0
 10
34.044
 11
34.12
 20
27.065
 21
27.1
  0
LINE
  8
0
 10
34.12
 11
34.202
 20
27.1
 21
27.117
  0
LINE
  8
0
 10
34.202
 11
34.286
 20
27.117
 21
27.117
  0
LINE
  8
0
 10
34.286
 11
34.368
 20
27.117
 21
27.1
  0
LINE
  8
0
 10
34.368
 11
34.444
 20
27.1
 21
27.065
  0
LINE
  8
0
 10
34.444
 11
34.512
 20
27.065
 21
27.016
  0
LINE
  8
0
 10
34.512
 11
34.526
 20
27.016
 21
27
  0
LINE
  8
0
 10
34.526
 11
35.396
 20
27
 21
27
  0
LINE
  8
0
 10
35.396
 11
35.41
 20
27
 21
27.016
  0
LINE
  8
0
 10
35.41
 11
35.478
 20
27.016
 21
27.065
  0
LINE
  8
0
 10
35.478
 11
35.554
 20
27.065
 21
27.1
  0
LINE
  8
0
 10
35.554
 11
35.636
 20
27.1
 21
27.117
  0
LINE
  8
0
 10
35.636
 11
35.72
 20
27.117
 21
27.117
  0
LINE
  8
0
 10
35.72
 11
35.802
 20
27.117
 21
27.1
  0
LINE
  8
0
 10
35.802
 11
35.878
 20
27.1
 21
27.065
  0
LINE
  8
0
 10
35.878
 11
35.946
 20
27.065
 21
27.016
  0
LINE
  8
0
 10
35.946
 11
35.961
 20
27.016
 21
26.999
  0
LINE
  8
0
 10
35.961
 11
36.002
 20
26.999
 21
26.953
  0
LINE
  8
0
 10
36.002
 11
36.043
 20
26.953
 21
26.881
  0
LINE
  8
0
 10
36.043
 11
36.069
 20
26.881
 21
26.801
  0
LINE
  8
0
 10
36.069
 11
36.078
 20
26.801
 21
26.717
  0
LINE
  8
0
 10
36.078
 11
36.069
 20
26.717
 21
26.633
  0
LINE
  8
0
 10
36.069
 11
36.043
 20
26.633
 21
26.553
  0
LINE
  8
0
 10
36.043
 11
36.002
 20
26.553
 21
26.481
  0
LINE
  8
0
 10
36.002
 11
35.961
 20
26.481
 21
26.435
  0
LINE
  8
0
 10
35.961
 11
35.961
 20
26.435
 21
25.565
  0
LINE
  8
0
 10
35.961
 11
36.002
 20
25.565
 21
25.519
  0
LINE
  8
0
 10
36.002
 11
36.043
 20
25.519
 21
25.447
  0
LINE
  8
0
 10
36.043
 11
36.069
 20
25.447
 21
25.367
  0
LINE
  8
0
 10
36.069
 11
36.078
 20
25.367
 21
25.283
  0
LINE
  8
0
 10
36.078
 11
36.069
 20
25.283
 21
25.199
  0
LINE
  8
0
 10
36.069
 11
36.043
 20
25.199
 21
25.119
  0
LINE
  8
0
 10
36.043
 11
36.002
 20
25.119
 21
25.047
  0
LINE
  8
0
 10
36.002
 11
35.96
 20
25.047
 21
25
  0
LINE
  8
0
 10
35.96
 11
35.946
 20
25
 21
24.984
  0
LINE
  8
0
 10
35.946
 11
35.878
 20
24.984
 21
24.935
  0
LINE
  8
0
 10
35.878
 11
35.802
 20
24.935
 21
24.9
  0
LINE
  8
0
 10
35.802
 11
35.72
 20
24.9
 21
24.883
  0
LINE
  8
0
 10
35.72
 11
35.636
 20
24.883
 21
24.883
  0
LINE
  8
0
 10
35.636
 11
35.554
 20
24.883
 21
24.9
  0
LINE
  8
0
 10
35.554
 11
35.478
 20
24.9
 21
24.935
  0
LINE
  8
0
 10
35.478
 11
35.41
 20
24.935
 21
24.984
  0
LINE
  8
0
 10
35.41
 11
35.396
 20
24.984
 21
25
  0
LINE
  8
0
 10
35.396
 11
34.526
 20
25
 21
25
  0
LINE
  8
0
 10
34.526
 11
34.512
 20
25
 21
24.984
  0
LINE
  8
0
 10
34.512
 11
34.444
 20
24.984
 21
24.935
  0
LINE
  8
0
 10
34.444
 11
34.368
 20
24.935
 21
24.9
  0
LINE
  8
0
 10
34.368
 11
34.286
 20
24.9
 21
24.883
  0
LINE
  8
0
 10
34.286
 11
34.202
 20
24.883
 21
24.883
  0
LINE
  8
0
 10
34.202
 11
34.12
 20
24.883
 21
24.9
  0
LINE
  8
0
 10
34.12
 11
34.044
 20
24.9
 21
24.935
  0
LINE
  8
0
 10
34.044
 11
33.976
 20
24.935
 21
24.984
  0
LINE
  8
0
 10
33.976
 11
33.961
 20
24.984
 21
25.001
  0
LINE
  8
0
 10
33.961
 11
33.92
 20
25.001
 21
25.047
  0
LINE
  8
0
 10
33.92
 11
33.879
 20
25.047
 21
25.119
  0
LINE
  8
0
 10
33.879
 11
33.853
 20
25.119
 21
25.199
  0
LINE
  8
0
 10
33.853
 11
33.844
 20
25.199
 21
25.283
  0
LINE
  8
0
 10
35.35
 11
35.383
 20
30.25
 21
30.564
  0
LINE
  8
0
 10
35.383
 11
35.48
 20
30.564
 21
30.863
  0
LINE
  8
0
 10
35.48
 11
35.636
 20
30.863
 21
31.137
  0
LINE
  8
0
 10
35.636
 11
35.846
 20
31.137
 21
31.371
  0
LINE
  8
0
 10
35.846
 11
36.1
 20
31.371
 21
31.556
  0
LINE
  8
0
 10
36.1
 11
36.386
 20
31.556
 21
31.684
  0
LINE
  8
0
 10
36.386
 11
36.693
 20
31.684
 21
31.75
  0
LINE
  8
0
 10
36.693
 11
37.007
 20
31.75
 21
31.75
  0
LINE
  8
0
 10
37.007
 11
37.314
 20
31.75
 21
31.684
  0
LINE
  8
0
 10
37.314
 11
37.6
 20
31.684
 21
31.556
  0
LINE
  8
0
 10
37.6
 11
37.854
 20
31.556
 21
31.371
  0
LINE
  8
0
 10
37.854
 11
38.064
 20
31.371
 21
31.137
  0
LINE
  8
0
 10
38.064
 11
38.22
 20
31.137
 21
30.863
  0
LINE
  8
0
 10
38.22
 11
38.317
 20
30.863
 21
30.564
  0
LINE
  8
0
 10
38.317
 11
38.35
 20
30.564
 21
30.25
  0
LINE
  8
0
 10
38.35
 11
38.317
 20
30.25
 21
29.936
  0
LINE
  8
0
 10
38.317
 11
38.22
 20
29.936
 21
29.637
  0
LINE
  8
0
 10
38.22
 11
38.064
 20
29.637
 21
29.363
  0
LINE
  8
0
 10
38.064
 11
37.854
 20
29.363
 21
29.129
  0
LINE
  8
0
 10
37.854
 11
37.6
 20
29.129
 21
28.944
  0
LINE
  8
0
 10
37.6
 11
37.314
 20
28.944
 21
28.816
  0
LINE
  8
0
 10
37.314
 11
37.007
 20
28.816
 21
28.75
  0
LINE
  8
0
 10
37.007
 11
36.693
 20
28.75
 21
28.75
  0
LINE
  8
0
 10
36.693
 11
36.386
 20
28.75
 21
28.816
  0
LINE
  8
0
 10
36.386
 11
36.1
 20
28.816
 21
28.944
  0
LINE
  8
0
 10
36.1
 11
35.846
 20
28.944
 21
29.129
  0
LINE
  8
0
 10
35.846
 11
35.636
 20
29.129
 21
29.363
  0
LINE
  8
0
 10
35.636
 11
35.48
 20
29.363
 21
29.637
  0
LINE
  8
0
 10
35.48
 11
35.383
 20
29.637
 21
29.936
  0
LINE
  8
0
 10
35.383
 11
35.35
 20
29.936
 21
30.25
  0
LINE
  8
0
 10
35.761
 11
35.83
 20
72.64
 21
73.305
  0
LINE
  8
0
 10
35.83
 11
36.036
 20
73.305
 21
73.941
  0
LINE
  8
0
 10
36.036
 11
36.368
 20
73.941
 21
74.52
  0
LINE
  8
0
 10
36.368
 11
36.813
 20
74.52
 21
75.016
  0
LINE
  8
0
 10
36.813
 11
37.351
 20
75.016
 21
75.409
  0
LINE
  8
0
 10
37.351
 11
37.958
 20
75.409
 21
75.681
  0
LINE
  8
0
 10
37.958
 11
38.609
 20
75.681
 21
75.82
  0
LINE
  8
0
 10
38.609
 11
39.273
 20
75.82
 21
75.82
  0
LINE
  8
0
 10
39.273
 11
39.924
 20
75.82
 21
75.681
  0
LINE
  8
0
 10
39.924
 11
40.531
 20
75.681
 21
75.409
  0
LINE
  8
0
 10
40.531
 11
41.069
 20
75.409
 21
75.016
  0
LINE
  8
0
 10
41.069
 11
41.514
 20
75.016
 21
74.52
  0
LINE
  8
0
 10
41.514
 11
41.846
 20
74.52
 21
73.941
  0
LINE
  8
0
 10
41.846
 11
42.052
 20
73.941
 21
73.305
  0
LINE
  8
0
 10
42.052
 11
42.121
 20
73.305
 21
72.64
  0
LINE
  8
0
 10
42.121
 11
42.052
 20
72.64
 21
71.975
  0
LINE
  8
0
 10
42.052
 11
41.846
 20
71.975
 21
71.339
  0
LINE
  8
0
 10
41.846
 11
41.514
 20
71.339
 21
70.76
  0
LINE
  8
0
 10
41.514
 11
41.069
 20
70.76
 21
70.264
  0
LINE
  8
0
 10
41.069
 11
40.531
 20
70.264
 21
69.871
  0
LINE
  8
0
 10
40.531
 11
39.924
 20
69.871
 21
69.599
  0
LINE
  8
0
 10
39.924
 11
39.273
 20
69.599
 21
69.46
  0
LINE
  8
0
 10
39.273
 11
38.609
 20
69.46
 21
69.46
  0
LINE
  8
0
 10
38.609
 11
37.958
 20
69.46
 21
69.599
  0
LINE
  8
0
 10
37.958
 11
37.351
 20
69.599
 21
69.871
  0
LINE
  8
0
 10
37.351
 11
36.813
 20
69.871
 21
70.264
  0
LINE
  8
0
 10
36.813
 11
36.368
 20
70.264
 21
70.76
  0
LINE
  8
0
 10
36.368
 11
36.036
 20
70.76
 21
71.339
  0
LINE
  8
0
 10
36.036
 11
35.83
 20
71.339
 21
71.975
  0
LINE
  8
0
 10
35.83
 11
35.761
 20
71.975
 21
72.64
  0
LINE
  8
0
 10
35.761
 11
35.83
 20
88.64
 21
89.305
  0
LINE
  8
0
 10
35.83
 11
36.036
 20
89.305
 21
89.941
  0
LINE
  8
0
 10
36.036
 11
36.368
 20
89.941
 21
90.52
  0
LINE
  8
0
 10
36.368
 11
36.813
 20
90.52
 21
91.016
  0
LINE
  8
0
 10
36.813
 11
37.351
 20
91.016
 21
91.409
  0
LINE
  8
0
 10
37.351
 11
37.958
 20
91.409
 21
91.681
  0
LINE
  8
0
 10
37.958
 11
38.609
 20
91.681
 21
91.82
  0
LINE
  8
0
 10
38.609
 11
39.273
 20
91.82
 21
91.82
  0
LINE
  8
0
 10
39.273
 11
39.924
 20
91.82
 21
91.681
  0
LINE
  8
0
 10
39.924
 11
40.531
 20
91.681
 21
91.409
  0
LINE
  8
0
 10
40.531
 11
41.069
 20
91.409
 21
91.016
  0
LINE
  8
0
 10
41.069
 11
41.514
 20
91.016
 21
90.52
  0
LINE
  8
0
 10
41.514
 11
41.846
 20
90.52
 21
89.941
  0
LINE
  8
0
 10
41.846
 11
42.052
 20
89.941
 21
89.305
  0
LINE
  8
0
 10
42.052
 11
42.121
 20
89.305
 21
88.64
  0
LINE
  8
0
 10
42.121
 11
42.052
 20
88.64
 21
87.975
  0
LINE
  8
0
 10
42.052
 11
41.846
 20
87.975
 21
87.339
  0
LINE
  8
0
 10
41.846
 11
41.514
 20
87.339
 21
86.76
  0
LINE
  8
0
 10
41.514
 11
41.069
 20
86.76
 21
86.264
  0
LINE
  8
0
 10
41.069
 11
40.531
 20
86.264
 21
85.871
  0
LINE
  8
0
 10
40.531
 11
39.924
 20
85.871
 21
85.599
  0
LINE
  8
0
 10
39.924
 11
39.273
 20
85.599
 21
85.46
  0
LINE
  8
0
 10
39.273
 11
38.609
 20
85.46
 21
85.46
  0
LINE
  8
0
 10
38.609
 11
37.958
 20
85.46
 21
85.599
  0
LINE
  8
0
 10
37.958
 11
37.351
 20
85.599
 21
85.871
  0
LINE
  8
0
 10
37.351
 11
36.813
 20
85.871
 21
86.264
  0
LINE
  8
0
 10
36.813
 11
36.368
 20
86.264
 21
86.76
  0
LINE
  8
0
 10
36.368
 11
36.036
 20
86.76
 21
87.339
  0
LINE
  8
0
 10
36.036
 11
35.83
 20
87.339
 21
87.975
  0
LINE
  8
0
 10
35.83
 11
35.761
 20
87.975
 21
88.64
  0
LINE
  8
0
 10
38.572
 11
38.605
 20
50.25
 21
50.564
  0
LINE
  8
0
 10
38.605
 11
38.702
 20
50.564
 21
50.863
  0
LINE
  8
0
 10
38.702
 11
38.858
 20
50.863
 21
51.137
  0
LINE
  8
0
 10
38.858
 11
39.068
 20
51.137
 21
51.371
  0
LINE
  8
0
 10
39.068
 11
39.322
 20
51.371
 21
51.556
  0
LINE
  8
0
 10
39.322
 11
39.608
 20
51.556
 21
51.684
  0
LINE
  8
0
 10
39.608
 11
39.915
 20
51.684
 21
51.75
  0
LINE
  8
0
 10
39.915
 11
40.229
 20
51.75
 21
51.75
  0
LINE
  8
0
 10
40.229
 11
40.536
 20
51.75
 21
51.684
  0
LINE
  8
0
 10
40.536
 11
40.822
 20
51.684
 21
51.556
  0
LINE
  8
0
 10
40.822
 11
41.076
 20
51.556
 21
51.371
  0
LINE
  8
0
 10
41.076
 11
41.286
 20
51.371
 21
51.137
  0
LINE
  8
0
 10
41.286
 11
41.442
 20
51.137
 21
50.863
  0
LINE
  8
0
 10
41.442
 11
41.539
 20
50.863
 21
50.564
  0
LINE
  8
0
 10
41.539
 11
41.572
 20
50.564
 21
50.25
  0
LINE
  8
0
 10
41.572
 11
41.539
 20
50.25
 21
49.936
  0
LINE
  8
0
 10
41.539
 11
41.442
 20
49.936
 21
49.637
  0
LINE
  8
0
 10
41.442
 11
41.286
 20
49.637
 21
49.363
  0
LINE
  8
0
 10
41.286
 11
41.076
 20
49.363
 21
49.129
  0
LINE
  8
0
 10
41.076
 11
40.822
 20
49.129
 21
48.944
  0
LINE
  8
0
 10
40.822
 11
40.536
 20
48.944
 21
48.816
  0
LINE
  8
0
 10
40.536
 11
40.229
 20
48.816
 21
48.75
  0
LINE
  8
0
 10
40.229
 11
39.915
 20
48.75
 21
48.75
  0
LINE
  8
0
 10
39.915
 11
39.608
 20
48.75
 21
48.816
  0
LINE
  8
0
 10
39.608
 11
39.322
 20
48.816
 21
48.944
  0
LINE
  8
0
 10
39.322
 11
39.068
 20
48.944
 21
49.129
  0
LINE
  8
0
 10
39.068
 11
38.858
 20
49.129
 21
49.363
  0
LINE
  8
0
 10
38.858
 11
38.702
 20
49.363
 21
49.637
  0
LINE
  8
0
 10
38.702
 11
38.605
 20
49.637
 21
49.936
  0
LINE
  8
0
 10
38.605
 11
38.572
 20
49.936
 21
50.25
  0
LINE
  8
0
 10
40.844
 11
40.853
 20
45.283
 21
45.367
  0
LINE
  8
0
 10
40.853
 11
40.879
 20
45.367
 21
45.447
  0
LINE
  8
0
 10
40.879
 11
40.92
 20
45.447
 21
45.519
  0
LINE
  8
0
 10
40.92
 11
40.961
 20
45.519
 21
45.565
  0
LINE
  8
0
 10
40.961
 11
40.961
 20
45.565
 21
46.435
  0
LINE
  8
0
 10
40.961
 11
40.92
 20
46.435
 21
46.481
  0
LINE
  8
0
 10
40.92
 11
40.879
 20
46.481
 21
46.553
  0
LINE
  8
0
 10
40.879
 11
40.853
 20
46.553
 21
46.633
  0
LINE
  8
0
 10
40.853
 11
40.844
 20
46.633
 21
46.717
  0
LINE
  8
0
 10
40.844
 11
40.853
 20
46.717
 21
46.801
  0
LINE
  8
0
 10
40.853
 11
40.879
 20
46.801
 21
46.881
  0
LINE
  8
0
 10
40.879
 11
40.92
 20
46.881
 21
46.953
  0
LINE
  8
0
 10
40.92
 11
40.962
 20
46.953
 21
47
  0
LINE
  8
0
 10
40.962
 11
40.976
 20
47
 21
47.016
  0
LINE
  8
0
 10
40.976
 11
41.044
 20
47.016
 21
47.065
  0
LINE
  8
0
 10
41.044
 11
41.12
 20
47.065
 21
47.1
  0
LINE
  8
0
 10
41.12
 11
41.202
 20
47.1
 21
47.117
  0
LINE
  8
0
 10
41.202
 11
41.286
 20
47.117
 21
47.117
  0
LINE
  8
0
 10
41.286
 11
41.368
 20
47.117
 21
47.1
  0
LINE
  8
0
 10
41.368
 11
41.444
 20
47.1
 21
47.065
  0
LINE
  8
0
 10
41.444
 11
41.512
 20
47.065
 21
47.016
  0
LINE
  8
0
 10
41.512
 11
41.526
 20
47.016
 21
47
  0
LINE
  8
0
 10
41.526
 11
42.396
 20
47
 21
47
  0
LINE
  8
0
 10
42.396
 11
42.41
 20
47
 21
47.016
  0
LINE
  8
0
 10
42.41
 11
42.478
 20
47.016
 21
47.065
  0
LINE
  8
0
 10
42.478
 11
42.554
 20
47.065
 21
47.1
  0
LINE
  8
0
 10
42.554
 11
42.636
 20
47.1
 21
47.117
  0
LINE
  8
0
 10
42.636
 11
42.72
 20
47.117
 21
47.117
  0
LINE
  8
0
 10
42.72
 11
42.802
 20
47.117
 21
47.1
  0
LINE
  8
0
 10
42.802
 11
42.878
 20
47.1
 21
47.065
  0
LINE
  8
0
 10
42.878
 11
42.946
 20
47.065
 21
47.016
  0
LINE
  8
0
 10
42.946
 11
42.961
 20
47.016
 21
46.999
  0
LINE
  8
0
 10
42.961
 11
43.002
 20
46.999
 21
46.953
  0
LINE
  8
0
 10
43.002
 11
43.043
 20
46.953
 21
46.881
  0
LINE
  8
0
 10
43.043
 11
43.069
 20
46.881
 21
46.801
  0
LINE
  8
0
 10
43.069
 11
43.078
 20
46.801
 21
46.717
  0
LINE
  8
0
 10
43.078
 11
43.069
 20
46.717
 21
46.633
  0
LINE
  8
0
 10
43.069
 11
43.043
 20
46.633
 21
46.553
  0
LINE
  8
0
 10
43.043
 11
43.002
 20
46.553
 21
46.481
  0
LINE
  8
0
 10
43.002
 11
42.961
 20
46.481
 21
46.435
  0
LINE
  8
0
 10
42.961
 11
42.961
 20
46.435
 21
45.565
  0
LINE
  8
0
 10
42.961
 11
43.002
 20
45.565
 21
45.519
  0
LINE
  8
0
 10
43.002
 11
43.043
 20
45.519
 21
45.447
  0
LINE
  8
0
 10
43.043
 11
43.069
 20
45.447
 21
45.367
  0
LINE
  8
0
 10
43.069
 11
43.078
 20
45.367
 21
45.283
  0
LINE
  8
0
 10
43.078
 11
43.069
 20
45.283
 21
45.199
  0
LINE
  8
0
 10
43.069
 11
43.043
 20
45.199
 21
45.119
  0
LINE
  8
0
 10
43.043
 11
43.002
 20
45.119
 21
45.047
  0
LINE
  8
0
 10
43.002
 11
42.96
 20
45.047
 21
45
  0
LINE
  8
0
 10
42.96
 11
42.946
 20
45
 21
44.984
  0
LINE
  8
0
 10
42.946
 11
42.878
 20
44.984
 21
44.935
  0
LINE
  8
0
 10
42.878
 11
42.802
 20
44.935
 21
44.9
  0
LINE
  8
0
 10
42.802
 11
42.72
 20
44.9
 21
44.883
  0
LINE
  8
0
 10
42.72
 11
42.636
 20
44.883
 21
44.883
  0
LINE
  8
0
 10
42.636
 11
42.554
 20
44.883
 21
44.9
  0
LINE
  8
0
 10
42.554
 11
42.478
 20
44.9
 21
44.935
  0
LINE
  8
0
 10
42.478
 11
42.41
 20
44.935
 21
44.984
  0
LINE
  8
0
 10
42.41
 11
42.396
 20
44.984
 21
45
  0
LINE
  8
0
 10
42.396
 11
41.526
 20
45
 21
45
  0
LINE
  8
0
 10
41.526
 11
41.512
 20
45
 21
44.984
  0
LINE
  8
0
 10
41.512
 11
41.444
 20
44.984
 21
44.935
  0
LINE
  8
0
 10
41.444
 11
41.368
 20
44.935
 21
44.9
  0
LINE
  8
0
 10
41.368
 11
41.286
 20
44.9
 21
44.883
  0
LINE
  8
0
 10
41.286
 11
41.202
 20
44.883
 21
44.883
  0
LINE
  8
0
 10
41.202
 11
41.12
 20
44.883
 21
44.9
  0
LINE
  8
0
 10
41.12
 11
41.044
 20
44.9
 21
44.935
  0
LINE
  8
0
 10
41.044
 11
40.976
 20
44.935
 21
44.984
  0
LINE
  8
0
 10
40.976
 11
40.961
 20
44.984
 21
45.001
  0
LINE
  8
0
 10
40.961
 11
40.92
 20
45.001
 21
45.047
  0
LINE
  8
0
 10
40.92
 11
40.879
 20
45.047
 21
45.119
  0
LINE
  8
0
 10
40.879
 11
40.853
 20
45.119
 21
45.199
  0
LINE
  8
0
 10
40.853
 11
40.844
 20
45.199
 21
45.283
  0
LINE
  8
0
 10
42.711
 11
42.744
 20
17.5
 21
17.814
  0
LINE
  8
0
 10
42.744
 11
42.841
 20
17.814
 21
18.113
  0
LINE
  8
0
 10
42.841
 11
42.997
 20
18.113
 21
18.387
  0
LINE
  8
0
 10
42.997
 11
43.207
 20
18.387
 21
18.621
  0
LINE
  8
0
 10
43.207
 11
43.461
 20
18.621
 21
18.806
  0
LINE
  8
0
 10
43.461
 11
43.747
 20
18.806
 21
18.934
  0
LINE
  8
0
 10
43.747
 11
44.054
 20
18.934
 21
19
  0
LINE
  8
0
 10
44.054
 11
44.368
 20
19
 21
19
  0
LINE
  8
0
 10
44.368
 11
44.675
 20
19
 21
18.934
  0
LINE
  8
0
 10
44.675
 11
44.961
 20
18.934
 21
18.806
  0
LINE
  8
0
 10
44.961
 11
45.215
 20
18.806
 21
18.621
  0
LINE
  8
0
 10
45.215
 11
45.425
 20
18.621
 21
18.387
  0
LINE
  8
0
 10
45.425
 11
45.581
 20
18.387
 21
18.113
  0
LINE
  8
0
 10
45.581
 11
45.678
 20
18.113
 21
17.814
  0
LINE
  8
0
 10
45.678
 11
45.711
 20
17.814
 21
17.5
  0
LINE
  8
0
 10
45.711
 11
45.678
 20
17.5
 21
17.186
  0
LINE
  8
0
 10
45.678
 11
45.581
 20
17.186
 21
16.887
  0
LINE
  8
0
 10
45.581
 11
45.425
 20
16.887
 21
16.613
  0
LINE
  8
0
 10
45.425
 11
45.215
 20
16.613
 21
16.379
  0
LINE
  8
0
 10
45.215
 11
44.961
 20
16.379
 21
16.194
  0
LINE
  8
0
 10
44.961
 11
44.675
 20
16.194
 21
16.066
  0
LINE
  8
0
 10
44.675
 11
44.368
 20
16.066
 21
16
  0
LINE
  8
0
 10
44.368
 11
44.054
 20
16
 21
16
  0
LINE
  8
0
 10
44.054
 11
43.747
 20
16
 21
16.066
  0
LINE
  8
0
 10
43.747
 11
43.461
 20
16.066
 21
16.194
  0
LINE
  8
0
 10
43.461
 11
43.207
 20
16.194
 21
16.379
  0
LINE
  8
0
 10
43.207
 11
42.997
 20
16.379
 21
16.613
  0
LINE
  8
0
 10
42.997
 11
42.841
 20
16.613
 21
16.887
  0
LINE
  8
0
 10
42.841
 11
42.744
 20
16.887
 21
17.186
  0
LINE
  8
0
 10
42.744
 11
42.711
 20
17.186
 21
17.5
  0
LINE
  8
0
 10
42.711
 11
42.744
 20
26
 21
26.314
  0
LINE
  8
0
 10
42.744
 11
42.841
 20
26.314
 21
26.613
  0
LINE
  8
0
 10
42.841
 11
42.997
 20
26.613
 21
26.887
  0
LINE
  8
0
 10
42.997
 11
43.207
 20
26.887
 21
27.121
  0
LINE
  8
0
 10
43.207
 11
43.461
 20
27.121
 21
27.306
  0
LINE
  8
0
 10
43.461
 11
43.747
 20
27.306
 21
27.434
  0
LINE
  8
0
 10
43.747
 11
44.054
 20
27.434
 21
27.5
  0
LINE
  8
0
 10
44.054
 11
44.368
 20
27.5
 21
27.5
  0
LINE
  8
0
 10
44.368
 11
44.675
 20
27.5
 21
27.434
  0
LINE
  8
0
 10
44.675
 11
44.961
 20
27.434
 21
27.306
  0
LINE
  8
0
 10
44.961
 11
45.215
 20
27.306
 21
27.121
  0
LINE
  8
0
 10
45.215
 11
45.425
 20
27.121
 21
26.887
  0
LINE
  8
0
 10
45.425
 11
45.581
 20
26.887
 21
26.613
  0
LINE
  8
0
 10
45.581
 11
45.678
 20
26.613
 21
26.314
  0
LINE
  8
0
 10
45.678
 11
45.711
 20
26.314
 21
26
  0
LINE
  8
0
 10
45.711
 11
45.678
 20
26
 21
25.686
  0
LINE
  8
0
 10
45.678
 11
45.581
 20
25.686
 21
25.387
  0
LINE
  8
0
 10
45.581
 11
45.425
 20
25.387
 21
25.113
  0
LINE
  8
0
 10
45.425
 11
45.215
 20
25.113
 21
24.879
  0
LINE
  8
0
 10
45.215
 11
44.961
 20
24.879
 21
24.694
  0
LINE
  8
0
 10
44.961
 11
44.675
 20
24.694
 21
24.566
  0
LINE
  8
0
 10
44.675
 11
44.368
 20
24.566
 21
24.5
  0
LINE
  8
0
 10
44.368
 11
44.054
 20
24.5
 21
24.5
  0
LINE
  8
0
 10
44.054
 11
43.747
 20
24.5
 21
24.566
  0
LINE
  8
0
 10
43.747
 11
43.461
 20
24.566
 21
24.694
  0
LINE
  8
0
 10
43.461
 11
43.207
 20
24.694
 21
24.879
  0
LINE
  8
0
 10
43.207
 11
42.997
 20
24.879
 21
25.113
  0
LINE
  8
0
 10
42.997
 11
42.841
 20
25.113
 21
25.387
  0
LINE
  8
0
 10
42.841
 11
42.744
 20
25.387
 21
25.686
  0
LINE
  8
0
 10
42.744
 11
42.711
 20
25.686
 21
26
  0
LINE
  8
0
 10
50.072
 11
50.105
 20
30.25
 21
30.564
  0
LINE
  8
0
 10
50.105
 11
50.202
 20
30.564
 21
30.863
  0
LINE
  8
0
 10
50.202
 11
50.358
 20
30.863
 21
31.137
  0
LINE
  8
0
 10
50.358
 11
50.568
 20
31.137
 21
31.371
  0
LINE
  8
0
 10
50.568
 11
50.822
 20
31.371
 21
31.556
  0
LINE
  8
0
 10
50.822
 11
51.108
 20
31.556
 21
31.684
  0
LINE
  8
0
 10
51.108
 11
51.415
 20
31.684
 21
31.75
  0
LINE
  8
0
 10
51.415
 11
51.729
 20
31.75
 21
31.75
  0
LINE
  8
0
 10
51.729
 11
52.036
 20
31.75
 21
31.684
  0
LINE
  8
0
 10
52.036
 11
52.322
 20
31.684
 21
31.556
  0
LINE
  8
0
 10
52.322
 11
52.576
 20
31.556
 21
31.371
  0
LINE
  8
0
 10
52.576
 11
52.786
 20
31.371
 21
31.137
  0
LINE
  8
0
 10
52.786
 11
52.942
 20
31.137
 21
30.863
  0
LINE
  8
0
 10
52.942
 11
53.039
 20
30.863
 21
30.564
  0
LINE
  8
0
 10
53.039
 11
53.072
 20
30.564
 21
30.25
  0
LINE
  8
0
 10
53.072
 11
53.039
 20
30.25
 21
29.936
  0
LINE
  8
0
 10
53.039
 11
52.942
 20
29.936
 21
29.637
  0
LINE
  8
0
 10
52.942
 11
52.786
 20
29.637
 21
29.363
  0
LINE
  8
0
 10
52.786
 11
52.576
 20
29.363
 21
29.129
  0
LINE
  8
0
 10
52.576
 11
52.322
 20
29.129
 21
28.944
  0
LINE
  8
0
 10
52.322
 11
52.036
 20
28.944
 21
28.816
  0
LINE
  8
0
 10
52.036
 11
51.729
 20
28.816
 21
28.75
  0
LINE
  8
0
 10
51.729
 11
51.415
 20
28.75
 21
28.75
  0
LINE
  8
0
 10
51.415
 11
51.108
 20
28.75
 21
28.816
  0
LINE
  8
0
 10
51.108
 11
50.822
 20
28.816
 21
28.944
  0
LINE
  8
0
 10
50.822
 11
50.568
 20
28.944
 21
29.129
  0
LINE
  8
0
 10
50.568
 11
50.358
 20
29.129
 21
29.363
  0
LINE
  8
0
 10
50.358
 11
50.202
 20
29.363
 21
29.637
  0
LINE
  8
0
 10
50.202
 11
50.105
 20
29.637
 21
29.936
  0
LINE
  8
0
 10
50.105
 11
50.072
 20
29.936
 21
30.25
  0
LINE
  8
0
 10
52.344
 11
52.353
 20
25.283
 21
25.367
  0
LINE
  8
0
 10
52.353
 11
52.379
 20
25.367
 21
25.447
  0
LINE
  8
0
 10
52.379
 11
52.42
 20
25.447
 21
25.519
  0
LINE
  8
0
 10
52.42
 11
52.461
 20
25.519
 21
25.565
  0
LINE
  8
0
 10
52.461
 11
52.461
 20
25.565
 21
26.435
  0
LINE
  8
0
 10
52.461
 11
52.42
 20
26.435
 21
26.481
  0
LINE
  8
0
 10
52.42
 11
52.379
 20
26.481
 21
26.553
  0
LINE
  8
0
 10
52.379
 11
52.353
 20
26.553
 21
26.633
  0
LINE
  8
0
 10
52.353
 11
52.344
 20
26.633
 21
26.717
  0
LINE
  8
0
 10
52.344
 11
52.353
 20
26.717
 21
26.801
  0
LINE
  8
0
 10
52.353
 11
52.379
 20
26.801
 21
26.881
  0
LINE
  8
0
 10
52.379
 11
52.42
 20
26.881
 21
26.953
  0
LINE
  8
0
 10
52.42
 11
52.462
 20
26.953
 21
27
  0
LINE
  8
0
 10
52.462
 11
52.476
 20
27
 21
27.016
  0
LINE
  8
0
 10
52.476
 11
52.544
 20
27.016
 21
27.065
  0
LINE
  8
0
 10
52.544
 11
52.62
 20
27.065
 21
27.1
  0
LINE
  8
0
 10
52.62
 11
52.702
 20
27.1
 21
27.117
  0
LINE
  8
0
 10
52.702
 11
52.786
 20
27.117
 21
27.117
  0
LINE
  8
0
 10
52.786
 11
52.868
 20
27.117
 21
27.1
  0
LINE
  8
0
 10
52.868
 11
52.944
 20
27.1
 21
27.065
  0
LINE
  8
0
 10
52.944
 11
53.012
 20
27.065
 21
27.016
  0
LINE
  8
0
 10
53.012
 11
53.026
 20
27.016
 21
27
  0
LINE
  8
0
 10
53.026
 11
53.896
 20
27
 21
27
  0
LINE
  8
0
 10
53.896
 11
53.91
 20
27
 21
27.016
  0
LINE
  8
0
 10
53.91
 11
53.978
 20
27.016
 21
27.065
  0
LINE
  8
0
 10
53.978
 11
54.054
 20
27.065
 21
27.1
  0
LINE
  8
0
 10
54.054
 11
54.136
 20
27.1
 21
27.117
  0
LINE
  8
0
 10
54.136
 11
54.22
 20
27.117
 21
27.117
  0
LINE
  8
0
 10
54.22
 11
54.302
 20
27.117
 21
27.1
  0
LINE
  8
0
 10
54.302
 11
54.378
 20
27.1
 21
27.065
  0
LINE
  8
0
 10
54.378
 11
54.446
 20
27.065
 21
27.016
  0
LINE
  8
0
 10
54.446
 11
54.461
 20
27.016
 21
26.999
  0
LINE
  8
0
 10
54.461
 11
54.502
 20
26.999
 21
26.953
  0
LINE
  8
0
 10
54.502
 11
54.543
 20
26.953
 21
26.881
  0
LINE
  8
0
 10
54.543
 11
54.569
 20
26.881
 21
26.801
  0
LINE
  8
0
 10
54.569
 11
54.578
 20
26.801
 21
26.717
  0
LINE
  8
0
 10
54.578
 11
54.569
 20
26.717
 21
26.633
  0
LINE
  8
0
 10
54.569
 11
54.543
 20
26.633
 21
26.553
  0
LINE
  8
0
 10
54.543
 11
54.502
 20
26.553
 21
26.481
  0
LINE
  8
0
 10
54.502
 11
54.461
 20
26.481
 21
26.435
  0
LINE
  8
0
 10
54.461
 11
54.461
 20
26.435
 21
25.565
  0
LINE
  8
0
 10
54.461
 11
54.502
 20
25.565
 21
25.519
  0
LINE
  8
0
 10
54.502
 11
54.543
 20
25.519
 21
25.447
  0
LINE
  8
0
 10
54.543
 11
54.569
 20
25.447
 21
25.367
  0
LINE
  8
0
 10
54.569
 11
54.578
 20
25.367
 21
25.283
  0
LINE
  8
0
 10
54.578
 11
54.569
 20
25.283
 21
25.199
  0
LINE
  8
0
 10
54.569
 11
54.543
 20
25.199
 21
25.119
  0
LINE
  8
0
 10
54.543
 11
54.502
 20
25.119
 21
25.047
  0
LINE
  8
0
 10
54.502
 11
54.46
 20
25.047
 21
25
  0
LINE
  8
0
 10
54.46
 11
54.446
 20
25
 21
24.984
  0
LINE
  8
0
 10
54.446
 11
54.378
 20
24.984
 21
24.935
  0
LINE
  8
0
 10
54.378
 11
54.302
 20
24.935
 21
24.9
  0
LINE
  8
0
 10
54.302
 11
54.22
 20
24.9
 21
24.883
  0
LINE
  8
0
 10
54.22
 11
54.136
 20
24.883
 21
24.883
  0
LINE
  8
0
 10
54.136
 11
54.054
 20
24.883
 21
24.9
  0
LINE
  8
0
 10
54.054
 11
53.978
 20
24.9
 21
24.935
  0
LINE
  8
0
 10
53.978
 11
53.91
 20
24.935
 21
24.984
  0
LINE
  8
0
 10
53.91
 11
53.896
 20
24.984
 21
25
  0
LINE
  8
0
 10
53.896
 11
53.026
 20
25
 21
25
  0
LINE
  8
0
 10
53.026
 11
53.012
 20
25
 21
24.984
  0
LINE
  8
0
 10
53.012
 11
52.944
 20
24.984
 21
24.935
  0
LINE
  8
0
 10
52.944
 11
52.868
 20
24.935
 21
24.9
  0
LINE
  8
0
 10
52.868
 11
52.786
 20
24.9
 21
24.883
  0
LINE
  8
0
 10
52.786
 11
52.702
 20
24.883
 21
24.883
  0
LINE
  8
0
 10
52.702
 11
52.62
 20
24.883
 21
24.9
  0
LINE
  8
0
 10
52.62
 11
52.544
 20
24.9
 21
24.935
  0
LINE
  8
0
 10
52.544
 11
52.476
 20
24.935
 21
24.984
  0
LINE
  8
0
 10
52.476
 11
52.461
 20
24.984
 21
25.001
  0
LINE
  8
0
 10
52.461
 11
52.42
 20
25.001
 21
25.047
  0
LINE
  8
0
 10
52.42
 11
52.379
 20
25.047
 21
25.119
  0
LINE
  8
0
 10
52.379
 11
52.353
 20
25.119
 21
25.199
  0
LINE
  8
0
 10
52.353
 11
52.344
 20
25.199
 21
25.283
  0
LINE
  8
0
 10
61.711
 11
61.951
 20
52
 21
54.3
  0
LINE
  8
0
 10
61.951
 11
62.662
 20
54.3
 21
56.499
  0
LINE
  8
0
 10
62.662
 11
63.812
 20
56.499
 21
58.501
  0
LINE
  8
0
 10
63.812
 11
65.351
 20
58.501
 21
60.22
  0
LINE
  8
0
 10
65.351
 11
67.211
 20
60.22
 21
61.579
  0
LINE
  8
0
 10
67.211
 11
69.312
 20
61.579
 21
62.519
  0
LINE
  8
0
 10
69.312
 11
71.561
 20
62.519
 21
63
  0
LINE
  8
0
 10
71.561
 11
73.861
 20
63
 21
63
  0
LINE
  8
0
 10
73.861
 11
76.11
 20
63
 21
62.519
  0
LINE
  8
0
 10
76.11
 11
78.211
 20
62.519
 21
61.579
  0
LINE
  8
0
 10
78.211
 11
80.071
 20
61.579
 21
60.22
  0
LINE
  8
0
 10
80.071
 11
81.61
 20
60.22
 21
58.501
  0
LINE
  8
0
 10
81.61
 11
82.76
 20
58.501
 21
56.499
  0
LINE
  8
0
 10
82.76
 11
83.471
 20
56.499
 21
54.3
  0
LINE
  8
0
 10
83.471
 11
83.711
 20
54.3
 21
52
  0
LINE
  8
0
 10
83.711
 11
83.471
 20
52
 21
49.7
  0
LINE
  8
0
 10
83.471
 11
82.76
 20
49.7
 21
47.501
  0
LINE
  8
0
 10
82.76
 11
81.61
 20
47.501
 21
45.499
  0
LINE
  8
0
 10
81.61
 11
80.071
 20
45.499
 21
43.78
  0
LINE
  8
0
 10
80.071
 11
78.211
 20
43.78
 21
42.421
  0
LINE
  8
0
 10
78.211
 11
76.11
 20
42.421
 21
41.481
  0
LINE
  8
0
 10
76.11
 11
73.861
 20
41.481
 21
41
  0
LINE
  8
0
 10
73.861
 11
71.561
 20
41
 21
41
  0
LINE
  8
0
 10
71.561
 11
69.312
 20
41
 21
41.481
  0
LINE
  8
0
 10
69.312
 11
67.211
 20
41.481
 21
42.421
  0
LINE
  8
0
 10
67.211
 11
65.351
 20
42.421
 21
43.78
  0
LINE
  8
0
 10
65.351
 11
63.812
 20
43.78
 21
45.499
  0
LINE
  8
0
 10
63.812
 11
62.662
 20
45.499
 21
47.501
  0
LINE
  8
0
 10
62.662
 11
61.951
 20
47.501
 21
49.7
  0
LINE
  8
0
 10
61.951
 11
61.711
 20
49.7
 21
52
  0
LINE
  8
0
 10
62.344
 11
62.353
 20
51.283
 21
51.367
  0
LINE
  8
0
 10
62.353
 11
62.379
 20
51.367
 21
51.447
  0
LINE
  8
0
 10
62.379
 11
62.42
 20
51.447
 21
51.519
  0
LINE
  8
0
 10
62.42
 11
62.461
 20
51.519
 21
51.565
  0
LINE
  8
0
 10
62.461
 11
62.461
 20
51.565
 21
52.435
  0
LINE
  8
0
 10
62.461
 11
62.42
 20
52.435
 21
52.481
  0
LINE
  8
0
 10
62.42
 11
62.379
 20
52.481
 21
52.553
  0
LINE
  8
0
 10
62.379
 11
62.353
 20
52.553
 21
52.633
  0
LINE
  8
0
 10
62.353
 11
62.344
 20
52.633
 21
52.717
  0
LINE
  8
0
 10
62.344
 11
62.353
 20
52.717
 21
52.801
  0
LINE
  8
0
 10
62.353
 11
62.379
 20
52.801
 21
52.881
  0
LINE
  8
0
 10
62.379
 11
62.42
 20
52.881
 21
52.953
  0
LINE
  8
0
 10
62.42
 11
62.462
 20
52.953
 21
53
  0
LINE
  8
0
 10
62.462
 11
62.476
 20
53
 21
53.016
  0
LINE
  8
0
 10
62.476
 11
62.544
 20
53.016
 21
53.065
  0
LINE
  8
0
 10
62.544
 11
62.62
 20
53.065
 21
53.1
  0
LINE
  8
0
 10
62.62
 11
62.702
 20
53.1
 21
53.117
  0
LINE
  8
0
 10
62.702
 11
62.786
 20
53.117
 21
53.117
  0
LINE
  8
0
 10
62.786
 11
62.868
 20
53.117
 21
53.1
  0
LINE
  8
0
 10
62.868
 11
62.944
 20
53.1
 21
53.065
  0
LINE
  8
0
 10
62.944
 11
63.012
 20
53.065
 21
53.016
  0
LINE
  8
0
 10
63.012
 11
63.026
 20
53.016
 21
53
  0
LINE
  8
0
 10
63.026
 11
63.896
 20
53
 21
53
  0
LINE
  8
0
 10
63.896
 11
63.91
 20
53
 21
53.016
  0
LINE
  8
0
 10
63.91
 11
63.978
 20
53.016
 21
53.065
  0
LINE
  8
0
 10
63.978
 11
64.054
 20
53.065
 21
53.1
  0
LINE
  8
0
 10
64.054
 11
64.136
 20
53.1
 21
53.117
  0
LINE
  8
0
 10
64.136
 11
64.22
 20
53.117
 21
53.117
  0
LINE
  8
0
 10
64.22
 11
64.302
 20
53.117
 21
53.1
  0
LINE
  8
0
 10
64.302
 11
64.378
 20
53.1
 21
53.065
  0
LINE
  8
0
 10
64.378
 11
64.446
 20
53.065
 21
53.016
  0
LINE
  8
0
 10
64.446
 11
64.461
 20
53.016
 21
52.999
  0
LINE
  8
0
 10
64.461
 11
64.502
 20
52.999
 21
52.953
  0
LINE
  8
0
 10
64.502
 11
64.543
 20
52.953
 21
52.881
  0
LINE
  8
0
 10
64.543
 11
64.569
 20
52.881
 21
52.801
  0
LINE
  8
0
 10
64.569
 11
64.578
 20
52.801
 21
52.717
  0
LINE
  8
0
 10
64.578
 11
64.569
 20
52.717
 21
52.633
  0
LINE
  8
0
 10
64.569
 11
64.543
 20
52.633
 21
52.553
  0
LINE
  8
0
 10
64.543
 11
64.502
 20
52.553
 21
52.481
  0
LINE
  8
0
 10
64.502
 11
64.461
 20
52.481
 21
52.435
  0
LINE
  8
0
 10
64.461
 11
64.461
 20
52.435
 21
51.565
  0
LINE
  8
0
 10
64.461
 11
64.502
 20
51.565
 21
51.519
  0
LINE
  8
0
 10
64.502
 11
64.543
 20
51.519
 21
51.447
  0
LINE
  8
0
 10
64.543
 11
64.569
 20
51.447
 21
51.367
  0
LINE
  8
0
 10
64.569
 11
64.578
 20
51.367
 21
51.283
  0
LINE
  8
0
 10
64.578
 11
64.569
 20
51.283
 21
51.199
  0
LINE
  8
0
 10
64.569
 11
64.543
 20
51.199
 21
51.119
  0
LINE
  8
0
 10
64.543
 11
64.502
 20
51.119
 21
51.047
  0
LINE
  8
0
 10
64.502
 11
64.46
 20
51.047
 21
51
  0
LINE
  8
0
 10
64.46
 11
64.446
 20
51
 21
50.984
  0
LINE
  8
0
 10
64.446
 11
64.378
 20
50.984
 21
50.935
  0
LINE
  8
0
 10
64.378
 11
64.302
 20
50.935
 21
50.9
  0
LINE
  8
0
 10
64.302
 11
64.22
 20
50.9
 21
50.883
  0
LINE
  8
0
 10
64.22
 11
64.136
 20
50.883
 21
50.883
  0
LINE
  8
0
 10
64.136
 11
64.054
 20
50.883
 21
50.9
  0
LINE
  8
0
 10
64.054
 11
63.978
 20
50.9
 21
50.935
  0
LINE
  8
0
 10
63.978
 11
63.91
 20
50.935
 21
50.984
  0
LINE
  8
0
 10
63.91
 11
63.896
 20
50.984
 21
51
  0
LINE
  8
0
 10
63.896
 11
63.026
 20
51
 21
51
  0
LINE
  8
0
 10
63.026
 11
63.012
 20
51
 21
50.984
  0
LINE
  8
0
 10
63.012
 11
62.944
 20
50.984
 21
50.935
  0
LINE
  8
0
 10
62.944
 11
62.868
 20
50.935
 21
50.9
  0
LINE
  8
0
 10
62.868
 11
62.786
 20
50.9
 21
50.883
  0
LINE
  8
0
 10
62.786
 11
62.702
 20
50.883
 21
50.883
  0
LINE
  8
0
 10
62.702
 11
62.62
 20
50.883
 21
50.9
  0
LINE
  8
0
 10
62.62
 11
62.544
 20
50.9
 21
50.935
  0
LINE
  8
0
 10
62.544
 11
62.476
 20
50.935
 21
50.984
  0
LINE
  8
0
 10
62.476
 11
62.461
 20
50.984
 21
51.001
  0
LINE
  8
0
 10
62.461
 11
62.42
 20
51.001
 21
51.047
  0
LINE
  8
0
 10
62.42
 11
62.379
 20
51.047
 21
51.119
  0
LINE
  8
0
 10
62.379
 11
62.353
 20
51.119
 21
51.199
  0
LINE
  8
0
 10
62.353
 11
62.344
 20
51.199
 21
51.283
  0
LINE
  8
0
 10
63.85
 11
63.883
 20
56.25
 21
56.564
  0
LINE
  8
0
 10
63.883
 11
63.98
 20
56.564
 21
56.863
  0
LINE
  8
0
 10
63.98
 11
64.136
 20
56.863
 21
57.137
  0
LINE
  8
0
 10
64.136
 11
64.346
 20
57.137
 21
57.371
  0
LINE
  8
0
 10
64.346
 11
64.6
 20
57.371
 21
57.556
  0
LINE
  8
0
 10
64.6
 11
64.886
 20
57.556
 21
57.684
  0
LINE
  8
0
 10
64.886
 11
65.193
 20
57.684
 21
57.75
  0
LINE
  8
0
 10
65.193
 11
65.507
 20
57.75
 21
57.75
  0
LINE
  8
0
 10
65.507
 11
65.814
 20
57.75
 21
57.684
  0
LINE
  8
0
 10
65.814
 11
66.1
 20
57.684
 21
57.556
  0
LINE
  8
0
 10
66.1
 11
66.354
 20
57.556
 21
57.371
  0
LINE
  8
0
 10
66.354
 11
66.564
 20
57.371
 21
57.137
  0
LINE
  8
0
 10
66.564
 11
66.72
 20
57.137
 21
56.863
  0
LINE
  8
0
 10
66.72
 11
66.817
 20
56.863
 21
56.564
  0
LINE
  8
0
 10
66.817
 11
66.85
 20
56.564
 21
56.25
  0
LINE
  8
0
 10
66.85
 11
66.817
 20
56.25
 21
55.936
  0
LINE
  8
0
 10
66.817
 11
66.72
 20
55.936
 21
55.637
  0
LINE
  8
0
 10
66.72
 11
66.564
 20
55.637
 21
55.363
  0
LINE
  8
0
 10
66.564
 11
66.354
 20
55.363
 21
55.129
  0
LINE
  8
0
 10
66.354
 11
66.1
 20
55.129
 21
54.944
  0
LINE
  8
0
 10
66.1
 11
65.814
 20
54.944
 21
54.816
  0
LINE
  8
0
 10
65.814
 11
65.507
 20
54.816
 21
54.75
  0
LINE
  8
0
 10
65.507
 11
65.193
 20
54.75
 21
54.75
  0
LINE
  8
0
 10
65.193
 11
64.886
 20
54.75
 21
54.816
  0
LINE
  8
0
 10
64.886
 11
64.6
 20
54.816
 21
54.944
  0
LINE
  8
0
 10
64.6
 11
64.346
 20
54.944
 21
55.129
  0
LINE
  8
0
 10
64.346
 11
64.136
 20
55.129
 21
55.363
  0
LINE
  8
0
 10
64.136
 11
63.98
 20
55.363
 21
55.637
  0
LINE
  8
0
 10
63.98
 11
63.883
 20
55.637
 21
55.936
  0
LINE
  8
0
 10
63.883
 11
63.85
 20
55.936
 21
56.25
  0
LINE
  8
0
 10
71.211
 11
71.244
 20
43.5
 21
43.814
  0
LINE
  8
0
 10
71.244
 11
71.341
 20
43.814
 21
44.113
  0
LINE
  8
0
 10
71.341
 11
71.497
 20
44.113
 21
44.387
  0
LINE
  8
0
 10
71.497
 11
71.707
 20
44.387
 21
44.621
  0
LINE
  8
0
 10
71.707
 11
71.961
 20
44.621
 21
44.806
  0
LINE
  8
0
 10
71.961
 11
72.247
 20
44.806
 21
44.934
  0
LINE
  8
0
 10
72.247
 11
72.554
 20
44.934
 21
45
  0
LINE
  8
0
 10
72.554
 11
72.868
 20
45
 21
45
  0
LINE
  8
0
 10
72.868
 11
73.175
 20
45
 21
44.934
  0
LINE
  8
0
 10
73.175
 11
73.461
 20
44.934
 21
44.806
  0
LINE
  8
0
 10
73.461
 11
73.715
 20
44.806
 21
44.621
  0
LINE
  8
0
 10
73.715
 11
73.925
 20
44.621
 21
44.387
  0
LINE
  8
0
 10
73.925
 11
74.081
 20
44.387
 21
44.113
  0
LINE
  8
0
 10
74.081
 11
74.178
 20
44.113
 21
43.814
  0
LINE
  8
0
 10
74.178
 11
74.211
 20
43.814
 21
43.5
  0
LINE
  8
0
 10
74.211
 11
74.178
 20
43.5
 21
43.186
  0
LINE
  8
0
 10
74.178
 11
74.081
 20
43.186
 21
42.887
  0
LINE
  8
0
 10
74.081
 11
73.925
 20
42.887
 21
42.613
  0
LINE
  8
0
 10
73.925
 11
73.715
 20
42.613
 21
42.379
  0
LINE
  8
0
 10
73.715
 11
73.461
 20
42.379
 21
42.194
  0
LINE
  8
0
 10
73.461
 11
73.175
 20
42.194
 21
42.066
  0
LINE
  8
0
 10
73.175
 11
72.868
 20
42.066
 21
42
  0
LINE
  8
0
 10
72.868
 11
72.554
 20
42
 21
42
  0
LINE
  8
0
 10
72.554
 11
72.247
 20
42
 21
42.066
  0
LINE
  8
0
 10
72.247
 11
71.961
 20
42.066
 21
42.194
  0
LINE
  8
0
 10
71.961
 11
71.707
 20
42.194
 21
42.379
  0
LINE
  8
0
 10
71.707
 11
71.497
 20
42.379
 21
42.613
  0
LINE
  8
0
 10
71.497
 11
71.341
 20
42.613
 21
42.887
  0
LINE
  8
0
 10
71.341
 11
71.244
 20
42.887
 21
43.186
  0
LINE
  8
0
 10
71.244
 11
71.211
 20
43.186
 21
43.5
  0
LINE
  8
0
 10
71.211
 11
71.244
 20
52
 21
52.314
  0
LINE
  8
0
 10
71.244
 11
71.341
 20
52.314
 21
52.613
  0
LINE
  8
0
 10
71.341
 11
71.497
 20
52.613
 21
52.887
  0
LINE
  8
0
 10
71.497
 11
71.707
 20
52.887
 21
53.121
  0
LINE
  8
0
 10
71.707
 11
71.961
 20
53.121
 21
53.306
  0
LINE
  8
0
 10
71.961
 11
72.247
 20
53.306
 21
53.434
  0
LINE
  8
0
 10
72.247
 11
72.554
 20
53.434
 21
53.5
  0
LINE
  8
0
 10
72.554
 11
72.868
 20
53.5
 21
53.5
  0
LINE
  8
0
 10
72.868
 11
73.175
 20
53.5
 21
53.434
  0
LINE
  8
0
 10
73.175
 11
73.461
 20
53.434
 21
53.306
  0
LINE
  8
0
 10
73.461
 11
73.715
 20
53.306
 21
53.121
  0
LINE
  8
0
 10
73.715
 11
73.925
 20
53.121
 21
52.887
  0
LINE
  8
0
 10
73.925
 11
74.081
 20
52.887
 21
52.613
  0
LINE
  8
0
 10
74.081
 11
74.178
 20
52.613
 21
52.314
  0
LINE
  8
0
 10
74.178
 11
74.211
 20
52.314
 21
52
  0
LINE
  8
0
 10
74.211
 11
74.178
 20
52
 21
51.686
  0
LINE
  8
0
 10
74.178
 11
74.081
 20
51.686
 21
51.387
  0
LINE
  8
0
 10
74.081
 11
73.925
 20
51.387
 21
51.113
  0
LINE
  8
0
 10
73.925
 11
73.715
 20
51.113
 21
50.879
  0
LINE
  8
0
 10
73.715
 11
73.461
 20
50.879
 21
50.694
  0
LINE
  8
0
 10
73.461
 11
73.175
 20
50.694
 21
50.566
  0
LINE
  8
0
 10
73.175
 11
72.868
 20
50.566
 21
50.5
  0
LINE
  8
0
 10
72.868
 11
72.554
 20
50.5
 21
50.5
  0
LINE
  8
0
 10
72.554
 11
72.247
 20
50.5
 21
50.566
  0
LINE
  8
0
 10
72.247
 11
71.961
 20
50.566
 21
50.694
  0
LINE
  8
0
 10
71.961
 11
71.707
 20
50.694
 21
50.879
  0
LINE
  8
0
 10
71.707
 11
71.497
 20
50.879
 21
51.113
  0
LINE
  8
0
 10
71.497
 11
71.341
 20
51.113
 21
51.387
  0
LINE
  8
0
 10
71.341
 11
71.244
 20
51.387
 21
51.686
  0
LINE
  8
0
 10
71.244
 11
71.211
 20
51.686
 21
52
  0
LINE
  8
0
 10
78.572
 11
78.605
 20
56.25
 21
56.564
  0
LINE
  8
0
 10
78.605
 11
78.702
 20
56.564
 21
56.863
  0
LINE
  8
0
 10
78.702
 11
78.858
 20
56.863
 21
57.137
  0
LINE
  8
0
 10
78.858
 11
79.068
 20
57.137
 21
57.371
  0
LINE
  8
0
 10
79.068
 11
79.322
 20
57.371
 21
57.556
  0
LINE
  8
0
 10
79.322
 11
79.608
 20
57.556
 21
57.684
  0
LINE
  8
0
 10
79.608
 11
79.915
 20
57.684
 21
57.75
  0
LINE
  8
0
 10
79.915
 11
80.229
 20
57.75
 21
57.75
  0
LINE
  8
0
 10
80.229
 11
80.536
 20
57.75
 21
57.684
  0
LINE
  8
0
 10
80.536
 11
80.822
 20
57.684
 21
57.556
  0
LINE
  8
0
 10
80.822
 11
81.076
 20
57.556
 21
57.371
  0
LINE
  8
0
 10
81.076
 11
81.286
 20
57.371
 21
57.137
  0
LINE
  8
0
 10
81.286
 11
81.442
 20
57.137
 21
56.863
  0
LINE
  8
0
 10
81.442
 11
81.539
 20
56.863
 21
56.564
  0
LINE
  8
0
 10
81.539
 11
81.572
 20
56.564
 21
56.25
  0
LINE
  8
0
 10
81.572
 11
81.539
 20
56.25
 21
55.936
  0
LINE
  8
0
 10
81.539
 11
81.442
 20
55.936
 21
55.637
  0
LINE
  8
0
 10
81.442
 11
81.286
 20
55.637
 21
55.363
  0
LINE
  8
0
 10
81.286
 11
81.076
 20
55.363
 21
55.129
  0
LINE
  8
0
 10
81.076
 11
80.822
 20
55.129
 21
54.944
  0
LINE
  8
0
 10
80.822
 11
80.536
 20
54.944
 21
54.816
  0
LINE
  8
0
 10
80.536
 11
80.229
 20
54.816
 21
54.75
  0
LINE
  8
0
 10
80.229
 11
79.915
 20
54.75
 21
54.75
  0
LINE
  8
0
 10
79.915
 11
79.608
 20
54.75
 21
54.816
  0
LINE
  8
0
 10
79.608
 11
79.322
 20
54.816
 21
54.944
  0
LINE
  8
0
 10
79.322
 11
79.068
 20
54.944
 21
55.129
  0
LINE
  8
0
 10
79.068
 11
78.858
 20
55.129
 21
55.363
  0
LINE
  8
0
 10
78.858
 11
78.702
 20
55.363
 21
55.637
  0
LINE
  8
0
 10
78.702
 11
78.605
 20
55.637
 21
55.936
  0
LINE
  8
0
 10
78.605
 11
78.572
 20
55.936
 21
56.25
  0
LINE
  8
0
 10
80.844
 11
80.853
 20
51.283
 21
51.367
  0
LINE
  8
0
 10
80.853
 11
80.879
 20
51.367
 21
51.447
  0
LINE
  8
0
 10
80.879
 11
80.92
 20
51.447
 21
51.519
  0
LINE
  8
0
 10
80.92
 11
80.961
 20
51.519
 21
51.565
  0
LINE
  8
0
 10
80.961
 11
80.961
 20
51.565
 21
52.435
  0
LINE
  8
0
 10
80.961
 11
80.92
 20
52.435
 21
52.481
  0
LINE
  8
0
 10
80.92
 11
80.879
 20
52.481
 21
52.553
  0
LINE
  8
0
 10
80.879
 11
80.853
 20
52.553
 21
52.633
  0
LINE
  8
0
 10
80.853
 11
80.844
 20
52.633
 21
52.717
  0
LINE
  8
0
 10
80.844
 11
80.853
 20
52.717
 21
52.801
  0
LINE
  8
0
 10
80.853
 11
80.879
 20
52.801
 21
52.881
  0
LINE
  8
0
 10
80.879
 11
80.92
 20
52.881
 21
52.953
  0
LINE
  8
0
 10
80.92
 11
80.962
 20
52.953
 21
53
  0
LINE
  8
0
 10
80.962
 11
80.976
 20
53
 21
53.016
  0
LINE
  8
0
 10
80.976
 11
81.044
 20
53.016
 21
53.065
  0
LINE
  8
0
 10
81.044
 11
81.12
 20
53.065
 21
53.1
  0
LINE
  8
0
 10
81.12
 11
81.202
 20
53.1
 21
53.117
  0
LINE
  8
0
 10
81.202
 11
81.286
 20
53.117
 21
53.117
  0
LINE
  8
0
 10
81.286
 11
81.368
 20
53.117
 21
53.1
  0
LINE
  8
0
 10
81.368
 11
81.444
 20
53.1
 21
53.065
  0
LINE
  8
0
 10
81.444
 11
81.512
 20
53.065
 21
53.016
  0
LINE
  8
0
 10
81.512
 11
81.526
 20
53.016
 21
53
  0
LINE
  8
0
 10
81.526
 11
82.396
 20
53
 21
53
  0
LINE
  8
0
 10
82.396
 11
82.41
 20
53
 21
53.016
  0
LINE
  8
0
 10
82.41
 11
82.478
 20
53.016
 21
53.065
  0
LINE
  8
0
 10
82.478
 11
82.554
 20
53.065
 21
53.1
  0
LINE
  8
0
 10
82.554
 11
82.636
 20
53.1
 21
53.117
  0
LINE
  8
0
 10
82.636
 11
82.72
 20
53.117
 21
53.117
  0
LINE
  8
0
 10
82.72
 11
82.802
 20
53.117
 21
53.1
  0
LINE
  8
0
 10
82.802
 11
82.878
 20
53.1
 21
53.065
  0
LINE
  8
0
 10
82.878
 11
82.946
 20
53.065
 21
53.016
  0
LINE
  8
0
 10
82.946
 11
82.961
 20
53.016
 21
52.999
  0
LINE
  8
0
 10
82.961
 11
83.002
 20
52.999
 21
52.953
  0
LINE
  8
0
 10
83.002
 11
83.043
 20
52.953
 21
52.881
  0
LINE
  8
0
 10
83.043
 11
83.069
 20
52.881
 21
52.801
  0
LINE
  8
0
 10
83.069
 11
83.078
 20
52.801
 21
52.717
  0
LINE
  8
0
 10
83.078
 11
83.069
 20
52.717
 21
52.633
  0
LINE
  8
0
 10
83.069
 11
83.043
 20
52.633
 21
52.553
  0
LINE
  8
0
 10
83.043
 11
83.002
 20
52.553
 21
52.481
  0
LINE
  8
0
 10
83.002
 11
82.961
 20
52.481
 21
52.435
  0
LINE
  8
0
 10
82.961
 11
82.961
 20
52.435
 21
51.565
  0
LINE
  8
0
 10
82.961
 11
83.002
 20
51.565
 21
51.519
  0
LINE
  8
0
 10
83.002
 11
83.043
 20
51.519
 21
51.447
  0
LINE
  8
0
 10
83.043
 11
83.069
 20
51.447
 21
51.367
  0
LINE
  8
0
 10
83.069
 11
83.078
 20
51.367
 21
51.283
  0
LINE
  8
0
 10
83.078
 11
83.069
 20
51.283
 21
51.199
  0
LINE
  8
0
 10
83.069
 11
83.043
 20
51.199
 21
51.119
  0
LINE
  8
0
 10
83.043
 11
83.002
 20
51.119
 21
51.047
  0
LINE
  8
0
 10
83.002
 11
82.96
 20
51.047
 21
51
  0
LINE
  8
0
 10
82.96
 11
82.946
 20
51
 21
50.984
  0
LINE
  8
0
 10
82.946
 11
82.878
 20
50.984
 21
50.935
  0
LINE
  8
0
 10
82.878
 11
82.802
 20
50.935
 21
50.9
  0
LINE
  8
0
 10
82.802
 11
82.72
 20
50.9
 21
50.883
  0
LINE
  8
0
 10
82.72
 11
82.636
 20
50.883
 21
50.883
  0
LINE
  8
0
 10
82.636
 11
82.554
 20
50.883
 21
50.9
  0
LINE
  8
0
 10
82.554
 11
82.478
 20
50.9
 21
50.935
  0
LINE
  8
0
 10
82.478
 11
82.41
 20
50.935
 21
50.984
  0
LINE
  8
0
 10
82.41
 11
82.396
 20
50.984
 21
51
  0
LINE
  8
0
 10
82.396
 11
81.526
 20
51
 21
51
  0
LINE
  8
0
 10
81.526
 11
81.512
 20
51
 21
50.984
  0
LINE
  8
0
 10
81.512
 11
81.444
 20
50.984
 21
50.935
  0
LINE
  8
0
 10
81.444
 11
81.368
 20
50.935
 21
50.9
  0
LINE
  8
0
 10
81.368
 11
81.286
 20
50.9
 21
50.883
  0
LINE
  8
0
 10
81.286
 11
81.202
 20
50.883
 21
50.883
  0
LINE
  8
0
 10
81.202
 11
81.12
 20
50.883
 21
50.9
  0
LINE
  8
0
 10
81.12
 11
81.044
 20
50.9
 21
50.935
  0
LINE
  8
0
 10
81.044
 11
80.976
 20
50.935
 21
50.984
  0
LINE
  8
0
 10
80.976
 11
80.961
 20
50.984
 21
51.001
  0
LINE
  8
0
 10
80.961
 11
80.92
 20
51.001
 21
51.047
  0
LINE
  8
0
 10
80.92
 11
80.879
 20
51.047
 21
51.119
  0
LINE
  8
0
 10
80.879
 11
80.853
 20
51.119
 21
51.199
  0
LINE
  8
0
 10
80.853
 11
80.844
 20
51.199
 21
51.283
  0
LINE
  8
0
 10
121.301
 11
121.37
 20
72.64
 21
73.305
  0
LINE
  8
0
 10
121.37
 11
121.576
 20
73.305
 21
73.941
  0
LINE
  8
0
 10
121.576
 11
121.908
 20
73.941
 21
74.52
  0
LINE
  8
0
 10
121.908
 11
122.353
 20
74.52
 21
75.016
  0
LINE
  8
0
 10
122.353
 11
122.891
 20
75.016
 21
75.409
  0
LINE
  8
0
 10
122.891
 11
123.498
 20
75.409
 21
75.681
  0
LINE
  8
0
 10
123.498
 11
124.149
 20
75.681
 21
75.82
  0
LINE
  8
0
 10
124.149
 11
124.813
 20
75.82
 21
75.82
  0
LINE
  8
0
 10
124.813
 11
125.464
 20
75.82
 21
75.681
  0
LINE
  8
0
 10
125.464
 11
126.071
 20
75.681
 21
75.409
  0
LINE
  8
0
 10
126.071
 11
126.609
 20
75.409
 21
75.016
  0
LINE
  8
0
 10
126.609
 11
127.054
 20
75.016
 21
74.52
  0
LINE
  8
0
 10
127.054
 11
127.386
 20
74.52
 21
73.941
  0
LINE
  8
0
 10
127.386
 11
127.592
 20
73.941
 21
73.305
  0
LINE
  8
0
 10
127.592
 11
127.661
 20
73.305
 21
72.64
  0
LINE
  8
0
 10
127.661
 11
127.592
 20
72.64
 21
71.975
  0
LINE
  8
0
 10
127.592
 11
127.386
 20
71.975
 21
71.339
  0
LINE
  8
0
 10
127.386
 11
127.054
 20
71.339
 21
70.76
  0
LINE
  8
0
 10
127.054
 11
126.609
 20
70.76
 21
70.264
  0
LINE
  8
0
 10
126.609
 11
126.071
 20
70.264
 21
69.871
  0
LINE
  8
0
 10
126.071
 11
125.464
 20
69.871
 21
69.599
  0
LINE
  8
0
 10
125.464
 11
124.813
 20
69.599
 21
69.46
  0
LINE
  8
0
 10
124.813
 11
124.149
 20
69.46
 21
69.46
  0
LINE
  8
0
 10
124.149
 11
123.498
 20
69.46
 21
69.599
  0
LINE
  8
0
 10
123.498
 11
122.891
 20
69.599
 21
69.871
  0
LINE
  8
0
 10
122.891
 11
122.353
 20
69.871
 21
70.264
  0
LINE
  8
0
 10
122.353
 11
121.908
 20
70.264
 21
70.76
  0
LINE
  8
0
 10
121.908
 11
121.576
 20
70.76
 21
71.339
  0
LINE
  8
0
 10
121.576
 11
121.37
 20
71.339
 21
71.975
  0
LINE
  8
0
 10
121.37
 11
121.301
 20
71.975
 21
72.64
  0
LINE
  8
0
 10
121.301
 11
121.37
 20
88.64
 21
89.305
  0
LINE
  8
0
 10
121.37
 11
121.576
 20
89.305
 21
89.941
  0
LINE
  8
0
 10
121.576
 11
121.908
 20
89.941
 21
90.52
  0
LINE
  8
0
 10
121.908
 11
122.353
 20
90.52
 21
91.016
  0
LINE
  8
0
 10
122.353
 11
122.891
 20
91.016
 21
91.409
  0
LINE
  8
0
 10
122.891
 11
123.498
 20
91.409
 21
91.681
  0
LINE
  8
0
 10
123.498
 11
124.149
 20
91.681
 21
91.82
  0
LINE
  8
0
 10
124.149
 11
124.813
 20
91.82
 21
91.82
  0
LINE
  8
0
 10
124.813
 11
125.464
 20
91.82
 21
91.681
  0
LINE
  8
0
 10
125.464
 11
126.071
 20
91.681
 21
91.409
  0
LINE
  8
0
 10
126.071
 11
126.609
 20
91.409
 21
91.016
  0
LINE
  8
0
 10
126.609
 11
127.054
 20
91.016
 21
90.52
  0
LINE
  8
0
 10
127.054
 11
127.386
 20
90.52
 21
89.941
  0
LINE
  8
0
 10
127.386
 11
127.592
 20
89.941
 21
89.305
  0
LINE
  8
0
 10
127.592
 11
127.661
 20
89.305
 21
88.64
  0
LINE
  8
0
 10
127.661
 11
127.592
 20
88.64
 21
87.975
  0
LINE
  8
0
 10
127.592
 11
127.386
 20
87.975
 21
87.339
  0
LINE
  8
0
 10
127.386
 11
127.054
 20
87.339
 21
86.76
  0
LINE
  8
0
 10
127.054
 11
126.609
 20
86.76
 21
86.264
  0
LINE
  8
0
 10
126.609
 11
126.071
 20
86.264
 21
85.871
  0
LINE
  8
0
 10
126.071
 11
125.464
 20
85.871
 21
85.599
  0
LINE
  8
0
 10
125.464
 11
124.813
 20
85.599
 21
85.46
  0
LINE
  8
0
 10
124.813
 11
124.149
 20
85.46
 21
85.46
  0
LINE
  8
0
 10
124.149
 11
123.498
 20
85.46
 21
85.599
  0
LINE
  8
0
 10
123.498
 11
122.891
 20
85.599
 21
85.871
  0
LINE
  8
0
 10
122.891
 11
122.353
 20
85.871
 21
86.264
  0
LINE
  8
0
 10
122.353
 11
121.908
 20
86.264
 21
86.76
  0
LINE
  8
0
 10
121.908
 11
121.576
 20
86.76
 21
87.339
  0
LINE
  8
0
 10
121.576
 11
121.37
 20
87.339
 21
87.975
  0
LINE
  8
0
 10
121.37
 11
121.301
 20
87.975
 21
88.64
  0
LINE
  8
0
 10
130.718
 11
130.781
 20
73.255
 21
73.856
  0
LINE
  8
0
 10
130.781
 11
130.967
 20
73.856
 21
74.43
  0
LINE
  8
0
 10
130.967
 11
131.267
 20
74.43
 21
74.953
  0
LINE
  8
0
 10
131.267
 11
131.669
 20
74.953
 21
75.402
  0
LINE
  8
0
 10
131.669
 11
132.155
 20
75.402
 21
75.756
  0
LINE
  8
0
 10
132.155
 11
132.703
 20
75.756
 21
76.002
  0
LINE
  8
0
 10
132.703
 11
133.291
 20
76.002
 21
76.128
  0
LINE
  8
0
 10
133.291
 11
133.891
 20
76.128
 21
76.128
  0
LINE
  8
0
 10
133.891
 11
134.479
 20
76.128
 21
76.002
  0
LINE
  8
0
 10
134.479
 11
135.027
 20
76.002
 21
75.756
  0
LINE
  8
0
 10
135.027
 11
135.513
 20
75.756
 21
75.402
  0
LINE
  8
0
 10
135.513
 11
135.915
 20
75.402
 21
74.953
  0
LINE
  8
0
 10
135.915
 11
136.215
 20
74.953
 21
74.43
  0
LINE
  8
0
 10
136.215
 11
136.401
 20
74.43
 21
73.856
  0
LINE
  8
0
 10
136.401
 11
136.464
 20
73.856
 21
73.255
  0
LINE
  8
0
 10
136.464
 11
136.401
 20
73.255
 21
72.654
  0
LINE
  8
0
 10
136.401
 11
136.215
 20
72.654
 21
72.08
  0
LINE
  8
0
 10
136.215
 11
135.915
 20
72.08
 21
71.557
  0
LINE
  8
0
 10
135.915
 11
135.513
 20
71.557
 21
71.108
  0
LINE
  8
0
 10
135.513
 11
135.027
 20
71.108
 21
70.754
  0
LINE
  8
0
 10
135.027
 11
134.479
 20
70.754
 21
70.508
  0
LINE
  8
0
 10
134.479
 11
133.891
 20
70.508
 21
70.382
  0
LINE
  8
0
 10
133.891
 11
133.291
 20
70.382
 21
70.382
  0
LINE
  8
0
 10
133.291
 11
132.703
 20
70.382
 21
70.508
  0
LINE
  8
0
 10
132.703
 11
132.155
 20
70.508
 21
70.754
  0
LINE
  8
0
 10
132.155
 11
131.669
 20
70.754
 21
71.108
  0
LINE
  8
0
 10
131.669
 11
131.267
 20
71.108
 21
71.557
  0
LINE
  8
0
 10
131.267
 11
130.967
 20
71.557
 21
72.08
  0
LINE
  8
0
 10
130.967
 11
130.781
 20
72.08
 21
72.654
  0
LINE
  8
0
 10
130.781
 11
130.718
 20
72.654
 21
73.255
  0
LINE
  8
0
 10
130.718
 11
130.781
 20
89.255
 21
89.856
  0
LINE
  8
0
 10
130.781
 11
130.967
 20
89.856
 21
90.43
  0
LINE
  8
0
 10
130.967
 11
131.267
 20
90.43
 21
90.953
  0
LINE
  8
0
 10
131.267
 11
131.669
 20
90.953
 21
91.402
  0
LINE
  8
0
 10
131.669
 11
132.155
 20
91.402
 21
91.756
  0
LINE
  8
0
 10
132.155
 11
132.703
 20
91.756
 21
92.002
  0
LINE
  8
0
 10
132.703
 11
133.291
 20
92.002
 21
92.128
  0
LINE
  8
0
 10
133.291
 11
133.891
 20
92.128
 21
92.128
  0
LINE
  8
0
 10
133.891
 11
134.479
 20
92.128
 21
92.002
  0
LINE
  8
0
 10
134.479
 11
135.027
 20
92.002
 21
91.756
  0
LINE
  8
0
 10
135.027
 11
135.513
 20
91.756
 21
91.402
  0
LINE
  8
0
 10
135.513
 11
135.915
 20
91.402
 21
90.953
  0
LINE
  8
0
 10
135.915
 11
136.215
 20
90.953
 21
90.43
  0
LINE
  8
0
 10
136.215
 11
136.401
 20
90.43
 21
89.856
  0
LINE
  8
0
 10
136.401
 11
136.464
 20
89.856
 21
89.255
  0
LINE
  8
0
 10
136.464
 11
136.401
 20
89.255
 21
88.654
  0
LINE
  8
0
 10
136.401
 11
136.215
 20
88.654
 21
88.08
  0
LINE
  8
0
 10
136.215
 11
135.915
 20
88.08
 21
87.557
  0
LINE
  8
0
 10
135.915
 11
135.513
 20
87.557
 21
87.108
  0
LINE
  8
0
 10
135.513
 11
135.027
 20
87.108
 21
86.754
  0
LINE
  8
0
 10
135.027
 11
134.479
 20
86.754
 21
86.508
  0
LINE
  8
0
 10
134.479
 11
133.891
 20
86.508
 21
86.382
  0
LINE
  8
0
 10
133.891
 11
133.291
 20
86.382
 21
86.382
  0
LINE
  8
0
 10
133.291
 11
132.703
 20
86.382
 21
86.508
  0
LINE
  8
0
 10
132.703
 11
132.155
 20
86.508
 21
86.754
  0
LINE
  8
0
 10
132.155
 11
131.669
 20
86.754
 21
87.108
  0
LINE
  8
0
 10
131.669
 11
131.267
 20
87.108
 21
87.557
  0
LINE
  8
0
 10
131.267
 11
130.967
 20
87.557
 21
88.08
  0
LINE
  8
0
 10
130.967
 11
130.781
 20
88.08
 21
88.654
  0
LINE
  8
0
 10
130.781
 11
130.718
 20
88.654
 21
89.255
  0
LINE
  8
0
 10
139.182
 11
139.237
 20
73.982
 21
74.507
  0
LINE
  8
0
 10
139.237
 11
139.399
 20
74.507
 21
75.008
  0
LINE
  8
0
 10
139.399
 11
139.661
 20
75.008
 21
75.465
  0
LINE
  8
0
 10
139.661
 11
140.012
 20
75.465
 21
75.857
  0
LINE
  8
0
 10
140.012
 11
140.436
 20
75.857
 21
76.167
  0
LINE
  8
0
 10
140.436
 11
140.916
 20
76.167
 21
76.382
  0
LINE
  8
0
 10
140.916
 11
141.429
 20
76.382
 21
76.491
  0
LINE
  8
0
 10
141.429
 11
141.953
 20
76.491
 21
76.491
  0
LINE
  8
0
 10
141.953
 11
142.466
 20
76.491
 21
76.382
  0
LINE
  8
0
 10
142.466
 11
142.946
 20
76.382
 21
76.167
  0
LINE
  8
0
 10
142.946
 11
143.37
 20
76.167
 21
75.857
  0
LINE
  8
0
 10
143.37
 11
143.721
 20
75.857
 21
75.465
  0
LINE
  8
0
 10
143.721
 11
143.983
 20
75.465
 21
75.008
  0
LINE
  8
0
 10
143.983
 11
144.145
 20
75.008
 21
74.507
  0
LINE
  8
0
 10
144.145
 11
144.2
 20
74.507
 21
73.982
  0
LINE
  8
0
 10
144.2
 11
144.145
 20
73.982
 21
73.457
  0
LINE
  8
0
 10
144.145
 11
143.983
 20
73.457
 21
72.956
  0
LINE
  8
0
 10
143.983
 11
143.721
 20
72.956
 21
72.499
  0
LINE
  8
0
 10
143.721
 11
143.37
 20
72.499
 21
72.107
  0
LINE
  8
0
 10
143.37
 11
142.946
 20
72.107
 21
71.797
  0
LINE
  8
0
 10
142.946
 11
142.466
 20
71.797
 21
71.582
  0
LINE
  8
0
 10
142.466
 11
141.953
 20
71.582
 21
71.473
  0
LINE
  8
0
 10
141.953
 11
141.429
 20
71.473
 21
71.473
  0
LINE
  8
0
 10
141.429
 11
140.916
 20
71.473
 21
71.582
  0
LINE
  8
0
 10
140.916
 11
140.436
 20
71.582
 21
71.797
  0
LINE
  8
0
 10
140.436
 11
140.012
 20
71.797
 21
72.107
  0
LINE
  8
0
 10
140.012
 11
139.661
 20
72.107
 21
72.499
  0
LINE
  8
0
 10
139.661
 11
139.399
 20
72.499
 21
72.956
  0
LINE
  8
0
 10
139.399
 11
139.237
 20
72.956
 21
73.457
  0
LINE
  8
0
 10
139.237
 11
139.182
 20
73.457
 21
73.982
  0
LINE
  8
0
 10
139.182
 11
139.237
 20
89.982
 21
90.507
  0
LINE
  8
0
 10
139.237
 11
139.399
 20
90.507
 21
91.008
  0
LINE
  8
0
 10
139.399
 11
139.661
 20
91.008
 21
91.465
  0
LINE
  8
0
 10
139.661
 11
140.012
 20
91.465
 21
91.857
  0
LINE
  8
0
 10
140.012
 11
140.436
 20
91.857
 21
92.167
  0
LINE
  8
0
 10
140.436
 11
140.916
 20
92.167
 21
92.382
  0
LINE
  8
0
 10
140.916
 11
141.429
 20
92.382
 21
92.491
  0
LINE
  8
0
 10
141.429
 11
141.953
 20
92.491
 21
92.491
  0
LINE
  8
0
 10
141.953
 11
142.466
 20
92.491
 21
92.382
  0
LINE
  8
0
 10
142.466
 11
142.946
 20
92.382
 21
92.167
  0
LINE
  8
0
 10
142.946
 11
143.37
 20
92.167
 21
91.857
  0
LINE
  8
0
 10
143.37
 11
143.721
 20
91.857
 21
91.465
  0
LINE
  8
0
 10
143.721
 11
143.983
 20
91.465
 21
91.008
  0
LINE
  8
0
 10
143.983
 11
144.145
 20
91.008
 21
90.507
  0
LINE
  8
0
 10
144.145
 11
144.2
 20
90.507
 21
89.982
  0
LINE
  8
0
 10
144.2
 11
144.145
 20
89.982
 21
89.457
  0
LINE
  8
0
 10
144.145
 11
143.983
 20
89.457
 21
88.956
  0
LINE
  8
0
 10
143.983
 11
143.721
 20
88.956
 21
88.499
  0
LINE
  8
0
 10
143.721
 11
143.37
 20
88.499
 21
88.107
  0
LINE
  8
0
 10
143.37
 11
142.946
 20
88.107
 21
87.797
  0
LINE
  8
0
 10
142.946
 11
142.466
 20
87.797
 21
87.582
  0
LINE
  8
0
 10
142.466
 11
141.953
 20
87.582
 21
87.473
  0
LINE
  8
0
 10
141.953
 11
141.429
 20
87.473
 21
87.473
  0
LINE
  8
0
 10
141.429
 11
140.916
 20
87.473
 21
87.582
  0
LINE
  8
0
 10
140.916
 11
140.436
 20
87.582
 21
87.797
  0
LINE
  8
0
 10
140.436
 11
140.012
 20
87.797
 21
88.107
  0
LINE
  8
0
 10
140.012
 11
139.661
 20
88.107
 21
88.499
  0
LINE
  8
0
 10
139.661
 11
139.399
 20
88.499
 21
88.956
  0
LINE
  8
0
 10
139.399
 11
139.237
 20
88.956
 21
89.457
  0
LINE
  8
0
 10
139.237
 11
139.182
 20
89.457
 21
89.982
  0
LINE
  8
0
 10
146.526
 11
146.572
 20
74.806
 21
75.244
  0
LINE
  8
0
 10
146.572
 11
146.707
 20
75.244
 21
75.664
  0
LINE
  8
0
 10
146.707
 11
146.926
 20
75.664
 21
76.045
  0
LINE
  8
0
 10
146.926
 11
147.22
 20
76.045
 21
76.373
  0
LINE
  8
0
 10
147.22
 11
147.575
 20
76.373
 21
76.632
  0
LINE
  8
0
 10
147.575
 11
147.975
 20
76.632
 21
76.811
  0
LINE
  8
0
 10
147.975
 11
148.404
 20
76.811
 21
76.903
  0
LINE
  8
0
 10
148.404
 11
148.842
 20
76.903
 21
76.903
  0
LINE
  8
0
 10
148.842
 11
149.271
 20
76.903
 21
76.811
  0
LINE
  8
0
 10
149.271
 11
149.671
 20
76.811
 21
76.632
  0
LINE
  8
0
 10
149.671
 11
150.026
 20
76.632
 21
76.373
  0
LINE
  8
0
 10
150.026
 11
150.32
 20
76.373
 21
76.045
  0
LINE
  8
0
 10
150.32
 11
150.539
 20
76.045
 21
75.664
  0
LINE
  8
0
 10
150.539
 11
150.674
 20
75.664
 21
75.244
  0
LINE
  8
0
 10
150.674
 11
150.72
 20
75.244
 21
74.806
  0
LINE
  8
0
 10
150.72
 11
150.674
 20
74.806
 21
74.368
  0
LINE
  8
0
 10
150.674
 11
150.539
 20
74.368
 21
73.948
  0
LINE
  8
0
 10
150.539
 11
150.32
 20
73.948
 21
73.567
  0
LINE
  8
0
 10
150.32
 11
150.026
 20
73.567
 21
73.239
  0
LINE
  8
0
 10
150.026
 11
149.671
 20
73.239
 21
72.98
  0
LINE
  8
0
 10
149.671
 11
149.271
 20
72.98
 21
72.801
  0
LINE
  8
0
 10
149.271
 11
148.842
 20
72.801
 21
72.709
  0
LINE
  8
0
 10
148.842
 11
148.404
 20
72.709
 21
72.709
  0
LINE
  8
0
 10
148.404
 11
147.975
 20
72.709
 21
72.801
  0
LINE
  8
0
 10
147.975
 11
147.575
 20
72.801
 21
72.98
  0
LINE
  8
0
 10
147.575
 11
147.22
 20
72.98
 21
73.239
  0
LINE
  8
0
 10
147.22
 11
146.926
 20
73.239
 21
73.567
  0
LINE
  8
0
 10
146.926
 11
146.707
 20
73.567
 21
73.948
  0
LINE
  8
0
 10
146.707
 11
146.572
 20
73.948
 21
74.368
  0
LINE
  8
0
 10
146.572
 11
146.526
 20
74.368
 21
74.806
  0
LINE
  8
0
 10
146.526
 11
146.572
 20
90.806
 21
91.244
  0
LINE
  8
0
 10
146.572
 11
146.707
 20
91.244
 21
91.664
  0
LINE
  8
0
 10
146.707
 11
146.926
 20
91.664
 21
92.045
  0
LINE
  8
0
 10
146.926
 11
147.22
 20
92.045
 21
92.373
  0
LINE
  8
0
 10
147.22
 11
147.575
 20
92.373
 21
92.632
  0
LINE
  8
0
 10
147.575
 11
147.975
 20
92.632
 21
92.811
  0
LINE
  8
0
 10
147.975
 11
148.404
 20
92.811
 21
92.903
  0
LINE
  8
0
 10
148.404
 11
148.842
 20
92.903
 21
92.903
  0
LINE
  8
0
 10
148.842
 11
149.271
 20
92.903
 21
92.811
  0
LINE
  8
0
 10
149.271
 11
149.671
 20
92.811
 21
92.632
  0
LINE
  8
0
 10
149.671
 11
150.026
 20
92.632
 21
92.373
  0
LINE
  8
0
 10
150.026
 11
150.32
 20
92.373
 21
92.045
  0
LINE
  8
0
 10
150.32
 11
150.539
 20
92.045
 21
91.664
  0
LINE
  8
0
 10
150.539
 11
150.674
 20
91.664
 21
91.244
  0
LINE
  8
0
 10
150.674
 11
150.72
 20
91.244
 21
90.806
  0
LINE
  8
0
 10
150.72
 11
150.674
 20
90.806
 21
90.368
  0
LINE
  8
0
 10
150.674
 11
150.539
 20
90.368
 21
89.948
  0
LINE
  8
0
 10
150.539
 11
150.32
 20
89.948
 21
89.567
  0
LINE
  8
0
 10
150.32
 11
150.026
 20
89.567
 21
89.239
  0
LINE
  8
0
 10
150.026
 11
149.671
 20
89.239
 21
88.98
  0
LINE
  8
0
 10
149.671
 11
149.271
 20
88.98
 21
88.801
  0
LINE
  8
0
 10
149.271
 11
148.842
 20
88.801
 21
88.709
  0
LINE
  8
0
 10
148.842
 11
148.404
 20
88.709
 21
88.709
  0
LINE
  8
0
 10
148.404
 11
147.975
 20
88.709
 21
88.801
  0
LINE
  8
0
 10
147.975
 11
147.575
 20
88.801
 21
88.98
  0
LINE
  8
0
 10
147.575
 11
147.22
 20
88.98
 21
89.239
  0
LINE
  8
0
 10
147.22
 11
146.926
 20
89.239
 21
89.567
  0
LINE
  8
0
 10
146.926
 11
146.707
 20
89.567
 21
89.948
  0
LINE
  8
0
 10
146.707
 11
146.572
 20
89.948
 21
90.368
  0
LINE
  8
0
 10
146.572
 11
146.526
 20
90.368
 21
90.806
  0
LINE
  8
0
 10
152.609
 11
152.645
 20
75.712
 21
76.056
  0
LINE
  8
0
 10
152.645
 11
152.751
 20
76.056
 21
76.384
  0
LINE
  8
0
 10
152.751
 11
152.923
 20
76.384
 21
76.684
  0
LINE
  8
0
 10
152.923
 11
153.153
 20
76.684
 21
76.94
  0
LINE
  8
0
 10
153.153
 11
153.431
 20
76.94
 21
77.143
  0
LINE
  8
0
 10
153.431
 11
153.745
 20
77.143
 21
77.284
  0
LINE
  8
0
 10
153.745
 11
154.081
 20
77.284
 21
77.356
  0
LINE
  8
0
 10
154.081
 11
154.425
 20
77.356
 21
77.356
  0
LINE
  8
0
 10
154.425
 11
154.761
 20
77.356
 21
77.284
  0
LINE
  8
0
 10
154.761
 11
155.075
 20
77.284
 21
77.143
  0
LINE
  8
0
 10
155.075
 11
155.353
 20
77.143
 21
76.94
  0
LINE
  8
0
 10
155.353
 11
155.583
 20
76.94
 21
76.684
  0
LINE
  8
0
 10
155.583
 11
155.755
 20
76.684
 21
76.384
  0
LINE
  8
0
 10
155.755
 11
155.861
 20
76.384
 21
76.056
  0
LINE
  8
0
 10
155.861
 11
155.897
 20
76.056
 21
75.712
  0
LINE
  8
0
 10
155.897
 11
155.861
 20
75.712
 21
75.368
  0
LINE
  8
0
 10
155.861
 11
155.755
 20
75.368
 21
75.04
  0
LINE
  8
0
 10
155.755
 11
155.583
 20
75.04
 21
74.74
  0
LINE
  8
0
 10
155.583
 11
155.353
 20
74.74
 21
74.484
  0
LINE
  8
0
 10
155.353
 11
155.075
 20
74.484
 21
74.281
  0
LINE
  8
0
 10
155.075
 11
154.761
 20
74.281
 21
74.14
  0
LINE
  8
0
 10
154.761
 11
154.425
 20
74.14
 21
74.068
  0
LINE
  8
0
 10
154.425
 11
154.081
 20
74.068
 21
74.068
  0
LINE
  8
0
 10
154.081
 11
153.745
 20
74.068
 21
74.14
  0
LINE
  8
0
 10
153.745
 11
153.431
 20
74.14
 21
74.281
  0
LINE
  8
0
 10
153.431
 11
153.153
 20
74.281
 21
74.484
  0
LINE
  8
0
 10
153.153
 11
152.923
 20
74.484
 21
74.74
  0
LINE
  8
0
 10
152.923
 11
152.751
 20
74.74
 21
75.04
  0
LINE
  8
0
 10
152.751
 11
152.645
 20
75.04
 21
75.368
  0
LINE
  8
0
 10
152.645
 11
152.609
 20
75.368
 21
75.712
  0
LINE
  8
0
 10
152.609
 11
152.645
 20
91.712
 21
92.056
  0
LINE
  8
0
 10
152.645
 11
152.751
 20
92.056
 21
92.384
  0
LINE
  8
0
 10
152.751
 11
152.923
 20
92.384
 21
92.684
  0
LINE
  8
0
 10
152.923
 11
153.153
 20
92.684
 21
92.94
  0
LINE
  8
0
 10
153.153
 11
153.431
 20
92.94
 21
93.143
  0
LINE
  8
0
 10
153.431
 11
153.745
 20
93.143
 21
93.284
  0
LINE
  8
0
 10
153.745
 11
154.081
 20
93.284
 21
93.356
  0
LINE
  8
0
 10
154.081
 11
154.425
 20
93.356
 21
93.356
  0
LINE
  8
0
 10
154.425
 11
154.761
 20
93.356
 21
93.284
  0
LINE
  8
0
 10
154.761
 11
155.075
 20
93.284
 21
93.143
  0
LINE
  8
0
 10
155.075
 11
155.353
 20
93.143
 21
92.94
  0
LINE
  8
0
 10
155.353
 11
155.583
 20
92.94
 21
92.684
  0
LINE
  8
0
 10
155.583
 11
155.755
 20
92.684
 21
92.384
  0
LINE
  8
0
 10
155.755
 11
155.861
 20
92.384
 21
92.056
  0
LINE
  8
0
 10
155.861
 11
155.897
 20
92.056
 21
91.712
  0
LINE
  8
0
 10
155.897
 11
155.861
 20
91.712
 21
91.368
  0
LINE
  8
0
 10
155.861
 11
155.755
 20
91.368
 21
91.04
  0
LINE
  8
0
 10
155.755
 11
155.583
 20
91.04
 21
90.74
  0
LINE
  8
0
 10
155.583
 11
155.353
 20
90.74
 21
90.484
  0
LINE
  8
0
 10
155.353
 11
155.075
 20
90.484
 21
90.281
  0
LINE
  8
0
 10
155.075
 11
154.761
 20
90.281
 21
90.14
  0
LINE
  8
0
 10
154.761
 11
154.425
 20
90.14
 21
90.068
  0
LINE
  8
0
 10
154.425
 11
154.081
 20
90.068
 21
90.068
  0
LINE
  8
0
 10
154.081
 11
153.745
 20
90.068
 21
90.14
  0
LINE
  8
0
 10
153.745
 11
153.431
 20
90.14
 21
90.281
  0
LINE
  8
0
 10
153.431
 11
153.153
 20
90.281
 21
90.484
  0
LINE
  8
0
 10
153.153
 11
152.923
 20
90.484
 21
90.74
  0
LINE
  8
0
 10
152.923
 11
152.751
 20
90.74
 21
91.04
  0
LINE
  8
0
 10
152.751
 11
152.645
 20
91.04
 21
91.368
  0
LINE
  8
0
 10
152.645
 11
152.609
 20
91.368
 21
91.712
  0
ENDSEC
  0
SECTION
  2
OBJECTS
  0
DICTIONARY
  0
ENDSEC
  0
EOF
